<svg width="60" height="60" viewBox="0 0 60 60" fill="none" xmlns="http://www.w3.org/2000/svg">
<g clip-path="url(#clip0)">
<path d="M30.0212 0C13.4651 0 0 13.4651 0 30.0212C0 46.5773 13.4651 60.0423 30.0212 60.0423C46.5773 60.0423 60.0423 46.5773 60.0423 30.0212C60.0423 13.4651 46.5349 0 30.0212 0ZM43.7403 28.1157H31.9266V16.8948H41.7078C42.8511 20.2399 43.5709 24.0508 43.7403 28.1157ZM31.9266 13.084V4.99647C35.1447 5.84333 38.024 8.80734 40.1411 13.084H31.9266ZM28.1157 4.99647V13.084H19.8589C22.0183 8.84968 24.8977 5.84333 28.1157 4.99647ZM18.2922 16.8948H28.0734V28.0734H16.2597C16.4714 24.0508 17.1912 20.2399 18.2922 16.8948ZM28.1157 31.9266V43.1052H18.2922C17.1489 39.7601 16.4291 35.9492 16.2597 31.9266H28.1157ZM28.1157 46.916V55.0035C24.8977 54.1567 22.0183 51.1927 19.9012 46.916H28.1157ZM31.9266 55.0035V46.916H40.1411C38.024 51.1927 35.1023 54.1567 31.9266 55.0035ZM31.9266 43.1052V31.9266H43.7403C43.5709 35.9915 42.8511 39.8024 41.7078 43.1052H31.9266ZM45.7728 16.8948H52.6747C54.9188 20.7481 56.1891 25.2364 56.1891 29.9788C56.1891 34.7636 54.9188 39.2096 52.6747 43.0628H45.7728C46.9584 39.1249 47.5935 34.7212 47.5935 29.9788C47.5935 25.2788 46.916 20.8327 45.7728 16.8948ZM50.0071 13.084H44.4178C43.1898 10.1623 41.6231 7.66408 39.8024 5.67396C43.7826 7.32534 47.2548 9.86591 50.0071 13.084ZM20.2399 5.7163C15.7939 10.5434 12.8299 18.6309 12.4488 28.1157H3.89555C4.61538 17.9534 11.1785 9.3578 20.2399 5.7163ZM3.89555 31.9266H12.4912C12.8299 41.3691 15.8363 49.4989 20.2399 54.326C11.1785 50.6422 4.61538 42.0889 3.89555 31.9266ZM39.8024 54.2837C41.6231 52.3359 43.1475 49.7953 44.4178 46.916H50.0071C47.2548 50.1341 43.7403 52.717 39.8024 54.2837Z" fill="white"/>
</g>
<defs>
<clipPath id="clip0">
<rect width="60" height="60" fill="white"/>
</clipPath>
</defs>
</svg>
