<svg width="60" height="60" viewBox="0 0 60 60" fill="none" xmlns="http://www.w3.org/2000/svg">
<g clip-path="url(#clip0)">
<path d="M57.6305 18.3217C56.3611 15.3175 54.6262 12.6095 52.5106 10.1976L54.8378 7.87041L56.8688 5.83938L58.8999 3.80835L56.1072 3.89297L56.1918 1.10031L54.1608 3.13134L52.1298 5.16237L49.8025 7.48959C47.3907 5.33162 44.6403 3.6391 41.6784 2.3697C38.2511 0.931056 34.6544 0.16942 30.9309 0.0424805H30.1693C30.1269 0.0424805 30.0423 0.0424805 30 0.0424805H27.1227C27.1227 3.72372 26.4034 7.27802 25.0071 10.6208C23.653 13.8366 21.6643 16.7562 19.2102 19.2526C16.756 21.7491 13.7941 23.6532 10.5783 25.0072C7.23554 26.4036 3.68124 27.1229 0 27.1229V30.9311H0.0423131C0.169252 34.6546 0.930888 38.2512 2.36953 41.6363C3.89281 45.1906 6.05078 48.4064 8.80113 51.1567C11.5515 53.9071 14.7673 56.065 18.3216 57.5883C22.0028 59.1539 25.9379 59.9578 30 59.9578C34.0621 59.9578 37.9549 59.1539 41.6784 57.5883C45.2327 56.065 48.4485 53.9071 51.1989 51.1567C53.9492 48.4064 56.1072 45.1906 57.6305 41.6363C59.196 37.955 60 34.0199 60 29.9579C60 25.8958 59.196 22.003 57.6305 18.3217ZM54.1185 40.1553C52.8068 43.2865 50.9027 46.0791 48.4908 48.491C46.079 50.9028 43.2863 52.7646 40.1551 54.1186C36.9394 55.4727 33.512 56.192 29.9577 56.192C26.4034 56.192 22.976 55.515 19.7602 54.1186C16.6291 52.8069 13.8364 50.9028 11.4245 48.491C9.01269 46.0791 7.15092 43.2865 5.7969 40.1553C4.5275 37.1511 3.85049 33.9776 3.76587 30.6772C6.60085 30.3387 9.30889 29.6193 11.9746 28.4769C15.6559 26.9113 18.9563 24.6687 21.7913 21.8337C24.6262 18.9988 26.8688 15.6983 28.4344 12.0171C29.6192 9.39368 30.3385 6.64333 30.7193 3.80835C34.0197 3.89297 37.1932 4.56998 40.1975 5.83938C42.7362 6.8972 45.0635 8.37816 47.1368 10.1553L42.4401 14.8521C41.0014 13.6673 39.3935 12.6941 37.6164 11.9325C35.2045 10.917 32.6234 10.4092 30 10.4092V14.2174C32.1157 14.2174 34.189 14.6405 36.1354 15.4445C37.4048 15.9945 38.6319 16.7138 39.732 17.5601L34.9506 22.3415C34.5275 22.0453 34.0621 21.7914 33.5543 21.5799C32.4118 21.1144 31.2271 20.8605 30 20.8605V24.6687C30.7193 24.6687 31.3963 24.7957 32.0733 25.0918C32.1157 25.0918 32.1157 25.1342 32.158 25.1342L28.646 28.6461L31.354 31.3542L34.866 27.8422C34.866 27.8845 34.9083 27.8845 34.9083 27.9268C35.2045 28.5615 35.3315 29.2808 35.3315 30.0002C35.3315 30.7195 35.2045 31.3965 34.9083 32.0735C34.6544 32.7082 34.2736 33.2583 33.7659 33.766C33.2581 34.2738 32.708 34.6546 32.0733 34.9085C30.7616 35.4586 29.2384 35.4586 27.969 34.9085C27.3343 34.6546 26.7842 34.2738 26.2764 33.766C25.7687 33.2583 25.3879 32.7082 25.134 32.0735C24.8378 31.4388 24.7109 30.7195 24.7109 30.0002H20.9027C20.9027 31.2272 21.1566 32.412 21.622 33.5545C22.0874 34.6546 22.7221 35.6278 23.5684 36.4318C24.4147 37.278 25.3879 37.9127 26.4457 38.3782C27.5882 38.8436 28.7729 39.0975 30 39.0975C31.2271 39.0975 32.4118 38.8436 33.5543 38.3782C34.6544 37.9127 35.6276 37.278 36.4316 36.4318C37.2779 35.5855 37.9126 34.6123 38.378 33.5545C38.8434 32.412 39.0973 31.2272 39.0973 30.0002C39.0973 28.7731 38.8434 27.5883 38.378 26.4459C38.1664 25.9381 37.9126 25.4727 37.6164 25.0495L42.3977 20.2682C43.244 21.3683 43.9633 22.5531 44.5134 23.8648C45.3173 25.8112 45.7405 27.8845 45.7405 30.0002C45.7405 32.1158 45.3173 34.1892 44.5134 36.1356C43.7094 37.9973 42.567 39.6899 41.1283 41.1285C39.6897 42.5672 37.9972 43.7096 36.1354 44.5136C34.189 45.3175 32.1157 45.7406 30 45.7406C27.8843 45.7406 25.811 45.3175 23.8646 44.5136C22.0028 43.7096 20.3103 42.5672 18.8716 41.1285C17.433 39.6899 16.2906 37.9973 15.4866 36.1356C14.6827 34.1892 14.2595 32.1158 14.2595 30.0002H10.4513C10.4513 32.6236 10.9591 35.2047 11.9746 37.6165C12.9478 39.9437 14.3865 42.0594 16.1636 43.8366C17.9408 45.6137 20.0564 47.0523 22.3836 48.0256C24.7955 49.0411 27.3766 49.5488 30 49.5488C32.6234 49.5488 35.2045 49.0411 37.6164 48.0256C39.9436 47.0523 42.0592 45.6137 43.8364 43.8366C45.6135 42.0594 47.0522 39.9437 48.0254 37.6165C49.0409 35.2047 49.5487 32.6236 49.5487 30.0002C49.5487 27.3768 49.0409 24.7957 48.0254 22.3838C47.3061 20.649 46.3329 19.0411 45.1058 17.5601L49.8025 12.8634C51.5797 14.9367 53.0606 17.2639 54.1185 19.8027C55.4725 23.0185 56.1918 26.4459 56.1918 30.0002C56.1918 33.5122 55.5148 36.9395 54.1185 40.1553Z" fill="white"/>
<path d="M8.8441 8.84344C9.98655 7.70099 10.8751 6.34697 11.5098 4.86601C12.1868 3.34274 12.5253 1.69252 12.5253 0H8.71716C8.71716 1.18477 8.50559 2.32722 8.04015 3.38505C7.61702 4.44288 6.98232 5.37377 6.17837 6.1354C5.37442 6.93935 4.44353 7.57405 3.42802 7.99718C2.37019 8.46262 1.22774 8.67419 0.0429688 8.67419V12.4824C1.73549 12.4824 3.3857 12.1439 4.90898 11.5092C6.34762 10.9168 7.70164 9.9859 8.8441 8.84344Z" fill="white"/>
<path d="M15.6135 15.656C17.6446 13.625 19.2525 11.2555 20.3526 8.63204C21.4951 5.924 22.0874 3.0044 22.0874 0.0424805H18.2793C18.2793 2.49664 17.8138 4.90849 16.8406 7.15108C15.9097 9.30905 14.598 11.2978 12.9055 12.948C11.213 14.6405 9.26657 15.9522 7.1086 16.8831C4.86601 17.8563 2.45416 18.3217 0 18.3217V22.1299C3.00423 22.1299 5.88152 21.5375 8.58956 20.3951C11.2553 19.2526 13.5825 17.687 15.6135 15.656Z" fill="white"/>
</g>
<defs>
<clipPath id="clip0">
<rect width="60" height="59.9577" fill="white"/>
</clipPath>
</defs>
</svg>
