<?xml version="1.0" encoding="UTF-8"?>
<svg width="31px" height="31px" viewBox="0 0 31 31" version="1.1" xmlns="http://www.w3.org/2000/svg" xmlns:xlink="http://www.w3.org/1999/xlink">
    <!-- Generator: Sketch 59.1 (86144) - https://sketch.com -->
    <title>001-linkedin</title>
    <desc>Created with Sketch.</desc>
    <g id="Team" stroke="none" stroke-width="1" fill="none" fill-rule="evenodd" opacity="0.4">
        <g id="Teampage" transform="translate(-127.000000, -1786.000000)" fill="#000000" fill-rule="nonzero">
            <g id="Team-/-Teaser" transform="translate(96.000000, 1157.000000)">
                <g id="Social-Channel" transform="translate(31.000000, 629.000000)">
                    <g id="001-linkedin">
                        <rect id="Rectangle" x="0" y="10.0540541" width="6.7027027" height="20.9459459"></rect>
                        <path d="M25.9044226,10.2996929 C25.8320639,10.2768428 25.7635135,10.2520885 25.6873464,10.2311425 C25.5959459,10.2101966 25.5045455,10.193059 25.4112408,10.1778256 C25.0494472,10.1054668 24.6533784,10.0540541 24.1887592,10.0540541 C20.2166462,10.0540541 17.6974201,12.9426904 16.867199,14.0585381 L16.867199,10.0540541 L10.0540541,10.0540541 L10.0540541,31 L16.867199,31 L16.867199,19.5749386 C16.867199,19.5749386 22.0160934,12.4038084 24.1887592,17.6707617 C24.1887592,22.3721744 24.1887592,31 24.1887592,31 L31,31 L31,16.8652948 C31,13.7005528 28.8311425,11.0632678 25.9044226,10.2996929 Z" id="Path"></path>
                        <circle id="Oval" cx="3.35135135" cy="3.35135135" r="3.35135135"></circle>
                    </g>
                </g>
            </g>
        </g>
    </g>
</svg>