<svg width="60" height="52" viewBox="0 0 60 52" fill="none" xmlns="http://www.w3.org/2000/svg">
<g clip-path="url(#clip0)">
<path d="M11.5936 22.299C15.7826 22.299 19.1676 18.9139 19.1676 14.7249C19.1676 10.5359 15.7826 7.15088 11.5936 7.15088C7.40458 7.15088 4.01953 10.5359 4.01953 14.7249C4.01953 18.9139 7.40458 22.299 11.5936 22.299ZM11.5936 10.9591C13.6669 10.9591 15.3594 12.6516 15.3594 14.7249C15.3594 16.7983 13.6669 18.4908 11.5936 18.4908C9.52024 18.4908 7.82771 16.7983 7.82771 14.7249C7.82771 12.6516 9.52024 10.9591 11.5936 10.9591Z" fill="white"/>
<path d="M6.38928 26.1074C2.87729 26.1074 0 29.1117 0 32.8352V51.7069H3.80818V32.8352C3.80818 31.2273 4.95063 29.9156 6.38928 29.9156H17.3907V26.1074H6.38928Z" fill="white"/>
<path d="M48.4061 22.299C52.5951 22.299 55.9801 18.9139 55.9801 14.7249C55.9801 10.5359 52.5951 7.15088 48.4061 7.15088C44.2171 7.15088 40.832 10.5359 40.832 14.7249C40.832 18.9139 44.2171 22.299 48.4061 22.299ZM48.4061 10.9591C50.4794 10.9591 52.1719 12.6516 52.1719 14.7249C52.1719 16.7983 50.4794 18.4908 48.4061 18.4908C46.3327 18.4908 44.6402 16.7983 44.6402 14.7249C44.6402 12.6516 46.2904 10.9591 48.4061 10.9591Z" fill="white"/>
<path d="M53.6106 26.1072H42.6092V26.0226C42.6092 22.4683 39.9858 19.5486 36.6431 19.3794H23.7799C20.2679 19.3794 17.3906 22.4259 17.3906 26.1495H21.1988C21.1988 24.5416 22.3836 23.1876 23.7799 23.1876H36.2623C37.6163 23.1876 38.8011 24.4993 38.8011 26.0649V51.7489H42.6092V29.9154H53.6106C55.0493 29.9154 56.1917 31.2271 56.1917 32.835V51.7066H59.9999V32.835C59.9999 29.1114 57.1226 26.1072 53.6106 26.1072Z" fill="white"/>
<path d="M29.9998 15.1481C34.1888 15.1481 37.5739 11.763 37.5739 7.57405C37.5739 3.38505 34.1465 0 29.9998 0C25.8531 0 22.4258 3.38505 22.4258 7.57405C22.4258 11.763 25.8108 15.1481 29.9998 15.1481ZM29.9998 3.80818C32.0732 3.80818 33.7657 5.50071 33.7657 7.57405C33.7657 9.64739 32.0732 11.3399 29.9998 11.3399C27.9265 11.3399 26.234 9.64739 26.234 7.57405C26.234 5.50071 27.9265 3.80818 29.9998 3.80818Z" fill="white"/>
<path d="M21.1988 29.9155H17.3906V51.7068H21.1988V29.9155Z" fill="white"/>
</g>
<defs>
<clipPath id="clip0">
<rect width="60" height="51.7066" fill="white"/>
</clipPath>
</defs>
</svg>
