<?xml version="1.0" encoding="UTF-8"?>
<svg width="30px" height="34px" viewBox="0 0 30 34" version="1.1" xmlns="http://www.w3.org/2000/svg" xmlns:xlink="http://www.w3.org/1999/xlink">
    <!-- Generator: Sketch 59.1 (86144) - https://sketch.com -->
    <title>xing-logotype</title>
    <desc>Created with Sketch.</desc>
    <g id="Team" stroke="none" stroke-width="1" fill="none" fill-rule="evenodd">
        <g id="Teampage" transform="translate(-203.000000, -1786.000000)" fill="#6a6a6a" fill-rule="nonzero">
            <g id="Team-/-Teaser" transform="translate(96.000000, 1157.000000)">
                <g id="Social-Channel" transform="translate(31.000000, 629.000000)">
                    <g id="xing-logotype" transform="translate(76.000000, 0.000000)">
                        <path d="M9.23080226,7.18171942 C8.86126328,6.56922594 8.39218995,6.26315789 7.82388096,6.26315789 L2.72873811,6.26315789 C2.40191004,6.26315789 2.17461632,6.36529971 2.04655825,6.56915446 C1.89042449,6.77322365 1.89744341,7.02511151 2.06806305,7.32438916 L5.50031781,13.0180268 C5.51435566,13.031822 5.51435566,13.0386124 5.50031781,13.0386124 L0.106571936,22.1809836 C-0.0355239787,22.4403052 -0.0355239787,22.6849023 0.106571936,22.916276 C0.249041198,23.1476497 0.469017322,23.2631579 0.767620351,23.2631579 L5.86268853,23.2631579 C6.40269781,23.2631579 6.86460287,22.9502995 7.2481797,22.3243681 C10.758688,16.3658337 12.5851768,13.2637676 12.7272727,13.0188131 L9.23080226,7.18171942 Z" id="Path"></path>
                        <path d="M29.8795841,1.06896413 C30.0401386,0.781257478 30.0401386,0.52775019 29.8795841,0.308514265 C29.7479217,0.103246081 29.5223791,0 29.2013467,0 L23.9282612,0 C23.3591548,0 22.8925121,0.308226271 22.5277967,0.924966806 C15.0444235,13.395783 11.1717259,19.850247 10.9090909,20.2888629 L18.3266329,33.0748172 C18.6764042,33.6914857 19.1579911,34 19.7706273,34 L25.0004128,34 C25.3212153,34 25.5541152,33.8970419 25.7004152,33.6915577 C25.8462554,33.4584981 25.8389749,33.2052068 25.6784204,32.9307479 L18.3266329,20.2889349 L18.3266329,20.2684872 L29.8795841,1.06896413 Z" id="Path"></path>
                    </g>
                </g>
            </g>
        </g>
    </g>
</svg>