<svg width="1464" height="488" viewBox="0 0 1464 488" fill="none" xmlns="http://www.w3.org/2000/svg">
<path d="M45.9062 225.755L116.889 249.178M116.889 249.178L147.937 207.035M116.889 249.178H223.609M116.889 249.178L137.839 291.164" stroke="black" stroke-width="3"/>
<circle cx="116.833" cy="249.255" r="21.9877" fill="#455CD0" stroke="black" stroke-width="3"/>
<circle cx="160.458" cy="189.411" r="21.9877" stroke="black" stroke-width="3"/>
<circle cx="146.752" cy="306.833" r="18.1994" stroke="black" stroke-width="3"/>
<circle cx="70.4173" cy="284.961" r="16.7181" stroke="black" stroke-width="3"/>
<circle cx="31.2226" cy="220.516" r="16.5664" stroke="black" stroke-width="3"/>
<circle cx="93.8607" cy="200.933" r="15.179" stroke="black" stroke-width="3"/>
<rect x="543.414" y="249.255" width="33" height="33" transform="rotate(-45 543.414 249.255)" fill="#455CD0"/>
<rect x="847.848" y="249.255" width="29" height="29" transform="rotate(-45 847.848 249.255)" fill="#455CD0" stroke="black" stroke-width="4"/>
<rect x="222.922" y="249.255" width="29" height="29" transform="rotate(-45 222.922 249.255)" fill="#455CD0" stroke="black" stroke-width="4"/>
<rect x="222.922" y="249.255" width="257.716" height="257.716" transform="rotate(-45 222.922 249.255)" stroke="black" stroke-width="4"/>
<rect x="546.061" y="249.255" width="242.395" height="242.395" transform="rotate(-45 546.061 249.255)" stroke="black" stroke-width="4"/>
<path d="M755.099 334.23C755.754 335.109 756.999 335.29 757.878 334.634L772.202 323.947C773.081 323.291 773.262 322.046 772.606 321.167C771.95 320.288 770.706 320.108 769.827 320.763L757.094 330.264L747.594 317.531C746.938 316.652 745.694 316.471 744.815 317.127C743.936 317.783 743.755 319.027 744.411 319.906L755.099 334.23ZM1037.74 251.242C1038.52 250.466 1038.52 249.209 1037.74 248.434L1025.1 235.796C1024.33 235.021 1023.07 235.021 1022.3 235.796C1021.52 236.572 1021.52 237.829 1022.3 238.604L1033.53 249.838L1022.3 261.071C1021.52 261.846 1021.52 263.104 1022.3 263.879C1023.07 264.655 1024.33 264.655 1025.1 263.879L1037.74 251.242ZM587.541 252.27C593.744 246.068 600.488 238.56 607.634 230.897C614.808 223.205 622.433 215.305 630.502 208.184C646.696 193.895 664.381 183.02 683.434 183.02V179.049C662.881 179.049 644.258 190.749 627.875 205.206C619.656 212.458 611.925 220.473 604.73 228.188C597.507 235.933 590.87 243.324 584.733 249.462L587.541 252.27ZM683.434 183.02C721.842 183.02 749.397 210.842 754.72 253.028L758.66 252.531C753.14 208.779 724.239 179.049 683.434 179.049V183.02ZM754.72 253.028C757.413 274.368 757.414 294.315 756.74 308.933C756.403 316.239 755.897 322.207 755.477 326.344C755.267 328.411 755.078 330.021 754.942 331.111C754.874 331.656 754.819 332.07 754.782 332.347C754.763 332.486 754.749 332.59 754.739 332.658C754.734 332.693 754.731 332.718 754.728 332.735C754.727 332.743 754.726 332.749 754.726 332.753C754.725 332.755 754.725 332.756 754.725 332.757C754.725 332.757 754.725 332.757 754.725 332.757C754.725 332.757 754.725 332.757 756.69 333.043C758.655 333.329 758.655 333.328 758.655 333.328C758.656 333.327 758.656 333.326 758.656 333.326C758.656 333.324 758.656 333.322 758.657 333.319C758.657 333.314 758.658 333.307 758.66 333.297C758.663 333.277 758.667 333.248 758.672 333.211C758.683 333.136 758.698 333.025 758.718 332.88C758.757 332.59 758.813 332.161 758.883 331.602C759.022 330.485 759.215 328.845 759.428 326.745C759.855 322.546 760.366 316.505 760.707 309.116C761.388 294.345 761.389 274.16 758.66 252.531L754.72 253.028ZM754.754 253.22C763.578 291.977 799.703 321.519 850.246 321.519V317.548C801.321 317.548 766.989 289.067 758.626 252.339L754.754 253.22ZM850.246 321.519C863.113 321.519 876.718 317.019 890.884 310.445C905.052 303.87 920.023 295.099 935.561 286.419C966.781 268.978 1000.45 251.823 1036.34 251.823V247.852C999.292 247.852 964.783 265.545 933.624 282.952C917.972 291.696 903.203 300.349 889.212 306.842C875.22 313.336 862.246 317.548 850.246 317.548V321.519Z" fill="black"/>
<path d="M898.587 212.59C898.483 213.682 897.514 214.482 896.422 214.378L878.631 212.684C877.539 212.58 876.738 211.611 876.842 210.519C876.946 209.427 877.916 208.626 879.007 208.73L894.822 210.236L896.328 194.422C896.432 193.33 897.402 192.529 898.493 192.633C899.585 192.737 900.386 193.707 900.282 194.798L898.587 212.59ZM587.4 246.91C599.479 258.989 612.709 274.717 628.355 287.622C643.928 300.468 661.505 310.15 681.873 310.15V314.122C660.181 314.122 641.724 303.798 625.828 290.686C610.003 277.634 596.325 261.451 584.592 249.718L587.4 246.91ZM681.873 310.15C722.636 310.15 744.257 279.642 754.572 247.704L758.351 248.924C747.837 281.48 725.234 314.122 681.873 314.122V310.15ZM754.572 247.704C759.89 231.237 772.093 211.796 787.001 196.465C801.844 181.201 819.791 169.584 836.7 169.584V173.556C821.444 173.556 804.479 184.188 789.848 199.234C775.281 214.214 763.448 233.144 758.351 248.924L754.572 247.704ZM836.7 169.584C853.25 169.584 864.103 174.408 873.132 182.153C877.599 185.985 881.587 190.503 885.575 195.401C889.658 200.416 893.502 205.521 898.142 211.137L895.08 213.666C890.549 208.181 886.339 202.631 882.495 197.909C878.556 193.07 874.743 188.768 870.546 185.167C862.245 178.047 852.313 173.556 836.7 173.556V169.584Z" fill="black"/>
<path d="M738.072 153.514C739.083 153.09 740.247 153.566 740.671 154.577L747.583 171.059C748.007 172.07 747.531 173.234 746.519 173.658C745.508 174.082 744.344 173.606 743.92 172.595L737.776 157.945L723.126 164.088C722.115 164.512 720.951 164.036 720.527 163.025C720.103 162.014 720.579 160.85 721.59 160.426L738.072 153.514ZM586.549 247.654C601.895 247.654 608.733 247.653 660.108 247.654L660.108 251.625C608.733 251.625 601.895 251.625 586.549 251.625L586.549 247.654ZM660.108 247.654C684.771 247.654 700.922 232.133 712.526 212.492C724.192 192.747 730.879 169.561 737.002 154.594L740.678 156.097C734.791 170.487 727.799 194.449 715.946 214.512C704.031 234.679 686.821 251.626 660.108 251.625L660.108 247.654Z" fill="black"/>
<path d="M909.133 9.49541H914.641V28.8074H926.575V33.2954H909.133V9.49541ZM945.526 28.1954H934.476L932.368 33.2954H926.724L937.332 9.49541H942.772L953.414 33.2954H947.634L945.526 28.1954ZM943.792 24.0134L940.018 14.9014L936.244 24.0134H943.792ZM965.959 33.7034C962.559 33.7034 959.907 32.7627 958.003 30.8814C956.121 29.0001 955.181 26.3141 955.181 22.8234V9.49541H960.689V22.6194C960.689 26.8807 962.457 29.0114 965.993 29.0114C967.715 29.0114 969.03 28.5014 969.937 27.4814C970.843 26.4387 971.297 24.8181 971.297 22.6194V9.49541H976.737V22.8234C976.737 26.3141 975.785 29.0001 973.881 30.8814C971.999 32.7627 969.359 33.7034 965.959 33.7034ZM1004.01 9.49541V33.2954H999.486L987.62 18.8454V33.2954H982.18V9.49541H986.736L998.568 23.9454V9.49541H1004.01ZM1021.03 33.7034C1018.6 33.7034 1016.4 33.1821 1014.43 32.1394C1012.48 31.0741 1010.94 29.6121 1009.81 27.7534C1008.7 25.8721 1008.14 23.7527 1008.14 21.3954C1008.14 19.0381 1008.7 16.9301 1009.81 15.0714C1010.94 13.1901 1012.48 11.7281 1014.43 10.6854C1016.4 9.62008 1018.61 9.08741 1021.06 9.08741C1023.13 9.08741 1024.98 9.45008 1026.64 10.1754C1028.32 10.9007 1029.72 11.9434 1030.85 13.3034L1027.32 16.5674C1025.71 14.7087 1023.71 13.7794 1021.33 13.7794C1019.86 13.7794 1018.55 14.1081 1017.39 14.7654C1016.23 15.4001 1015.33 16.2954 1014.67 17.4514C1014.04 18.6074 1013.72 19.9221 1013.72 21.3954C1013.72 22.8687 1014.04 24.1834 1014.67 25.3394C1015.33 26.4954 1016.23 27.4021 1017.39 28.0594C1018.55 28.6941 1019.86 29.0114 1021.33 29.0114C1023.71 29.0114 1025.71 28.0707 1027.32 26.1894L1030.85 29.4534C1029.72 30.8361 1028.32 31.8901 1026.64 32.6154C1024.96 33.3407 1023.09 33.7034 1021.03 33.7034ZM1056.4 9.49541V33.2954H1050.89V23.5374H1040.08V33.2954H1034.57V9.49541H1040.08V18.8794H1050.89V9.49541H1056.4Z" fill="#455CD0"/>
<path d="M54.7666 21.0214H59.7986V30.6774C58.5066 31.6521 57.0106 32.4001 55.3106 32.9214C53.6106 33.4427 51.8993 33.7034 50.1766 33.7034C47.706 33.7034 45.4846 33.1821 43.5126 32.1394C41.5406 31.0741 39.988 29.6121 38.8546 27.7534C37.744 25.8721 37.1886 23.7527 37.1886 21.3954C37.1886 19.0381 37.744 16.9301 38.8546 15.0714C39.988 13.1901 41.552 11.7281 43.5466 10.6854C45.5413 9.62008 47.7853 9.08741 50.2786 9.08741C52.364 9.08741 54.2566 9.43874 55.9566 10.1414C57.6566 10.8441 59.0846 11.8641 60.2406 13.2014L56.7046 16.4654C55.0046 14.6747 52.9533 13.7794 50.5506 13.7794C49.032 13.7794 47.6833 14.0967 46.5046 14.7314C45.326 15.3661 44.408 16.2614 43.7506 17.4174C43.0933 18.5734 42.7646 19.8994 42.7646 21.3954C42.7646 22.8687 43.0933 24.1834 43.7506 25.3394C44.408 26.4954 45.3146 27.4021 46.4706 28.0594C47.6493 28.6941 48.9866 29.0114 50.4826 29.0114C52.0693 29.0114 53.4973 28.6714 54.7666 27.9914V21.0214ZM80.5891 28.1954H69.5391L67.4311 33.2954H61.7871L72.3951 9.49541H77.8351L88.4771 33.2954H82.6971L80.5891 28.1954ZM78.8551 24.0134L75.0811 14.9014L71.3071 24.0134H78.8551ZM94.681 13.9834H87.065V9.49541H107.805V13.9834H100.189V33.2954H94.681V13.9834ZM132.597 9.49541V33.2954H127.089V23.5374H116.277V33.2954H110.769V9.49541H116.277V18.8794H127.089V9.49541H132.597ZM156.656 28.8754V33.2954H138.228V9.49541H156.214V13.9154H143.702V19.0834H154.752V23.3674H143.702V28.8754H156.656ZM176.202 33.2954L171.612 26.6654H171.34H166.546V33.2954H161.038V9.49541H171.34C173.448 9.49541 175.273 9.84674 176.814 10.5494C178.378 11.2521 179.579 12.2494 180.418 13.5414C181.257 14.8334 181.676 16.3634 181.676 18.1314C181.676 19.8994 181.245 21.4294 180.384 22.7214C179.545 23.9907 178.344 24.9654 176.78 25.6454L182.118 33.2954H176.202ZM176.1 18.1314C176.1 16.7941 175.669 15.7741 174.808 15.0714C173.947 14.3461 172.689 13.9834 171.034 13.9834H166.546V22.2794H171.034C172.689 22.2794 173.947 21.9167 174.808 21.1914C175.669 20.4661 176.1 19.4461 176.1 18.1314Z" fill="#455CD0"/>
<path d="M467.98 9.49541H478.792C481.376 9.49541 483.654 9.99408 485.626 10.9914C487.62 11.9661 489.162 13.3487 490.25 15.1394C491.36 16.9301 491.916 19.0154 491.916 21.3954C491.916 23.7754 491.36 25.8607 490.25 27.6514C489.162 29.4421 487.62 30.8361 485.626 31.8334C483.654 32.8081 481.376 33.2954 478.792 33.2954H467.98V9.49541ZM478.52 28.7734C480.9 28.7734 482.792 28.1161 484.198 26.8014C485.626 25.4641 486.34 23.6621 486.34 21.3954C486.34 19.1287 485.626 17.3381 484.198 16.0234C482.792 14.6861 480.9 14.0174 478.52 14.0174H473.488V28.7734H478.52ZM496.069 9.49541H501.577V33.2954H496.069V9.49541ZM515.046 33.7034C513.164 33.7034 511.34 33.4541 509.572 32.9554C507.826 32.4341 506.421 31.7654 505.356 30.9494L507.226 26.8014C508.246 27.5494 509.458 28.1501 510.864 28.6034C512.269 29.0567 513.674 29.2834 515.08 29.2834C516.644 29.2834 517.8 29.0567 518.548 28.6034C519.296 28.1274 519.67 27.5041 519.67 26.7334C519.67 26.1667 519.443 25.7021 518.99 25.3394C518.559 24.9541 517.992 24.6481 517.29 24.4214C516.61 24.1947 515.68 23.9454 514.502 23.6734C512.688 23.2427 511.204 22.8121 510.048 22.3814C508.892 21.9507 507.894 21.2594 507.056 20.3074C506.24 19.3554 505.832 18.0861 505.832 16.4994C505.832 15.1167 506.206 13.8701 506.954 12.7594C507.702 11.6261 508.824 10.7307 510.32 10.0734C511.838 9.41608 513.686 9.08741 515.862 9.08741C517.38 9.08741 518.865 9.26874 520.316 9.63141C521.766 9.99408 523.036 10.5154 524.124 11.1954L522.424 15.3774C520.225 14.1307 518.026 13.5074 515.828 13.5074C514.286 13.5074 513.142 13.7567 512.394 14.2554C511.668 14.7541 511.306 15.4114 511.306 16.2274C511.306 17.0434 511.725 17.6554 512.564 18.0634C513.425 18.4487 514.728 18.8341 516.474 19.2194C518.287 19.6501 519.772 20.0807 520.928 20.5114C522.084 20.9421 523.07 21.6221 523.886 22.5514C524.724 23.4807 525.144 24.7387 525.144 26.3254C525.144 27.6854 524.758 28.9321 523.988 30.0654C523.24 31.1761 522.106 32.0601 520.588 32.7174C519.069 33.3747 517.222 33.7034 515.046 33.7034ZM540.297 33.7034C537.872 33.7034 535.673 33.1821 533.701 32.1394C531.752 31.0741 530.211 29.6121 529.077 27.7534C527.967 25.8721 527.411 23.7527 527.411 21.3954C527.411 19.0381 527.967 16.9301 529.077 15.0714C530.211 13.1901 531.752 11.7281 533.701 10.6854C535.673 9.62008 537.883 9.08741 540.331 9.08741C542.394 9.08741 544.253 9.45008 545.907 10.1754C547.585 10.9007 548.99 11.9434 550.123 13.3034L546.587 16.5674C544.978 14.7087 542.983 13.7794 540.603 13.7794C539.13 13.7794 537.815 14.1081 536.659 14.7654C535.503 15.4001 534.597 16.2954 533.939 17.4514C533.305 18.6074 532.987 19.9221 532.987 21.3954C532.987 22.8687 533.305 24.1834 533.939 25.3394C534.597 26.4954 535.503 27.4021 536.659 28.0594C537.815 28.6941 539.13 29.0114 540.603 29.0114C542.983 29.0114 544.978 28.0707 546.587 26.1894L550.123 29.4534C548.99 30.8361 547.585 31.8901 545.907 32.6154C544.23 33.3407 542.36 33.7034 540.297 33.7034ZM564.871 33.7034C562.4 33.7034 560.167 33.1707 558.173 32.1054C556.201 31.0401 554.648 29.5781 553.515 27.7194C552.404 25.8381 551.849 23.7301 551.849 21.3954C551.849 19.0607 552.404 16.9641 553.515 15.1054C554.648 13.2241 556.201 11.7507 558.173 10.6854C560.167 9.62008 562.4 9.08741 564.871 9.08741C567.341 9.08741 569.563 9.62008 571.535 10.6854C573.507 11.7507 575.059 13.2241 576.193 15.1054C577.326 16.9641 577.893 19.0607 577.893 21.3954C577.893 23.7301 577.326 25.8381 576.193 27.7194C575.059 29.5781 573.507 31.0401 571.535 32.1054C569.563 33.1707 567.341 33.7034 564.871 33.7034ZM564.871 29.0114C566.276 29.0114 567.545 28.6941 568.679 28.0594C569.812 27.4021 570.696 26.4954 571.331 25.3394C571.988 24.1834 572.317 22.8687 572.317 21.3954C572.317 19.9221 571.988 18.6074 571.331 17.4514C570.696 16.2954 569.812 15.4001 568.679 14.7654C567.545 14.1081 566.276 13.7794 564.871 13.7794C563.465 13.7794 562.196 14.1081 561.063 14.7654C559.929 15.4001 559.034 16.2954 558.377 17.4514C557.742 18.6074 557.425 19.9221 557.425 21.3954C557.425 22.8687 557.742 24.1834 558.377 25.3394C559.034 26.4954 559.929 27.4021 561.063 28.0594C562.196 28.6941 563.465 29.0114 564.871 29.0114ZM604.117 9.49541L593.815 33.2954H588.375L578.107 9.49541H584.057L591.299 26.4954L598.643 9.49541H604.117ZM624.533 28.8754V33.2954H606.105V9.49541H624.091V13.9154H611.579V19.0834H622.629V23.3674H611.579V28.8754H624.533ZM644.079 33.2954L639.489 26.6654H639.217H634.423V33.2954H628.915V9.49541H639.217C641.325 9.49541 643.15 9.84674 644.691 10.5494C646.255 11.2521 647.456 12.2494 648.295 13.5414C649.134 14.8334 649.553 16.3634 649.553 18.1314C649.553 19.8994 649.122 21.4294 648.261 22.7214C647.422 23.9907 646.221 24.9654 644.657 25.6454L649.995 33.2954H644.079ZM643.977 18.1314C643.977 16.7941 643.546 15.7741 642.685 15.0714C641.824 14.3461 640.566 13.9834 638.911 13.9834H634.423V22.2794H638.911C640.566 22.2794 641.824 21.9167 642.685 21.1914C643.546 20.4661 643.977 19.4461 643.977 18.1314Z" fill="#455CD0"/>
<path d="M1237.41 21.0214H1242.44V30.6774C1241.15 31.6521 1239.65 32.4001 1237.95 32.9214C1236.25 33.4427 1234.54 33.7034 1232.82 33.7034C1230.35 33.7034 1228.13 33.1821 1226.16 32.1394C1224.18 31.0741 1222.63 29.6121 1221.5 27.7534C1220.39 25.8721 1219.83 23.7527 1219.83 21.3954C1219.83 19.0381 1220.39 16.9301 1221.5 15.0714C1222.63 13.1901 1224.19 11.7281 1226.19 10.6854C1228.18 9.62008 1230.43 9.08741 1232.92 9.08741C1235.01 9.08741 1236.9 9.43874 1238.6 10.1414C1240.3 10.8441 1241.73 11.8641 1242.88 13.2014L1239.35 16.4654C1237.65 14.6747 1235.6 13.7794 1233.19 13.7794C1231.67 13.7794 1230.33 14.0967 1229.15 14.7314C1227.97 15.3661 1227.05 16.2614 1226.39 17.4174C1225.74 18.5734 1225.41 19.8994 1225.41 21.3954C1225.41 22.8687 1225.74 24.1834 1226.39 25.3394C1227.05 26.4954 1227.96 27.4021 1229.11 28.0594C1230.29 28.6941 1231.63 29.0114 1233.13 29.0114C1234.71 29.0114 1236.14 28.6714 1237.41 27.9914V21.0214ZM1262.72 33.2954L1258.13 26.6654H1257.86H1253.07V33.2954H1247.56V9.49541H1257.86C1259.97 9.49541 1261.79 9.84674 1263.33 10.5494C1264.9 11.2521 1266.1 12.2494 1266.94 13.5414C1267.78 14.8334 1268.2 16.3634 1268.2 18.1314C1268.2 19.8994 1267.77 21.4294 1266.9 22.7214C1266.07 23.9907 1264.86 24.9654 1263.3 25.6454L1268.64 33.2954H1262.72ZM1262.62 18.1314C1262.62 16.7941 1262.19 15.7741 1261.33 15.0714C1260.47 14.3461 1259.21 13.9834 1257.55 13.9834H1253.07V22.2794H1257.55C1259.21 22.2794 1260.47 21.9167 1261.33 21.1914C1262.19 20.4661 1262.62 19.4461 1262.62 18.1314ZM1284.09 33.7034C1281.61 33.7034 1279.38 33.1707 1277.39 32.1054C1275.42 31.0401 1273.86 29.5781 1272.73 27.7194C1271.62 25.8381 1271.06 23.7301 1271.06 21.3954C1271.06 19.0607 1271.62 16.9641 1272.73 15.1054C1273.86 13.2241 1275.42 11.7507 1277.39 10.6854C1279.38 9.62008 1281.61 9.08741 1284.09 9.08741C1286.56 9.08741 1288.78 9.62008 1290.75 10.6854C1292.72 11.7507 1294.27 13.2241 1295.41 15.1054C1296.54 16.9641 1297.11 19.0607 1297.11 21.3954C1297.11 23.7301 1296.54 25.8381 1295.41 27.7194C1294.27 29.5781 1292.72 31.0401 1290.75 32.1054C1288.78 33.1707 1286.56 33.7034 1284.09 33.7034ZM1284.09 29.0114C1285.49 29.0114 1286.76 28.6941 1287.89 28.0594C1289.03 27.4021 1289.91 26.4954 1290.55 25.3394C1291.2 24.1834 1291.53 22.8687 1291.53 21.3954C1291.53 19.9221 1291.2 18.6074 1290.55 17.4514C1289.91 16.2954 1289.03 15.4001 1287.89 14.7654C1286.76 14.1081 1285.49 13.7794 1284.09 13.7794C1282.68 13.7794 1281.41 14.1081 1280.28 14.7654C1279.14 15.4001 1278.25 16.2954 1277.59 17.4514C1276.96 18.6074 1276.64 19.9221 1276.64 21.3954C1276.64 22.8687 1276.96 24.1834 1277.59 25.3394C1278.25 26.4954 1279.14 27.4021 1280.28 28.0594C1281.41 28.6941 1282.68 29.0114 1284.09 29.0114ZM1336.42 9.49541L1328.64 33.2954H1322.72L1317.48 17.1794L1312.08 33.2954H1306.2L1298.38 9.49541H1304.09L1309.46 26.2234L1315.07 9.49541H1320.17L1325.61 26.3594L1331.15 9.49541H1336.42Z" fill="#455CD0"/>
<path d="M247.76 203.924L249.14 205.304L243.389 211.054L235.963 203.627L241.575 198.015L242.954 199.394L239.05 203.298L240.663 204.911L244.111 201.463L245.448 202.8L242 206.248L243.718 207.967L247.76 203.924ZM255.113 199.33L250.742 198.545L251.559 202.884L249.586 204.857L248.557 198.333L242.297 197.293L244.249 195.341L248.366 196.041L247.634 191.957L249.49 190.1L250.488 196.275L257.097 197.346L255.113 199.33ZM253.558 186.032C254.216 185.375 254.895 184.915 255.595 184.653C256.302 184.384 256.988 184.321 257.653 184.462C258.318 184.604 258.926 184.95 259.478 185.502C260.023 186.046 260.369 186.655 260.518 187.327C260.659 187.991 260.596 188.678 260.327 189.385C260.058 190.078 259.595 190.753 258.937 191.411L257.441 192.907L259.489 194.955L257.77 196.673L250.343 189.247L253.558 186.032ZM257.441 190.106C257.957 189.59 258.24 189.088 258.29 188.6C258.332 188.105 258.148 187.652 257.738 187.242C257.321 186.824 256.868 186.641 256.38 186.69C255.885 186.733 255.379 187.012 254.863 187.528L253.463 188.929L256.041 191.507L257.441 190.106ZM258.01 181.58L259.729 179.861L265.755 185.887L269.479 182.164L270.879 183.564L265.437 189.007L258.01 181.58ZM275.439 179.259C274.668 180.03 273.805 180.56 272.85 180.85C271.903 181.133 270.962 181.161 270.028 180.935C269.095 180.695 268.264 180.21 267.535 179.482C266.807 178.753 266.326 177.926 266.092 176.999C265.859 176.058 265.884 175.114 266.167 174.166C266.457 173.212 266.987 172.349 267.758 171.578C268.529 170.807 269.388 170.28 270.336 169.997C271.284 169.714 272.228 169.689 273.169 169.923C274.102 170.149 274.933 170.626 275.662 171.355C276.39 172.083 276.871 172.918 277.105 173.859C277.331 174.792 277.303 175.733 277.02 176.681C276.737 177.629 276.21 178.488 275.439 179.259ZM273.975 177.795C274.414 177.356 274.711 176.861 274.866 176.309C275.015 175.751 275.008 175.192 274.845 174.633C274.689 174.067 274.382 173.555 273.922 173.095C273.462 172.635 272.949 172.327 272.384 172.172C271.825 172.009 271.27 172.006 270.718 172.161C270.159 172.31 269.661 172.603 269.222 173.042C268.784 173.48 268.49 173.979 268.342 174.538C268.186 175.089 268.186 175.648 268.342 176.214C268.504 176.773 268.815 177.282 269.275 177.742C269.735 178.201 270.244 178.513 270.803 178.675C271.369 178.831 271.931 178.834 272.49 178.686C273.041 178.53 273.536 178.233 273.975 177.795ZM285.398 169.045L281.897 168.408L281.813 168.493L280.317 169.989L282.385 172.058L280.667 173.776L273.24 166.35L276.455 163.135C277.113 162.478 277.792 162.018 278.492 161.756C279.199 161.487 279.885 161.424 280.55 161.565C281.215 161.707 281.823 162.053 282.375 162.605C282.927 163.157 283.27 163.768 283.404 164.44C283.538 165.098 283.468 165.777 283.192 166.477L287.244 167.199L285.398 169.045ZM280.635 164.345C280.218 163.928 279.765 163.744 279.277 163.793C278.782 163.836 278.276 164.115 277.76 164.631L276.359 166.032L278.948 168.62L280.349 167.22C280.865 166.704 281.144 166.198 281.187 165.703C281.229 165.208 281.045 164.755 280.635 164.345ZM291.768 159.493L288.32 162.941L289.253 165.19L287.492 166.951L283.376 156.214L285.073 154.517L295.82 158.623L294.017 160.426L291.768 159.493ZM289.922 158.729L285.901 157.063L287.567 161.084L289.922 158.729ZM291.73 150.661L289.354 153.037L287.953 151.637L294.425 145.165L295.825 146.566L293.449 148.942L299.475 154.968L297.756 156.687L291.73 150.661ZM295.35 144.241L297.068 142.522L304.495 149.948L302.776 151.667L295.35 144.241ZM309.981 144.717C309.21 145.488 308.347 146.018 307.393 146.308C306.445 146.591 305.504 146.619 304.571 146.393C303.637 146.152 302.806 145.668 302.077 144.939C301.349 144.211 300.868 143.383 300.635 142.457C300.401 141.516 300.426 140.572 300.709 139.624C300.999 138.669 301.529 137.807 302.3 137.036C303.071 136.265 303.93 135.738 304.878 135.455C305.826 135.172 306.77 135.147 307.711 135.381C308.644 135.607 309.476 136.084 310.204 136.813C310.933 137.541 311.413 138.376 311.647 139.317C311.873 140.25 311.845 141.191 311.562 142.139C311.279 143.086 310.752 143.946 309.981 144.717ZM308.517 143.253C308.956 142.814 309.253 142.319 309.408 141.767C309.557 141.209 309.55 140.65 309.387 140.091C309.232 139.525 308.924 139.012 308.464 138.553C308.004 138.093 307.492 137.785 306.926 137.63C306.367 137.467 305.812 137.463 305.26 137.619C304.701 137.768 304.203 138.061 303.764 138.5C303.326 138.938 303.032 139.437 302.884 139.996C302.728 140.547 302.728 141.106 302.884 141.672C303.046 142.231 303.358 142.74 303.817 143.2C304.277 143.659 304.786 143.97 305.345 144.133C305.911 144.289 306.473 144.292 307.032 144.144C307.584 143.988 308.079 143.691 308.517 143.253ZM314.594 124.997L322.02 132.423L320.609 133.834L312.397 133.028L316.906 137.537L315.209 139.234L307.782 131.808L309.204 130.386L317.405 131.203L312.896 126.694L314.594 124.997ZM328.553 120.034L329.392 124.012L327.959 125.444L327.227 122.505L324.076 125.656L322.931 124.511L326.071 121.37L323.164 120.649L324.596 119.217L328.553 120.034Z" fill="#455CD0"/>
<path d="M572.278 199.72L573.657 201.099L567.907 206.849L560.481 199.423L566.093 193.811L567.472 195.19L563.568 199.094L565.18 200.707L568.628 197.259L569.965 198.595L566.517 202.043L568.236 203.762L572.278 199.72ZM579.631 195.125L575.26 194.34L576.077 198.679L574.103 200.653L573.074 194.128L566.815 193.088L568.767 191.136L572.883 191.837L572.151 187.752L574.008 185.895L575.005 192.07L581.615 193.141L579.631 195.125ZM578.076 181.828C578.733 181.17 579.412 180.71 580.113 180.449C580.82 180.18 581.506 180.116 582.171 180.258C582.836 180.399 583.444 180.746 583.996 181.297C584.54 181.842 584.887 182.45 585.035 183.122C585.177 183.787 585.113 184.473 584.844 185.18C584.576 185.873 584.112 186.549 583.455 187.207L581.959 188.702L584.006 190.75L582.287 192.469L574.861 185.042L578.076 181.828ZM581.959 185.902C582.475 185.385 582.758 184.883 582.807 184.395C582.85 183.9 582.666 183.447 582.256 183.037C581.838 182.62 581.386 182.436 580.898 182.485C580.403 182.528 579.897 182.807 579.381 183.324L577.98 184.724L580.558 187.302L581.959 185.902ZM582.528 177.375L584.247 175.657L590.273 181.683L593.996 177.959L595.397 179.359L589.954 184.802L582.528 177.375ZM599.957 175.054C599.186 175.825 598.323 176.356 597.368 176.646C596.42 176.929 595.48 176.957 594.546 176.73C593.612 176.49 592.781 176.006 592.053 175.277C591.324 174.549 590.843 173.721 590.61 172.794C590.377 171.854 590.401 170.91 590.684 169.962C590.974 169.007 591.505 168.144 592.276 167.373C593.047 166.602 593.906 166.075 594.854 165.792C595.801 165.509 596.746 165.485 597.686 165.718C598.62 165.944 599.451 166.422 600.179 167.15C600.908 167.879 601.389 168.713 601.622 169.654C601.849 170.588 601.82 171.528 601.537 172.476C601.255 173.424 600.728 174.283 599.957 175.054ZM598.493 173.59C598.931 173.152 599.228 172.657 599.384 172.105C599.532 171.546 599.525 170.987 599.363 170.429C599.207 169.863 598.899 169.35 598.44 168.89C597.98 168.431 597.467 168.123 596.901 167.967C596.342 167.805 595.787 167.801 595.236 167.957C594.677 168.105 594.178 168.399 593.74 168.837C593.301 169.276 593.008 169.774 592.859 170.333C592.703 170.885 592.703 171.444 592.859 172.009C593.022 172.568 593.333 173.077 593.793 173.537C594.252 173.997 594.762 174.308 595.32 174.471C595.886 174.626 596.449 174.63 597.007 174.481C597.559 174.326 598.054 174.029 598.493 173.59ZM609.916 164.84L606.415 164.204L606.33 164.289L604.834 165.784L606.903 167.853L605.184 169.572L597.758 162.145L600.972 158.931C601.63 158.273 602.309 157.813 603.009 157.552C603.717 157.283 604.403 157.219 605.068 157.361C605.732 157.502 606.341 157.849 606.892 158.4C607.444 158.952 607.787 159.564 607.922 160.236C608.056 160.894 607.985 161.573 607.709 162.273L611.762 162.994L609.916 164.84ZM605.153 160.14C604.735 159.723 604.283 159.539 603.795 159.589C603.299 159.631 602.794 159.91 602.277 160.427L600.877 161.827L603.466 164.416L604.866 163.015C605.382 162.499 605.662 161.993 605.704 161.498C605.747 161.003 605.563 160.551 605.153 160.14ZM616.285 155.288L612.837 158.736L613.771 160.985L612.01 162.746L607.893 152.01L609.591 150.312L620.338 154.418L618.534 156.222L616.285 155.288ZM614.439 154.524L610.418 152.859L612.084 156.88L614.439 154.524ZM616.248 146.456L613.871 148.833L612.471 147.432L618.943 140.961L620.343 142.361L617.967 144.738L623.993 150.764L622.274 152.482L616.248 146.456ZM619.867 140.036L621.586 138.317L629.013 145.744L627.294 147.462L619.867 140.036ZM634.499 140.512C633.728 141.283 632.865 141.813 631.91 142.103C630.962 142.386 630.022 142.415 629.088 142.188C628.154 141.948 627.323 141.463 626.595 140.735C625.866 140.006 625.385 139.179 625.152 138.252C624.919 137.312 624.943 136.367 625.226 135.42C625.516 134.465 626.047 133.602 626.818 132.831C627.589 132.06 628.448 131.533 629.396 131.25C630.344 130.967 631.288 130.943 632.228 131.176C633.162 131.402 633.993 131.88 634.722 132.608C635.45 133.337 635.931 134.171 636.164 135.112C636.391 136.046 636.362 136.986 636.08 137.934C635.797 138.882 635.27 139.741 634.499 140.512ZM633.035 139.048C633.473 138.609 633.77 138.114 633.926 137.563C634.074 137.004 634.067 136.445 633.905 135.886C633.749 135.321 633.441 134.808 632.982 134.348C632.522 133.888 632.009 133.581 631.443 133.425C630.885 133.262 630.329 133.259 629.778 133.415C629.219 133.563 628.72 133.857 628.282 134.295C627.843 134.734 627.55 135.232 627.401 135.791C627.246 136.343 627.246 136.901 627.401 137.467C627.564 138.026 627.875 138.535 628.335 138.995C628.795 139.455 629.304 139.766 629.863 139.929C630.428 140.084 630.991 140.088 631.549 139.939C632.101 139.784 632.596 139.487 633.035 139.048ZM639.111 120.792L646.538 128.219L645.127 129.63L636.915 128.823L641.424 133.332L639.727 135.03L632.3 127.603L633.722 126.182L641.923 126.999L637.414 122.49L639.111 120.792ZM653.071 115.829L653.909 119.807L652.477 121.24L651.745 118.301L648.594 121.452L647.448 120.306L650.588 117.166L647.682 116.444L649.114 115.012L653.071 115.829Z" fill="#455CD0"/>
<path d="M427.026 56.0593L416.385 60.2711L414.688 58.5737L418.91 47.9432L420.767 49.7998L417.722 57.3642L425.318 54.3512L427.026 56.0593ZM426.453 67.1566L423.005 63.7086L420.756 64.6422L418.995 62.8811L429.731 58.7647L431.429 60.4622L427.323 71.2093L425.52 69.4058L426.453 67.1566ZM427.217 65.3106L428.883 61.2897L424.862 62.9554L427.217 65.3106ZM435.52 64.5534L437.239 66.2721L431.213 72.2981L434.937 76.022L433.536 77.4224L428.094 71.9798L435.52 64.5534ZM441.923 70.9562L443.642 72.6749L436.215 80.1014L434.497 78.3827L441.923 70.9562ZM445.404 74.4374L448.778 77.8111C449.584 78.6174 450.139 79.4838 450.444 80.4104C450.762 81.3369 450.811 82.2493 450.592 83.1475C450.38 84.0529 449.902 84.8768 449.16 85.6195C448.417 86.3621 447.593 86.8396 446.688 87.0517C445.79 87.271 444.874 87.225 443.94 86.9138C443.021 86.6026 442.158 86.0439 441.351 85.2376L437.978 81.8638L445.404 74.4374ZM442.678 83.7417C443.42 84.4843 444.216 84.8698 445.065 84.8981C445.928 84.9264 446.713 84.5869 447.42 83.8796C448.127 83.1723 448.463 82.3908 448.428 81.5349C448.407 80.6791 448.025 79.8799 447.282 79.1373L445.712 77.5671L441.107 82.1715L442.678 83.7417ZM453.121 93.8247L449.673 90.3767L447.424 91.3103L445.663 89.5492L456.4 85.4328L458.097 87.1303L453.991 97.8775L452.188 96.0739L453.121 93.8247ZM453.885 91.9787L455.551 87.9578L451.53 89.6235L453.885 91.9787ZM461.953 93.7873L459.577 91.4108L460.977 90.0104L467.449 96.482L466.048 97.8824L463.672 95.506L457.646 101.532L455.927 99.8133L461.953 93.7873ZM468.374 97.4068L470.092 99.1255L462.666 106.552L460.947 104.833L468.374 97.4068ZM467.897 112.038C467.127 111.267 466.596 110.404 466.306 109.45C466.023 108.502 465.995 107.561 466.221 106.628C466.462 105.694 466.946 104.863 467.675 104.134C468.403 103.406 469.231 102.925 470.157 102.691C471.098 102.458 472.042 102.483 472.99 102.766C473.945 103.056 474.808 103.586 475.579 104.357C476.349 105.128 476.876 105.987 477.159 106.935C477.442 107.883 477.467 108.827 477.234 109.768C477.007 110.701 476.53 111.533 475.801 112.261C475.073 112.99 474.238 113.47 473.298 113.704C472.364 113.93 471.423 113.902 470.475 113.619C469.528 113.336 468.668 112.809 467.897 112.038ZM469.362 110.574C469.8 111.013 470.295 111.31 470.847 111.465C471.406 111.614 471.964 111.607 472.523 111.444C473.089 111.288 473.602 110.981 474.061 110.521C474.521 110.061 474.829 109.549 474.984 108.983C475.147 108.424 475.151 107.869 474.995 107.317C474.846 106.758 474.553 106.26 474.114 105.821C473.676 105.383 473.177 105.089 472.619 104.941C472.067 104.785 471.508 104.785 470.942 104.941C470.384 105.103 469.874 105.415 469.415 105.874C468.955 106.334 468.644 106.843 468.481 107.402C468.325 107.968 468.322 108.53 468.47 109.089C468.626 109.641 468.923 110.136 469.362 110.574ZM487.617 116.651L480.191 124.077L478.78 122.666L479.586 114.454L475.077 118.963L473.38 117.266L480.806 109.839L482.228 111.261L481.411 119.462L485.92 114.953L487.617 116.651ZM492.581 130.61L488.602 131.449L487.17 130.016L490.109 129.284L486.958 126.133L488.103 124.988L491.244 128.128L491.965 125.221L493.397 126.653L492.581 130.61Z" fill="#455CD0"/>
<path d="M740.239 67.29L729.598 71.5019L727.9 69.8044L732.123 59.1739L733.98 61.0306L730.935 68.5949L738.531 65.5819L740.239 67.29ZM739.666 78.3873L736.218 74.9393L733.969 75.8729L732.208 74.1118L742.944 69.9954L744.642 71.6929L740.536 82.4401L738.733 80.6365L739.666 78.3873ZM740.43 76.5413L742.096 72.5204L738.075 74.1861L740.43 76.5413ZM748.733 75.7841L750.452 77.5028L744.426 83.5288L748.15 87.2527L746.749 88.6531L741.307 83.2106L748.733 75.7841ZM755.136 82.1869L756.855 83.9056L749.428 91.3321L747.709 89.6134L755.136 82.1869ZM758.617 85.6681L761.991 89.0418C762.797 89.8481 763.352 90.7145 763.656 91.6411C763.975 92.5676 764.024 93.48 763.805 94.3783C763.593 95.2836 763.115 96.1076 762.373 96.8502C761.63 97.5929 760.806 98.0703 759.901 98.2825C759.002 98.5017 758.087 98.4557 757.153 98.1445C756.233 97.8333 755.371 97.2746 754.564 96.4683L751.191 93.0945L758.617 85.6681ZM755.89 94.9724C756.633 95.715 757.429 96.1005 758.278 96.1288C759.14 96.1571 759.925 95.8176 760.633 95.1103C761.34 94.403 761.676 93.6215 761.641 92.7657C761.619 91.9098 761.238 91.1106 760.495 90.368L758.925 88.7978L754.32 93.4022L755.89 94.9724ZM766.334 105.055L762.886 101.607L760.637 102.541L758.876 100.78L769.612 96.6635L771.31 98.361L767.204 109.108L765.401 107.305L766.334 105.055ZM767.098 103.209L768.764 99.1885L764.743 100.854L767.098 103.209ZM775.166 105.018L772.79 102.642L774.19 101.241L780.662 107.713L779.261 109.113L776.885 106.737L770.859 112.763L769.14 111.044L775.166 105.018ZM781.586 108.637L783.305 110.356L775.879 117.783L774.16 116.064L781.586 108.637ZM781.11 123.269C780.339 122.498 779.809 121.635 779.519 120.68C779.236 119.733 779.208 118.792 779.434 117.858C779.675 116.925 780.159 116.094 780.888 115.365C781.616 114.637 782.444 114.156 783.37 113.922C784.311 113.689 785.255 113.714 786.203 113.996C787.158 114.286 788.02 114.817 788.791 115.588C789.562 116.359 790.089 117.218 790.372 118.166C790.655 119.114 790.68 120.058 790.446 120.999C790.22 121.932 789.743 122.763 789.014 123.492C788.286 124.22 787.451 124.701 786.51 124.935C785.577 125.161 784.636 125.133 783.688 124.85C782.741 124.567 781.881 124.04 781.11 123.269ZM782.574 121.805C783.013 122.243 783.508 122.54 784.06 122.696C784.618 122.845 785.177 122.837 785.736 122.675C786.302 122.519 786.815 122.212 787.274 121.752C787.734 121.292 788.042 120.779 788.197 120.213C788.36 119.655 788.364 119.099 788.208 118.548C788.059 117.989 787.766 117.49 787.327 117.052C786.889 116.613 786.39 116.32 785.831 116.171C785.28 116.016 784.721 116.016 784.155 116.171C783.596 116.334 783.087 116.645 782.627 117.105C782.168 117.565 781.857 118.074 781.694 118.633C781.538 119.199 781.535 119.761 781.683 120.32C781.839 120.871 782.136 121.366 782.574 121.805ZM800.83 127.881L793.404 135.308L791.993 133.897L792.799 125.685L788.29 130.194L786.593 128.497L794.019 121.07L795.441 122.492L794.624 130.693L799.133 126.184L800.83 127.881ZM805.793 141.841L801.815 142.679L800.383 141.247L803.321 140.515L800.171 137.364L801.316 136.218L804.457 139.359L805.178 136.452L806.61 137.884L805.793 141.841Z" fill="#455CD0"/>
<path d="M1427.15 51.0563C1428.98 51.0563 1430.46 49.5745 1430.46 47.7467C1430.46 45.9188 1428.98 44.437 1427.15 44.437C1425.32 44.437 1423.84 45.9188 1423.84 47.7467C1423.84 49.5745 1425.32 51.0563 1427.15 51.0563Z" fill="black"/>
<path d="M1407.78 77.1362L1397.72 67.0749L1400.76 64.03L1403.59 61.2058L1400.98 58.6022L1403.54 56.0427L1400.72 53.2185L1395.42 58.6463L1398.03 61.2058L1394.67 64.5595C1393.97 65.2656 1393.61 66.1482 1393.66 67.1631C1393.7 68.0898 1394.06 69.0165 1394.76 69.6785L1405.26 80.1811C1405.93 80.843 1406.81 81.2401 1407.78 81.2843C1407.82 81.2843 1407.82 81.2843 1407.87 81.2843C1408.79 81.2843 1409.68 80.9312 1410.34 80.2693L1413.56 77.0479L1410.74 74.2237L1407.78 77.1362Z" fill="black"/>
<path d="M1439.73 36.0968L1439.42 35.2584L1438.58 34.9495C1424.72 29.6099 1418.63 35.2584 1417.84 36.0968L1413.3 40.4656L1408.04 40.4214L1397.98 50.4828L1400.81 53.307L1409.68 44.4371L1414.84 44.4813L1420.58 38.9652L1420.66 38.8769C1420.84 38.7004 1425.08 34.3758 1436.29 38.3915C1440.3 49.6002 1436.02 53.8365 1435.84 54.013L1430.2 59.9263L1430.24 65.1334L1423.31 72.0616L1420.89 69.6345L1413.52 77.004L1416.34 79.8282L1420.89 75.283L1423.31 77.7101L1434.26 66.7221V61.4708L1438.62 56.8814C1439.46 56.0871 1445.07 49.9532 1439.73 36.0968Z" fill="black"/>
<path d="M1392.78 72.7234L1389.95 69.8992L1388.54 71.3113L1382.76 77.0921C1381.96 77.8864 1381.96 79.122 1382.76 79.9164C1383.16 80.3135 1383.64 80.49 1384.17 80.49C1384.7 80.49 1385.18 80.3135 1385.58 79.9164L1387.3 78.1953L1392.78 72.7234Z" fill="black"/>
<path d="M1402.17 82.1228L1396.7 87.5947L1394.98 89.3158C1394.19 90.1101 1394.19 91.3457 1394.98 92.14C1395.38 92.5371 1395.86 92.7137 1396.39 92.7137C1396.92 92.7137 1397.41 92.5371 1397.8 92.14L1403.59 86.3591L1405 84.947L1402.17 82.1228Z" fill="black"/>
<path d="M1394.81 82.9173L1396.22 81.5051L1393.39 78.6809L1387.92 84.1529L1386.2 85.8739C1385.41 86.6682 1385.41 87.9038 1386.2 88.6981C1386.6 89.0953 1387.08 89.2718 1387.61 89.2718C1388.14 89.2718 1388.63 89.0953 1389.03 88.6981L1394.81 82.9173Z" fill="black"/>
<path d="M949.724 203.453C951.016 202.161 951.016 200.065 949.724 198.773C948.431 197.48 946.336 197.48 945.043 198.773C943.751 200.065 943.751 202.161 945.043 203.453C946.336 204.746 948.431 204.746 949.724 203.453Z" fill="black"/>
<path d="M954.467 235.593L940.238 235.593L940.238 231.287L940.238 227.293L936.556 227.293L936.556 223.673L932.562 223.673L932.655 231.256L936.306 231.224L936.306 235.967C936.306 236.966 936.68 237.839 937.429 238.526C938.116 239.15 939.021 239.556 939.988 239.524L954.841 239.524C955.777 239.524 956.682 239.181 957.4 238.526C957.431 238.495 957.431 238.495 957.462 238.464C958.117 237.808 958.492 236.935 958.492 235.998L958.492 231.443L954.498 231.443L954.467 235.593Z" fill="black"/>
<path d="M948.04 183.982L947.228 183.608L946.417 183.982C932.844 190.004 932.531 198.305 932.563 199.459L932.438 205.762L928.693 209.444L928.693 223.673L932.688 223.673L932.688 211.129L936.37 207.51L936.526 199.553L936.526 199.428C936.526 199.178 936.463 193.125 947.228 188.039C957.994 193.125 957.962 199.147 957.962 199.397L958.15 207.572L961.863 211.223L961.863 221.021L958.43 221.021L958.43 231.443L962.425 231.443L962.425 225.015L965.857 225.015L965.826 209.507L962.113 205.794L961.956 199.459C961.988 198.305 961.613 190.004 948.04 183.982Z" fill="black"/>
<line x1="935.426" y1="231.725" x2="921.448" y2="245.703" stroke="black" stroke-width="4" stroke-linecap="round"/>
<line x1="2" y1="-2" x2="21.7679" y2="-2" transform="matrix(0.707107 0.707107 0.707107 -0.707107 960.408 228.897)" stroke="black" stroke-width="4" stroke-linecap="round"/>
<path d="M946.02 185.971C946.02 185.971 946.02 183.223 946.02 172.231C946.02 158.491 961.33 84.7136 1043.54 84.7136C1125.75 84.7136 1118.92 163.271 1201.46 163.271C1284 163.271 1325.04 147.588 1370.03 102.593" stroke="black" stroke-width="2" stroke-dasharray="2 5"/>
<path d="M1165.2 228.855C1164.27 223.581 1164.98 218.146 1167.26 213.294C1169.53 208.442 1173.24 204.411 1177.89 201.751C1182.54 199.092 1187.9 197.935 1193.23 198.438C1198.57 198.941 1203.62 201.08 1207.69 204.563C1211.76 208.045 1214.65 212.7 1215.98 217.891C1217.3 223.082 1216.99 228.555 1215.08 233.561C1213.17 238.567 1209.77 242.862 1205.32 245.857C1200.88 248.853 1195.62 250.402 1190.27 250.294" stroke="black" stroke-width="4" stroke-linecap="round"/>
<line x1="1190.48" y1="250.299" x2="1118.3" y2="250.299" stroke="black" stroke-width="4" stroke-linecap="round" stroke-linejoin="round"/>
<path d="M1097.38 228.727C1096.44 223.452 1097.16 218.017 1099.43 213.165C1101.7 208.314 1105.42 204.282 1110.07 201.623C1114.72 198.964 1120.07 197.807 1125.41 198.31C1130.74 198.813 1135.79 200.952 1139.86 204.434C1143.93 207.916 1146.83 212.572 1148.15 217.762C1149.47 222.953 1149.16 228.426 1147.25 233.433C1145.35 238.439 1141.94 242.734 1137.5 245.729C1133.06 248.724 1127.8 250.274 1122.44 250.166" stroke="black" stroke-width="4" stroke-linecap="round"/>
<line x1="1122.66" y1="250.17" x2="1050.47" y2="250.17" stroke="black" stroke-width="4" stroke-linecap="round" stroke-linejoin="round"/>
<path d="M1233.03 228.727C1232.09 223.452 1232.81 218.017 1235.08 213.165C1237.35 208.314 1241.07 204.282 1245.72 201.623C1250.37 198.964 1255.73 197.807 1261.06 198.31C1266.39 198.813 1271.44 200.952 1275.51 204.434C1279.58 207.916 1282.48 212.572 1283.8 217.762C1285.13 222.953 1284.81 228.426 1282.91 233.433C1281 238.439 1277.59 242.734 1273.15 245.729C1268.71 248.724 1263.45 250.274 1258.1 250.166" stroke="black" stroke-width="4" stroke-linecap="round"/>
<line x1="1258.31" y1="250.17" x2="1186.12" y2="250.17" stroke="black" stroke-width="4" stroke-linecap="round" stroke-linejoin="round"/>
<path d="M1300.86 228.727C1299.92 223.452 1300.64 218.017 1302.91 213.165C1305.18 208.314 1308.89 204.282 1313.54 201.623C1318.19 198.964 1323.55 197.807 1328.89 198.31C1334.22 198.813 1339.27 200.952 1343.34 204.434C1347.41 207.916 1350.3 212.572 1351.63 217.762C1352.95 222.953 1352.64 228.426 1350.73 233.433C1348.83 238.439 1345.42 242.734 1340.98 245.729C1336.54 248.724 1331.28 250.274 1325.92 250.166" stroke="black" stroke-width="4" stroke-linecap="round"/>
<line x1="1326.14" y1="250.17" x2="1253.95" y2="250.17" stroke="black" stroke-width="4" stroke-linecap="round" stroke-linejoin="round"/>
<path d="M1363.8 193.172C1359.41 190.105 1356.08 185.755 1354.25 180.718C1352.43 175.682 1352.2 170.204 1353.61 165.036C1355.02 159.867 1357.99 155.26 1362.12 151.844C1366.24 148.429 1371.32 146.372 1376.67 145.956C1382.01 145.54 1387.34 146.784 1391.95 149.519C1396.56 152.254 1400.21 156.345 1402.4 161.233C1404.59 166.121 1405.22 171.567 1404.2 176.826C1403.17 182.084 1400.55 186.898 1396.69 190.609" stroke="black" stroke-width="4" stroke-linecap="round"/>
<line x1="1396.84" y1="190.46" x2="1345.8" y2="241.503" stroke="black" stroke-width="4" stroke-linecap="round" stroke-linejoin="round"/>
<path d="M1411.76 145.211C1407.37 142.144 1404.04 137.794 1402.21 132.758C1400.39 127.721 1400.16 122.244 1401.57 117.075C1402.98 111.906 1405.95 107.299 1410.08 103.884C1414.2 100.468 1419.29 98.4119 1424.63 97.9956C1429.97 97.5793 1435.31 98.8237 1439.91 101.558C1444.52 104.293 1448.17 108.384 1450.36 113.273C1452.55 118.161 1453.18 123.607 1452.16 128.865C1451.13 134.124 1448.51 138.938 1444.65 142.649" stroke="black" stroke-width="4" stroke-linecap="round"/>
<line x1="1444.8" y1="142.499" x2="1393.76" y2="193.543" stroke="black" stroke-width="4" stroke-linecap="round" stroke-linejoin="round"/>
<path d="M918.069 428.044C920.123 428.156 921.681 428.716 922.745 429.724C923.828 430.714 924.369 432.011 924.369 433.616C924.369 434.736 924.099 435.735 923.557 436.612C923.016 437.471 922.213 438.152 921.149 438.656C920.085 439.16 918.788 439.412 917.257 439.412C915.839 439.412 914.495 439.188 913.225 438.74C911.975 438.274 910.967 437.658 910.201 436.892L911.181 435.296C911.835 435.968 912.703 436.519 913.785 436.948C914.868 437.359 916.025 437.564 917.257 437.564C918.863 437.564 920.104 437.219 920.981 436.528C921.859 435.819 922.297 434.848 922.297 433.616C922.297 432.403 921.859 431.451 920.981 430.76C920.104 430.07 918.779 429.724 917.005 429.724H915.605V428.24L921.037 421.436H911.013V419.644H923.613V421.072L918.069 428.044ZM954.222 424.404C956.07 424.404 957.517 424.936 958.562 426C959.626 427.064 960.158 428.632 960.158 430.704V439.244H958.17V430.9C958.17 429.37 957.797 428.203 957.05 427.4C956.322 426.598 955.286 426.196 953.942 426.196C952.411 426.196 951.207 426.672 950.33 427.624C949.453 428.558 949.014 429.855 949.014 431.516V439.244H947.026V430.9C947.026 429.37 946.653 428.203 945.906 427.4C945.178 426.598 944.133 426.196 942.77 426.196C941.258 426.196 940.054 426.672 939.158 427.624C938.281 428.558 937.842 429.855 937.842 431.516V439.244H935.854V424.516H937.758V427.204C938.281 426.308 939.009 425.618 939.942 425.132C940.875 424.647 941.949 424.404 943.162 424.404C944.394 424.404 945.458 424.666 946.354 425.188C947.269 425.711 947.95 426.486 948.398 427.512C948.939 426.542 949.714 425.786 950.722 425.244C951.749 424.684 952.915 424.404 954.222 424.404ZM971.624 439.384C970.205 439.384 968.927 439.067 967.788 438.432C966.649 437.779 965.753 436.883 965.1 435.744C964.447 434.606 964.12 433.318 964.12 431.88C964.12 430.443 964.447 429.155 965.1 428.016C965.753 426.878 966.649 425.991 967.788 425.356C968.927 424.722 970.205 424.404 971.624 424.404C973.043 424.404 974.321 424.722 975.46 425.356C976.599 425.991 977.485 426.878 978.12 428.016C978.773 429.155 979.1 430.443 979.1 431.88C979.1 433.318 978.773 434.606 978.12 435.744C977.485 436.883 976.599 437.779 975.46 438.432C974.321 439.067 973.043 439.384 971.624 439.384ZM971.624 437.62C972.669 437.62 973.603 437.387 974.424 436.92C975.264 436.435 975.917 435.754 976.384 434.876C976.851 433.999 977.084 433 977.084 431.88C977.084 430.76 976.851 429.762 976.384 428.884C975.917 428.007 975.264 427.335 974.424 426.868C973.603 426.383 972.669 426.14 971.624 426.14C970.579 426.14 969.636 426.383 968.796 426.868C967.975 427.335 967.321 428.007 966.836 428.884C966.369 429.762 966.136 430.76 966.136 431.88C966.136 433 966.369 433.999 966.836 434.876C967.321 435.754 967.975 436.435 968.796 436.92C969.636 437.387 970.579 437.62 971.624 437.62ZM990.663 424.404C992.511 424.404 993.976 424.946 995.059 426.028C996.16 427.092 996.711 428.651 996.711 430.704V439.244H994.723V430.9C994.723 429.37 994.34 428.203 993.575 427.4C992.809 426.598 991.717 426.196 990.299 426.196C988.712 426.196 987.452 426.672 986.519 427.624C985.604 428.558 985.147 429.855 985.147 431.516V439.244H983.159V424.516H985.063V427.232C985.604 426.336 986.351 425.646 987.303 425.16C988.273 424.656 989.393 424.404 990.663 424.404ZM1009.86 438.348C1009.49 438.684 1009.02 438.946 1008.46 439.132C1007.92 439.3 1007.35 439.384 1006.76 439.384C1005.37 439.384 1004.31 439.011 1003.56 438.264C1002.82 437.518 1002.44 436.463 1002.44 435.1V426.196H999.812V424.516H1002.44V421.296H1004.43V424.516H1008.91V426.196H1004.43V434.988C1004.43 435.866 1004.65 436.538 1005.08 437.004C1005.52 437.452 1006.16 437.676 1006.98 437.676C1007.39 437.676 1007.78 437.611 1008.16 437.48C1008.55 437.35 1008.88 437.163 1009.16 436.92L1009.86 438.348ZM1020.99 424.404C1022.83 424.404 1024.3 424.946 1025.38 426.028C1026.48 427.092 1027.03 428.651 1027.03 430.704V439.244H1025.05V430.9C1025.05 429.37 1024.66 428.203 1023.9 427.4C1023.13 426.598 1022.04 426.196 1020.62 426.196C1019.04 426.196 1017.78 426.672 1016.84 427.624C1015.93 428.558 1015.47 429.855 1015.47 431.516V439.244H1013.48V418.468H1015.47V427.092C1016.01 426.234 1016.76 425.571 1017.71 425.104C1018.66 424.638 1019.75 424.404 1020.99 424.404ZM1047.35 424.404C1048.73 424.404 1049.98 424.722 1051.1 425.356C1052.22 425.972 1053.1 426.85 1053.73 427.988C1054.37 429.127 1054.68 430.424 1054.68 431.88C1054.68 433.355 1054.37 434.662 1053.73 435.8C1053.1 436.939 1052.22 437.826 1051.1 438.46C1050 439.076 1048.75 439.384 1047.35 439.384C1046.15 439.384 1045.07 439.142 1044.1 438.656C1043.15 438.152 1042.36 437.424 1041.75 436.472V444.676H1039.76V424.516H1041.66V427.428C1042.26 426.458 1043.05 425.711 1044.02 425.188C1045.01 424.666 1046.12 424.404 1047.35 424.404ZM1047.21 437.62C1048.23 437.62 1049.17 437.387 1050.01 436.92C1050.85 436.435 1051.5 435.754 1051.97 434.876C1052.45 433.999 1052.7 433 1052.7 431.88C1052.7 430.76 1052.45 429.771 1051.97 428.912C1051.5 428.035 1050.85 427.354 1050.01 426.868C1049.17 426.383 1048.23 426.14 1047.21 426.14C1046.16 426.14 1045.22 426.383 1044.38 426.868C1043.56 427.354 1042.91 428.035 1042.42 428.912C1041.95 429.771 1041.72 430.76 1041.72 431.88C1041.72 433 1041.95 433.999 1042.42 434.876C1042.91 435.754 1043.56 436.435 1044.38 436.92C1045.22 437.387 1046.16 437.62 1047.21 437.62ZM1060.64 427.4C1061.11 426.411 1061.8 425.664 1062.71 425.16C1063.65 424.656 1064.79 424.404 1066.16 424.404V426.336L1065.68 426.308C1064.13 426.308 1062.92 426.784 1062.04 427.736C1061.16 428.688 1060.72 430.023 1060.72 431.74V439.244H1058.74V424.516H1060.64V427.4ZM1075.64 439.384C1074.22 439.384 1072.94 439.067 1071.8 438.432C1070.66 437.779 1069.77 436.883 1069.12 435.744C1068.46 434.606 1068.14 433.318 1068.14 431.88C1068.14 430.443 1068.46 429.155 1069.12 428.016C1069.77 426.878 1070.66 425.991 1071.8 425.356C1072.94 424.722 1074.22 424.404 1075.64 424.404C1077.06 424.404 1078.34 424.722 1079.48 425.356C1080.61 425.991 1081.5 426.878 1082.14 428.016C1082.79 429.155 1083.12 430.443 1083.12 431.88C1083.12 433.318 1082.79 434.606 1082.14 435.744C1081.5 436.883 1080.61 437.779 1079.48 438.432C1078.34 439.067 1077.06 439.384 1075.64 439.384ZM1075.64 437.62C1076.68 437.62 1077.62 437.387 1078.44 436.92C1079.28 436.435 1079.93 435.754 1080.4 434.876C1080.87 433.999 1081.1 433 1081.1 431.88C1081.1 430.76 1080.87 429.762 1080.4 428.884C1079.93 428.007 1079.28 427.335 1078.44 426.868C1077.62 426.383 1076.68 426.14 1075.64 426.14C1074.59 426.14 1073.65 426.383 1072.81 426.868C1071.99 427.335 1071.34 428.007 1070.85 428.884C1070.38 429.762 1070.15 430.76 1070.15 431.88C1070.15 433 1070.38 433.999 1070.85 434.876C1071.34 435.754 1071.99 436.435 1072.81 436.92C1073.65 437.387 1074.59 437.62 1075.64 437.62ZM1100.81 424.516V437.452C1100.81 439.954 1100.19 441.802 1098.96 442.996C1097.75 444.21 1095.91 444.816 1093.45 444.816C1092.08 444.816 1090.79 444.611 1089.55 444.2C1088.34 443.808 1087.35 443.258 1086.59 442.548L1087.59 441.036C1088.3 441.671 1089.16 442.166 1090.17 442.52C1091.2 442.875 1092.27 443.052 1093.39 443.052C1095.26 443.052 1096.63 442.614 1097.51 441.736C1098.38 440.878 1098.82 439.534 1098.82 437.704V435.828C1098.21 436.762 1097.39 437.471 1096.39 437.956C1095.4 438.442 1094.3 438.684 1093.08 438.684C1091.7 438.684 1090.44 438.386 1089.3 437.788C1088.18 437.172 1087.3 436.323 1086.64 435.24C1086.01 434.139 1085.69 432.898 1085.69 431.516C1085.69 430.135 1086.01 428.903 1086.64 427.82C1087.3 426.738 1088.18 425.898 1089.3 425.3C1090.42 424.703 1091.68 424.404 1093.08 424.404C1094.33 424.404 1095.46 424.656 1096.47 425.16C1097.48 425.664 1098.29 426.392 1098.91 427.344V424.516H1100.81ZM1093.28 436.92C1094.34 436.92 1095.3 436.696 1096.16 436.248C1097.02 435.782 1097.68 435.138 1098.15 434.316C1098.64 433.495 1098.88 432.562 1098.88 431.516C1098.88 430.471 1098.64 429.547 1098.15 428.744C1097.68 427.923 1097.02 427.288 1096.16 426.84C1095.32 426.374 1094.36 426.14 1093.28 426.14C1092.21 426.14 1091.25 426.364 1090.39 426.812C1089.55 427.26 1088.89 427.895 1088.41 428.716C1087.94 429.538 1087.71 430.471 1087.71 431.516C1087.71 432.562 1087.94 433.495 1088.41 434.316C1088.89 435.138 1089.55 435.782 1090.39 436.248C1091.25 436.696 1092.21 436.92 1093.28 436.92ZM1108.27 427.4C1108.74 426.411 1109.43 425.664 1110.35 425.16C1111.28 424.656 1112.43 424.404 1113.79 424.404V426.336L1113.31 426.308C1111.76 426.308 1110.55 426.784 1109.67 427.736C1108.8 428.688 1108.36 430.023 1108.36 431.74V439.244H1106.37V424.516H1108.27V427.4ZM1122.51 424.404C1124.44 424.404 1125.91 424.89 1126.94 425.86C1127.96 426.812 1128.48 428.231 1128.48 430.116V439.244H1126.57V436.948C1126.13 437.714 1125.46 438.311 1124.59 438.74C1123.73 439.17 1122.7 439.384 1121.51 439.384C1119.86 439.384 1118.56 438.992 1117.59 438.208C1116.62 437.424 1116.13 436.388 1116.13 435.1C1116.13 433.85 1116.58 432.842 1117.47 432.076C1118.39 431.311 1119.84 430.928 1121.81 430.928H1126.49V430.032C1126.49 428.763 1126.14 427.802 1125.43 427.148C1124.72 426.476 1123.68 426.14 1122.32 426.14C1121.38 426.14 1120.49 426.299 1119.63 426.616C1118.77 426.915 1118.03 427.335 1117.42 427.876L1116.52 426.392C1117.27 425.758 1118.16 425.272 1119.21 424.936C1120.26 424.582 1121.36 424.404 1122.51 424.404ZM1121.81 437.816C1122.93 437.816 1123.9 437.564 1124.7 437.06C1125.5 436.538 1126.1 435.791 1126.49 434.82V432.412H1121.87C1119.35 432.412 1118.09 433.29 1118.09 435.044C1118.09 435.903 1118.42 436.584 1119.07 437.088C1119.72 437.574 1120.64 437.816 1121.81 437.816ZM1152.25 424.404C1154.09 424.404 1155.54 424.936 1156.59 426C1157.65 427.064 1158.18 428.632 1158.18 430.704V439.244H1156.19V430.9C1156.19 429.37 1155.82 428.203 1155.07 427.4C1154.35 426.598 1153.31 426.196 1151.97 426.196C1150.43 426.196 1149.23 426.672 1148.35 427.624C1147.48 428.558 1147.04 429.855 1147.04 431.516V439.244H1145.05V430.9C1145.05 429.37 1144.68 428.203 1143.93 427.4C1143.2 426.598 1142.16 426.196 1140.79 426.196C1139.28 426.196 1138.08 426.672 1137.18 427.624C1136.3 428.558 1135.87 429.855 1135.87 431.516V439.244H1133.88V424.516H1135.78V427.204C1136.3 426.308 1137.03 425.618 1137.97 425.132C1138.9 424.647 1139.97 424.404 1141.19 424.404C1142.42 424.404 1143.48 424.666 1144.38 425.188C1145.29 425.711 1145.97 426.486 1146.42 427.512C1146.96 426.542 1147.74 425.786 1148.75 425.244C1149.77 424.684 1150.94 424.404 1152.25 424.404Z" fill="#455CD0"/>
<path d="M1220.51 311.796L1220.51 475.145M223.609 475.145L223.609 311.796" stroke="#455CD0" stroke-width="3" stroke-dasharray="3 6"/>
<line x1="222.098" y1="475.807" x2="1222.02" y2="475.807" stroke="#455CD0" stroke-width="3"/>
</svg>
