<svg width="60" height="59" viewBox="0 0 60 59" fill="none" xmlns="http://www.w3.org/2000/svg">
<g clip-path="url(#clip0)">
<path d="M49.7403 29.5672L30 40.866L21.0823 35.7577V28.5283L30 33.0305L60 17.7924L30 0.736084L0 17.8356L6.36364 21.0391V31.775L17.1861 37.9655V45.9742C14.5022 46.7967 12.5541 49.3075 12.5541 52.2512C12.5541 55.8876 15.4978 58.8313 19.1342 58.8313C22.7706 58.8313 25.7143 55.8876 25.7143 52.2512C25.7143 49.3075 23.7662 46.7967 21.0823 45.9742V40.2599L30 45.3248L53.6364 31.775V26.4071H49.7403V29.5672ZM19.1342 55.0218C17.6623 55.0218 16.4502 53.8097 16.4502 52.3378C16.4502 50.8659 17.6623 49.6538 19.1342 49.6538C20.6061 49.6538 21.8182 50.8659 21.8182 52.3378C21.8182 53.8097 20.6493 55.0218 19.1342 55.0218ZM30 5.23825L51.7749 17.6192L30 28.6582L8.22511 17.6192L30 5.23825ZM10.2597 29.5672V23.0305L17.1861 26.5369V33.5066L10.2597 29.5672Z" fill="#051048"/>
</g>
<defs>
<clipPath id="clip0">
<rect width="60" height="58.1818" fill="white" transform="translate(0 0.736084)"/>
</clipPath>
</defs>
</svg>
