<svg width="60" height="62" viewBox="0 0 60 62" fill="none" xmlns="http://www.w3.org/2000/svg">
<g clip-path="url(#clip0)">
<path d="M57.4386 46.5365C54.5347 43.6011 50.0507 43.1695 46.7198 45.2847L37.7945 36.2627C38.3924 35.3562 38.8194 34.3202 39.0329 33.2411H45.6522C46.4636 35.7879 48.8123 37.6009 51.5881 37.6009C55.0472 37.6009 57.823 34.7519 57.823 31.2985C57.823 27.8452 55.0045 24.9961 51.5881 24.9961C48.8123 24.9961 46.4636 26.8523 45.6522 29.356H38.9902C38.7767 28.32 38.3497 27.284 37.7518 26.4207L43.0899 21.0248C43.7732 21.3269 44.4991 21.4996 45.3105 21.4996C48.2998 21.4996 50.6913 19.0391 50.6913 16.0606C50.6913 13.0389 48.2571 10.6215 45.3105 10.6215C42.3639 10.6215 39.9297 13.082 39.9297 16.0606C39.9297 16.8376 40.1006 17.6146 40.3995 18.3053L35.0187 23.658C33.6095 22.7515 31.944 22.2335 30.1931 22.2335C28.4422 22.2335 26.7767 22.7515 25.3248 23.658L17.3817 15.6289C19.8159 11.9165 19.4315 6.82281 16.186 3.54211C12.4707 -0.21342 6.44931 -0.21342 2.77671 3.54211C-0.938591 7.29765 -0.938591 13.3842 2.77671 17.0966C4.61301 18.9528 7.04717 19.9024 9.48134 19.9024C11.2749 19.9024 13.0685 19.3844 14.6486 18.3484L22.6344 26.4207C21.6949 27.8883 21.2251 29.5719 21.2251 31.3417C21.2251 33.1116 21.7376 34.7519 22.6344 36.2196L17.8514 41.0111C16.9974 40.5795 16.0579 40.3204 15.0756 40.3204C11.6166 40.3204 8.84077 43.1695 8.84077 46.6228C8.84077 50.0762 11.6593 52.9252 15.0756 52.9252C18.492 52.9252 21.3105 50.0762 21.3105 46.6228C21.3105 45.5868 21.0543 44.594 20.5845 43.7306L25.2821 38.9823C26.734 39.9319 28.3995 40.45 30.1931 40.45C31.944 40.45 33.6095 39.9319 35.0614 39.0254L43.9867 48.0474C41.8514 51.4576 42.2358 55.9901 45.1824 58.9686C46.8906 60.6953 49.1112 61.5155 51.3319 61.5155C53.5525 61.5155 55.7732 60.6521 57.4813 58.9686C60.855 55.5153 60.855 49.9467 57.4386 46.5365ZM51.5454 28.8812C52.8692 28.8812 53.9369 29.9604 53.9369 31.2985C53.9369 32.6367 52.8692 33.7159 51.5454 33.7159C50.2216 33.7159 49.1539 32.6367 49.1539 31.2985C49.1539 29.9604 50.2216 28.8812 51.5454 28.8812ZM45.2678 14.4634C46.1219 14.4634 46.8052 15.1541 46.8052 16.0174C46.8052 16.8807 46.1219 17.5714 45.2678 17.5714C44.4137 17.5714 43.7305 16.8807 43.7305 16.0174C43.7305 15.1541 44.4137 14.4634 45.2678 14.4634ZM5.50981 14.377C3.28917 12.1324 3.28917 8.54949 5.50981 6.30481C7.73045 4.06012 11.2749 4.06012 13.4956 6.30481C15.7162 8.54949 15.7162 12.1324 13.4956 14.377C11.2749 16.5786 7.68774 16.5786 5.50981 14.377ZM15.0756 49.0402C13.7518 49.0402 12.6842 47.961 12.6842 46.6228C12.6842 45.2847 13.7518 44.2055 15.0756 44.2055C16.3995 44.2055 17.4671 45.2847 17.4671 46.6228C17.4671 47.961 16.3995 49.0402 15.0756 49.0402ZM26.5632 35.0109C25.581 34.0181 25.0685 32.723 25.0685 31.3417C25.0685 29.9604 25.6237 28.6222 26.5632 27.6725C27.5454 26.6797 28.8265 26.1617 30.1931 26.1617C31.5596 26.1617 32.8835 26.7228 33.823 27.6725C34.8052 28.6653 35.3176 29.9604 35.3176 31.3417C35.3176 32.723 34.7625 34.0612 33.823 35.0109C32.8835 36.0037 31.6023 36.5649 30.1931 36.5649C28.7838 36.5649 27.5454 36.0037 26.5632 35.0109ZM54.7482 56.2059C52.8692 58.1053 49.7945 58.1053 47.9155 56.2059C46.0365 54.3066 46.0365 51.1986 47.9155 49.2992C48.855 48.3495 50.0934 47.8747 51.3319 47.8747C52.5703 47.8747 53.8087 48.3495 54.7482 49.2992C56.6272 51.1554 56.6272 54.2634 54.7482 56.2059Z" fill="#051048"/>
</g>
<defs>
<clipPath id="clip0">
<rect width="60" height="60.7792" fill="white" transform="translate(0 0.736084)"/>
</clipPath>
</defs>
</svg>
