<svg width="60" height="53" viewBox="0 0 60 53" fill="none" xmlns="http://www.w3.org/2000/svg">
<g clip-path="url(#clip0)">
<path d="M11.5936 23.0351C15.7826 23.0351 19.1676 19.65 19.1676 15.461C19.1676 11.272 15.7826 7.88696 11.5936 7.88696C7.40458 7.88696 4.01953 11.272 4.01953 15.461C4.01953 19.65 7.40458 23.0351 11.5936 23.0351ZM11.5936 11.6951C13.6669 11.6951 15.3594 13.3877 15.3594 15.461C15.3594 17.5344 13.6669 19.2269 11.5936 19.2269C9.52024 19.2269 7.82771 17.5344 7.82771 15.461C7.82771 13.3877 9.52024 11.6951 11.5936 11.6951Z" fill="#051048"/>
<path d="M6.38928 26.8433C2.87729 26.8433 0 29.8476 0 33.5711V52.4428H3.80818V33.5711C3.80818 31.9632 4.95063 30.6515 6.38928 30.6515H17.3907V26.8433H6.38928Z" fill="#051048"/>
<path d="M48.4061 23.0351C52.5951 23.0351 55.9801 19.65 55.9801 15.461C55.9801 11.272 52.5951 7.88696 48.4061 7.88696C44.2171 7.88696 40.832 11.272 40.832 15.461C40.832 19.65 44.2171 23.0351 48.4061 23.0351ZM48.4061 11.6951C50.4794 11.6951 52.1719 13.3877 52.1719 15.461C52.1719 17.5344 50.4794 19.2269 48.4061 19.2269C46.3327 19.2269 44.6402 17.5344 44.6402 15.461C44.6402 13.3877 46.2904 11.6951 48.4061 11.6951Z" fill="#051048"/>
<path d="M53.6106 26.8433H42.6092V26.7586C42.6092 23.2043 39.9858 20.2847 36.6431 20.1155H23.7799C20.2679 20.1155 17.3906 23.162 17.3906 26.8856H21.1988C21.1988 25.2777 22.3836 23.9237 23.7799 23.9237H36.2623C37.6163 23.9237 38.8011 25.2354 38.8011 26.801V52.485H42.6092V30.6514H53.6106C55.0493 30.6514 56.1917 31.9632 56.1917 33.5711V52.4427H59.9999V33.5711C59.9999 29.8475 57.1226 26.8433 53.6106 26.8433Z" fill="#051048"/>
<path d="M29.9998 15.8842C34.1888 15.8842 37.5739 12.4991 37.5739 8.31013C37.5739 4.12113 34.1465 0.736084 29.9998 0.736084C25.8531 0.736084 22.4258 4.12113 22.4258 8.31013C22.4258 12.4991 25.8108 15.8842 29.9998 15.8842ZM29.9998 4.54426C32.0732 4.54426 33.7657 6.23679 33.7657 8.31013C33.7657 10.3835 32.0732 12.076 29.9998 12.076C27.9265 12.076 26.234 10.3835 26.234 8.31013C26.234 6.23679 27.9265 4.54426 29.9998 4.54426Z" fill="#051048"/>
<path d="M21.1988 30.6515H17.3906V52.4427H21.1988V30.6515Z" fill="#051048"/>
</g>
<defs>
<clipPath id="clip0">
<rect width="60" height="51.7066" fill="white" transform="translate(0 0.736084)"/>
</clipPath>
</defs>
</svg>
