<?xml version="1.0" standalone="no"?>
<svg version="1.1" preserveAspectRatio="xMidYMid meet" viewBox="0 0 194 39" class="ng-element" data-id="91a06288d7694419ad632b63117245df" style="mix-blend-mode: normal; overflow: visible; width: 194px; height: 39px; filter: none;" xmlns="http://www.w3.org/2000/svg"><title>DieProduktMacher_Logo Copy</title><desc>Created with Sketch.</desc><defs/><g id="Page-1_1531084847509" stroke="none" stroke-width="1" fill="none" fill-rule="evenodd">
        <g id="Front_1531084847509" transform="translate(-1045.000000, -2151.000000)" fill="#000000" fill-rule="nonzero">
            <g id="DieProduktMacher_Logo-Copy_1531084847509" transform="translate(1045.000000, 2151.000000)">
                <path d="M19,0 C8.50169492,0 0,8.72542373 0,19.5 C0,30.2745763 8.50169492,39 19,39 C29.4983051,39 38,30.2745763 38,19.5 C38,8.72542373 29.4983051,0 19,0 Z M31.9135593,22.1440678 L20.3525424,22.1440678 L22.6711864,19.1694915 L29.7881356,19.1694915 L26.3745763,11.0720339 L10.3050847,31.1008475 C10.0474576,31.4313559 9.62881356,31.629661 9.21016949,31.629661 C9.01694915,31.629661 8.8559322,31.5966102 8.66271186,31.5305085 C8.08305085,31.2991525 7.76101695,30.6711864 7.82542373,30.0432203 L10.1440678,8.22966102 C10.2084746,7.66779661 10.5627119,7.20508475 11.0779661,7.03983051 C11.5932203,6.84152542 12.140678,6.97372881 12.5271186,7.37033898 L18.1627119,13.1542373 L16.359322,15.3686441 L12.6237288,11.5016949 L11.1101695,25.5483051 L25.6661017,7.40338983 C25.9881356,7.00677966 26.4711864,6.80847458 26.9542373,6.90762712 C27.4372881,6.97372881 27.8559322,7.30423729 28.0491525,7.76694915 L33.2016949,20.0288136 C33.3949153,20.4584746 33.3305085,21.020339 33.0728814,21.4169492 C32.8152542,21.8466102 32.3644068,22.1440678 31.9135593,22.1440678 Z" id="Shape_1531084847509" vector-effect="non-scaling-stroke"/>
                <g id="Group_1531084847509" transform="translate(47.000000, 10.000000)">
                    <path d="M8.28898678,13.044898 C8.28898678,14.4326531 7.99757709,15.4040816 7.41475771,15.9591837 C6.83193833,16.5489796 5.86057269,16.8265306 4.50066079,16.8265306 L0.129515419,16.8265306 L0.129515419,0.0346938776 L4.2092511,0.0346938776 C5.53678414,0.0346938776 6.57290749,0.312244898 7.25286344,0.902040816 C7.93281938,1.49183673 8.28898678,2.42857143 8.28898678,3.78163265 L8.28898678,13.044898 Z M6.34625551,13.2877551 L6.34625551,3.57346939 C6.34625551,3.05306122 6.18436123,2.63673469 5.89295154,2.3244898 C5.60154185,2.0122449 5.21299559,1.87346939 4.69493392,1.87346939 L2.03986784,1.87346939 L2.03986784,15.0571429 L4.69493392,15.0571429 C5.2777533,15.0571429 5.66629956,14.9183673 5.95770925,14.6408163 C6.18436123,14.3285714 6.34625551,13.877551 6.34625551,13.2877551 Z" id="Shape_1531084847509" vector-effect="non-scaling-stroke"/>
                    <path d="M13.1134361,2.18571429 L10.9764317,2.18571429 L10.9764317,0.0346938776 L13.1134361,0.0346938776 L13.1134361,2.18571429 Z M12.9839207,16.8265306 L11.0735683,16.8265306 L11.0735683,4.82244898 L12.9839207,4.82244898 L12.9839207,16.8265306 Z" id="Shape_1531084847509" vector-effect="non-scaling-stroke"/>
                    <path d="M22.3737885,16.8265306 L19.4920705,16.8265306 C18.1645374,16.8265306 17.2255507,16.5142857 16.6103524,15.9244898 C15.9951542,15.3346939 15.7037445,14.3632653 15.7037445,12.9755102 L15.7037445,8.67346939 C15.7037445,7.28571429 15.9951542,6.31428571 16.5455947,5.7244898 C17.0960352,5.13469388 18.0026432,4.82244898 19.2977974,4.82244898 L19.9129956,4.82244898 C22.05,4.82244898 23.1508811,6.07142857 23.1508811,8.53469388 L23.1508811,11.6571429 L17.6464758,11.6571429 L17.6464758,13.4612245 C17.6464758,14.5020408 18.1969163,15.022449 19.3301762,15.022449 L22.4385463,15.022449 L22.4385463,16.8265306 L22.3737885,16.8265306 Z M17.5817181,8.1877551 L17.5817181,9.85306122 L21.2405286,9.85306122 L21.2405286,8.04897959 C21.2405286,7.63265306 21.1110132,7.28571429 20.8519824,7.00816327 C20.5929515,6.73061224 20.269163,6.59183673 19.8806167,6.59183673 L19.0387665,6.59183673 C18.488326,6.59183673 18.1321586,6.73061224 17.9055066,6.97346939 C17.6788546,7.28571429 17.5817181,7.66734694 17.5817181,8.1877551 Z" id="Shape_1531084847509" vector-effect="non-scaling-stroke"/>
                    <path d="M33.64163,6.52244898 C33.64163,9.05510204 32.3788546,10.3040816 29.8209251,10.3040816 L27.7162996,10.3040816 L27.7162996,16.8265306 L25.7735683,16.8265306 L25.7735683,0.0346938776 L29.7885463,0.0346938776 C32.3464758,0.0346938776 33.64163,1.28367347 33.64163,3.78163265 L33.64163,6.52244898 Z M31.6988987,6.76530612 L31.6988987,3.57346939 C31.6988987,2.94897959 31.5693833,2.53265306 31.3103524,2.25510204 C31.0513216,1.97755102 30.6303965,1.83877551 30.0799559,1.83877551 L27.7486784,1.83877551 L27.7486784,8.5 L30.0799559,8.5 C30.6627753,8.5 31.0513216,8.36122449 31.3103524,8.08367347 C31.5693833,7.80612245 31.6988987,7.35510204 31.6988987,6.76530612 Z" id="Shape_1531084847509" vector-effect="non-scaling-stroke"/>
                    <path d="M37.6889868,16.8265306 L35.7786344,16.8265306 L35.7786344,4.82244898 L37.5594714,4.82244898 L37.5594714,5.48163265 C38.0451542,5.06530612 38.6603524,4.82244898 39.3403084,4.82244898 L40.9592511,4.82244898 L40.9592511,6.73061224 L39.1136564,6.73061224 C38.6279736,6.73061224 38.2394273,6.90408163 38.0127753,7.25102041 C37.7861233,7.59795918 37.6566079,7.94489796 37.6566079,8.29183673 L37.6566079,16.8265306 L37.6889868,16.8265306 Z" id="Shape_1531084847509" vector-effect="non-scaling-stroke"/>
                    <path d="M49.895815,12.9755102 C49.895815,14.3285714 49.5720264,15.3 48.9568282,15.8897959 C48.34163,16.5142857 47.3702643,16.7918367 46.0751101,16.7918367 L45.7837004,16.7918367 C44.4885463,16.7918367 43.5171806,16.4795918 42.9019824,15.8897959 C42.2867841,15.2653061 41.9629956,14.2938776 41.9629956,12.9755102 L41.9629956,8.67346939 C41.9629956,7.32040816 42.2867841,6.34897959 42.9019824,5.75918367 C43.5171806,5.13469388 44.4885463,4.85714286 45.7837004,4.85714286 L46.0751101,4.85714286 C47.3702643,4.85714286 48.34163,5.16938776 48.9568282,5.75918367 C49.5720264,6.38367347 49.895815,7.35510204 49.895815,8.67346939 L49.895815,12.9755102 Z M47.9854626,13.4612245 L47.9854626,8.1877551 C47.9854626,7.14693878 47.435022,6.62653061 46.3017621,6.62653061 L45.5570485,6.62653061 C44.4237885,6.62653061 43.873348,7.14693878 43.873348,8.1877551 L43.873348,13.4612245 C43.873348,14.5020408 44.4237885,15.022449 45.5570485,15.022449 L46.3017621,15.022449 C47.435022,15.022449 47.9854626,14.5020408 47.9854626,13.4612245 Z" id="Shape_1531084847509" vector-effect="non-scaling-stroke"/>
                    <path d="M60.2246696,16.8265306 L58.4438326,16.8265306 L58.4438326,16.2714286 C57.9581498,16.6530612 57.3429515,16.8265306 56.6629956,16.8265306 L56.1773128,16.8265306 C54.8497797,16.8265306 53.910793,16.5142857 53.2955947,15.9244898 C52.6803965,15.3346939 52.3889868,14.3632653 52.3889868,12.9755102 L52.3889868,8.67346939 C52.3889868,7.32040816 52.7127753,6.34897959 53.3279736,5.75918367 C53.9431718,5.13469388 54.9145374,4.85714286 56.2096916,4.85714286 L58.346696,4.85714286 L58.346696,0.0346938776 L60.2570485,0.0346938776 L60.2570485,16.8265306 L60.2246696,16.8265306 Z M56.8572687,15.022449 C57.3429515,15.022449 57.6991189,14.8836735 57.9581498,14.6061224 C58.1848018,14.3285714 58.3143172,14.0163265 58.3143172,13.7040816 L58.3143172,6.62653061 L55.9506608,6.62653061 C54.8174009,6.62653061 54.2669604,7.14693878 54.2669604,8.1877551 L54.2669604,13.4612245 C54.2669604,14.5020408 54.8174009,15.022449 55.9506608,15.022449 L56.8572687,15.022449 Z" id="Shape_1531084847509" vector-effect="non-scaling-stroke"/>
                    <path d="M70.3268722,16.8265306 L68.5460352,16.8265306 L68.5460352,16.2714286 C68.0603524,16.6530612 67.4451542,16.8265306 66.7651982,16.8265306 L66.4414097,16.8265306 C65.2433921,16.8265306 64.3367841,16.5142857 63.7539648,15.9244898 C63.1711454,15.3 62.8797357,14.3285714 62.8797357,13.0102041 L62.8797357,4.82244898 L64.7900881,4.82244898 L64.7900881,13.4612245 C64.7900881,13.9469388 64.9196035,14.3285714 65.1786344,14.6061224 C65.4376652,14.8836735 65.7938326,15.022449 66.2471366,15.022449 L66.9918502,15.022449 C67.477533,15.022449 67.8337004,14.8836735 68.0603524,14.6408163 C68.2870044,14.3979592 68.4165198,14.0857143 68.4488987,13.7734694 L68.4488987,4.82244898 L70.3592511,4.82244898 L70.3592511,16.8265306 L70.3268722,16.8265306 Z" id="Shape_1531084847509" vector-effect="non-scaling-stroke"/>
                    <polygon id="Shape_1531084847509" points="75.0218062 16.8265306 73.1114537 16.8265306 73.1114537 0.0346938776 75.0218062 0.0346938776 75.0218062 9.02040816 78.389207 4.85714286 80.7852423 4.85714286 76.9969163 9.47142857 80.9471366 16.8265306 78.7453744 16.8265306 75.6693833 10.8938776 75.054185 11.6918367 75.054185 16.8265306" vector-effect="non-scaling-stroke"/>
                    <path d="M87.8438326,16.8265306 L85.7068282,16.8265306 C84.9297357,16.8265306 84.3792952,16.5489796 83.95837,16.0285714 C83.5374449,15.5081633 83.3431718,14.8142857 83.3431718,13.9469388 L83.3431718,6.62653061 L81.9185022,6.62653061 L81.9185022,4.82244898 L83.3755507,4.82244898 L83.3755507,1.94285714 L85.2859031,1.94285714 L85.2859031,4.82244898 L87.8762115,4.82244898 L87.8762115,6.62653061 L85.2859031,6.62653061 L85.2859031,14.0510204 C85.2859031,14.6755102 85.6096916,15.022449 86.2896476,15.022449 L87.8762115,15.022449 L87.8762115,16.8265306 L87.8438326,16.8265306 Z" id="Shape_1531084847509" vector-effect="non-scaling-stroke"/>
                    <polygon id="Shape_1531084847509" points="100.309692 16.8265306 98.4317181 16.8265306 98.4317181 1.76938776 96.0356828 11.2061224 94.1900881 11.2061224 91.7940529 1.76938776 91.7940529 16.8265306 90.0132159 16.8265306 90.0132159 0.0346938776 93.1539648 0.0346938776 95.1938326 8.60408163 97.2013216 0.0346938776 100.277313 0.0346938776 100.277313 16.8265306" vector-effect="non-scaling-stroke"/>
                    <path d="M111.188987,16.8265306 L109.95859,16.8265306 C109.505286,16.8265306 109.11674,16.5836735 108.728194,16.0979592 C108.372026,16.5836735 107.918722,16.8265306 107.368282,16.8265306 L105.814097,16.8265306 C104.680837,16.8265306 103.871366,16.5836735 103.353304,16.0979592 C102.835242,15.6122449 102.576211,14.7795918 102.576211,13.6 L102.576211,13.1142857 C102.576211,10.6510204 103.677093,9.40204082 105.846476,9.40204082 L108.177753,9.40204082 L108.177753,8.1877551 C108.177753,7.14693878 107.627313,6.62653061 106.494053,6.62653061 L103.482819,6.62653061 L103.482819,4.82244898 L106.267401,4.82244898 C107.562555,4.82244898 108.533921,5.13469388 109.149119,5.7244898 C109.764317,6.34897959 110.088106,7.32040816 110.088106,8.63877551 L110.088106,14.3979592 C110.088106,14.8836735 110.476652,15.1265306 111.221366,15.1265306 L111.221366,16.8265306 L111.188987,16.8265306 Z M107.14163,15.022449 C107.627313,15.022449 107.951101,14.8836735 108.048238,14.6061224 C108.112996,14.3979592 108.145374,14.1204082 108.145374,13.8428571 L108.145374,11.2061224 L105.781718,11.2061224 C105.393172,11.2061224 105.069383,11.344898 104.810352,11.622449 C104.551322,11.9 104.421806,12.2469388 104.421806,12.6632653 L104.421806,13.877551 C104.421806,14.2938776 104.518943,14.6061224 104.680837,14.7795918 C104.87511,14.9877551 105.134141,15.0571429 105.522687,15.0571429 L107.14163,15.0571429 L107.14163,15.022449 Z" id="Shape_1531084847509" vector-effect="non-scaling-stroke"/>
                    <path d="M119.218943,16.8265306 L116.790529,16.8265306 C115.462996,16.8265306 114.524009,16.5142857 113.908811,15.9244898 C113.293612,15.3346939 113.002203,14.3632653 113.002203,12.9755102 L113.002203,8.67346939 C113.002203,7.32040816 113.325991,6.34897959 113.941189,5.75918367 C114.556388,5.13469388 115.527753,4.85714286 116.822907,4.85714286 L119.251322,4.85714286 L119.251322,6.66122449 L116.563877,6.66122449 C115.430617,6.66122449 114.880176,7.18163265 114.880176,8.22244898 L114.880176,13.4959184 C114.880176,14.5367347 115.430617,15.0571429 116.563877,15.0571429 L119.218943,15.0571429 L119.218943,16.8265306 Z" id="Shape_1531084847509" vector-effect="non-scaling-stroke"/>
                    <path d="M123.395815,16.8265306 L121.485463,16.8265306 L121.485463,0.0346938776 L123.395815,0.0346938776 L123.395815,5.30816327 C123.849119,4.99591837 124.399559,4.82244898 125.079515,4.82244898 L125.662335,4.82244898 C126.860352,4.82244898 127.76696,5.13469388 128.34978,5.7244898 C128.932599,6.34897959 129.224009,7.32040816 129.224009,8.63877551 L129.224009,16.7918367 L127.313656,16.7918367 L127.313656,8.1877551 C127.313656,7.70204082 127.184141,7.32040816 126.92511,7.04285714 C126.666079,6.76530612 126.309912,6.62653061 125.856608,6.62653061 L124.820485,6.62653061 C124.334802,6.62653061 123.978634,6.76530612 123.719604,7.00816327 C123.460573,7.28571429 123.363436,7.56326531 123.363436,7.8755102 L123.363436,16.8265306 L123.395815,16.8265306 Z" id="Shape_1531084847509" vector-effect="non-scaling-stroke"/>
                    <path d="M138.51674,16.8265306 L135.635022,16.8265306 C134.307489,16.8265306 133.368502,16.5142857 132.753304,15.9244898 C132.138106,15.3346939 131.846696,14.3632653 131.846696,12.9755102 L131.846696,8.67346939 C131.846696,7.28571429 132.138106,6.31428571 132.688546,5.7244898 C133.238987,5.13469388 134.145595,4.82244898 135.440749,4.82244898 L136.055947,4.82244898 C138.192952,4.82244898 139.293833,6.07142857 139.293833,8.53469388 L139.293833,11.6571429 L133.789427,11.6571429 L133.789427,13.4612245 C133.789427,14.5020408 134.339868,15.022449 135.473128,15.022449 L138.581498,15.022449 L138.581498,16.8265306 L138.51674,16.8265306 Z M133.72467,8.1877551 L133.72467,9.85306122 L137.38348,9.85306122 L137.38348,8.04897959 C137.38348,7.63265306 137.253965,7.28571429 136.994934,7.00816327 C136.735903,6.73061224 136.412115,6.59183673 136.023568,6.59183673 L135.181718,6.59183673 C134.631278,6.59183673 134.27511,6.73061224 134.048458,6.97346939 C133.854185,7.28571429 133.72467,7.66734694 133.72467,8.1877551 Z" id="Shape_1531084847509" vector-effect="non-scaling-stroke"/>
                    <path d="M143.729736,16.8265306 L141.819383,16.8265306 L141.819383,4.82244898 L143.60022,4.82244898 L143.60022,5.48163265 C144.085903,5.06530612 144.701101,4.82244898 145.381057,4.82244898 L147,4.82244898 L147,6.73061224 L145.154405,6.73061224 C144.668722,6.73061224 144.280176,6.90408163 144.053524,7.25102041 C143.826872,7.59795918 143.697357,7.94489796 143.697357,8.29183673 L143.697357,16.8265306 L143.729736,16.8265306 Z" id="Shape_1531084847509" vector-effect="non-scaling-stroke"/>
                </g>
            </g>
        </g>
    </g></svg>