<?xml version="1.0" standalone="no"?>
<svg version="1.1" preserveAspectRatio="xMidYMid meet" viewBox="0 0 38 39" class="ng-element" data-id="40786d5f50f1f5e8191f90b3312bfe61" style="mix-blend-mode: normal; overflow: visible; width: 38px; height: 39px; filter: none;" xmlns="http://www.w3.org/2000/svg"><title>Shape8E50B9B7-44F5-4C49-932A-009A649869FE</title><desc>Created with Sketch.</desc><defs/><g id="Page-1" stroke="none" stroke-width="1" fill="none" fill-rule="evenodd">
        <g id="Front" transform="translate(-1064.000000, -2131.000000)" fill="#000000" fill-rule="nonzero">
            <g id="DieProduktMacher_Logo-Copy" transform="translate(1064.000000, 2131.000000)">
                <path d="M19,0 C8.50169492,0 0,8.72542373 0,19.5 C0,30.2745763 8.50169492,39 19,39 C29.4983051,39 38,30.2745763 38,19.5 C38,8.72542373 29.4983051,0 19,0 Z M31.9135593,22.1440678 L20.3525424,22.1440678 L22.6711864,19.1694915 L29.7881356,19.1694915 L26.3745763,11.0720339 L10.3050847,31.1008475 C10.0474576,31.4313559 9.62881356,31.629661 9.21016949,31.629661 C9.01694915,31.629661 8.8559322,31.5966102 8.66271186,31.5305085 C8.08305085,31.2991525 7.76101695,30.6711864 7.82542373,30.0432203 L10.1440678,8.22966102 C10.2084746,7.66779661 10.5627119,7.20508475 11.0779661,7.03983051 C11.5932203,6.84152542 12.140678,6.97372881 12.5271186,7.37033898 L18.1627119,13.1542373 L16.359322,15.3686441 L12.6237288,11.5016949 L11.1101695,25.5483051 L25.6661017,7.40338983 C25.9881356,7.00677966 26.4711864,6.80847458 26.9542373,6.90762712 C27.4372881,6.97372881 27.8559322,7.30423729 28.0491525,7.76694915 L33.2016949,20.0288136 C33.3949153,20.4584746 33.3305085,21.020339 33.0728814,21.4169492 C32.8152542,21.8466102 32.3644068,22.1440678 31.9135593,22.1440678 Z" id="Shape" vector-effect="non-scaling-stroke"/>
            </g>
        </g>
    </g></svg>