<?xml version="1.0" standalone="no"?>
<svg version="1.1" preserveAspectRatio="xMidYMid meet" viewBox="0 0 109 47" class="ng-element" data-id="023e04496b844b7496518efcf7851d53" style="mix-blend-mode: normal; overflow: visible; width: 109px; height: 47px; filter: none;" xmlns="http://www.w3.org/2000/svg"><title>Group 2</title><desc>Created with Sketch.</desc><defs/><g id="Page-1_1531084869605" stroke="none" stroke-width="1" fill="none" fill-rule="evenodd">
        <g id="Front_1531084869605" transform="translate(-698.000000, -4050.000000)" fill="#000000" fill-rule="nonzero">
            <g id="Group-2_1531084869605" transform="translate(698.000000, 4050.000000)">
                <path d="M0,32 L0,23 L10.8463144,23 L10.8463144,32 L0,32 Z M33.0746619,32 L33.0746619,23 L43.9209763,23 L43.9209763,32 L33.0746619,32 Z M65.6136051,32 L65.6136051,23 L76.4599194,23 L76.4599194,32 L65.6136051,32 Z M98.1536856,32 L98.1536856,23 L109,23 L109,32 L98.1536856,32 Z" id="Shape_1531084869605" vector-effect="non-scaling-stroke"/>
                <path d="M43.458789,0 L0.536653451,0 L0,16.5855114 L2.84847904,17.0165411 C3.38023311,12.1304069 4.84435134,8.50442829 7.24083372,6.13850544 C9.76458615,3.66250486 13.2397306,2.3691164 17.7072851,2.25834008 L17.7072851,36.9492939 C17.7072851,39.9791761 17.2241831,41.9462044 16.2146821,42.8533727 C15.3555808,43.6250146 13.9036541,44.1004546 11.8587879,44.2794931 C11.2511504,44.3240032 10.216241,44.3463581 8.75394579,44.3463581 L8.75394579,47 L35.2436615,47 L35.2436615,44.3463581 C33.7798851,44.3463581 32.7449757,44.3240032 32.1388193,44.2794931 C30.0940671,44.1004546 28.6423683,43.6250146 27.7840646,42.8533727 C26.7745636,41.9462044 26.2857646,39.9791761 26.2857646,36.9492939 L26.2857646,2.25744189 C30.7533191,2.36821821 34.2342745,3.66160667 36.7590523,6.13760726 C39.1571299,8.50353011 40.6212481,12.1295087 41.151521,17.0156429 L44,16.5846132 L43.458789,0 Z" id="Shape_1531084869605" vector-effect="non-scaling-stroke"/>
            </g>
        </g>
    </g></svg>