<?xml version="1.0" standalone="no"?>
<svg version="1.1" preserveAspectRatio="xMidYMid meet" viewBox="0 0 24 24" class="ng-element interactive" data-id="adfafe0bddba44dd9b10600328beb40f" style="mix-blend-mode: normal; fill: rgb(255, 255, 255); width: 40px; height: 40px; filter: none;" xmlns="http://www.w3.org/2000/svg"><g><path xmlns:default="http://www.w3.org/2000/svg" id="twitter" d="M20.2,6.92c-0.62,0.27-1.27,0.45-1.94,0.52c0.71-0.41,1.24-1.07,1.48-1.85c-0.66,0.39-1.38,0.67-2.13,0.81  c-1.27-1.36-3.41-1.43-4.76-0.15c-0.03,0.02-0.05,0.05-0.08,0.07c-0.65,0.62-1.01,1.48-1,2.38c0,0.26,0.03,0.52,0.08,0.77  C10.51,9.41,9.19,9.05,8,8.43C6.82,7.84,5.78,7.01,4.94,6C4.35,7.02,4.33,8.27,4.89,9.3C5.16,9.77,5.54,10.16,6,10.45  C5.46,10.43,4.93,10.27,4.46,10l0,0c-0.01,0.78,0.26,1.54,0.77,2.14c0.49,0.6,1.17,1.01,1.93,1.16c-0.29,0.07-0.58,0.11-0.88,0.11  c-0.21,0-0.43-0.02-0.64-0.05c0.44,1.37,1.7,2.3,3.14,2.33c-1.17,0.97-2.65,1.5-4.17,1.51c-0.27,0.02-0.54,0.02-0.81,0  c1.55,0.99,3.36,1.5,5.2,1.46c1.14,0.01,2.28-0.19,3.36-0.57c0.96-0.34,1.86-0.85,2.64-1.51c0.74-0.63,1.39-1.37,1.92-2.19  c0.52-0.8,0.93-1.67,1.2-2.59c0.26-0.88,0.4-1.79,0.4-2.7c0-0.19,0-0.34,0-0.44C19.18,8.18,19.75,7.59,20.2,6.92L20.2,6.92z" style="fill: rgb(255, 255, 255);"/></g></svg>