<?xml version="1.0" encoding="UTF-8"?>
<svg width="120px" height="44px" viewBox="0 0 120 44" version="1.1" xmlns="http://www.w3.org/2000/svg" xmlns:xlink="http://www.w3.org/1999/xlink">
    <!-- Generator: Sketch 57.1 (83088) - https://sketch.com -->
    <title>dps-logo-white</title>
    <desc>Created with Sketch.</desc>
    <g id="Faq" stroke="none" stroke-width="1" fill="none" fill-rule="evenodd">
        <g id="Teampage" transform="translate(-333.000000, -41.000000)" fill="#FFFFFF" fill-rule="nonzero">
            <g id="dps-logo-white" transform="translate(333.000000, 41.000000)">
                <rect id="Rectangle" x="0" y="12" width="8" height="1"></rect>
                <path d="M13.970602,0 L12.539484,0 L12.539484,2.09307538 L13.4501955,2.09307538 C14.4922596,2.09307538 15.1427678,2.43045889 15.4029711,3.30895364 C15.5280688,3.64633715 15.5981235,4.05119736 15.5981235,5.46950572 C15.5981235,6.88781409 15.5330727,7.35885337 15.4730258,7.6300578 C15.2128225,8.50725493 14.5623143,8.84463843 13.5202502,8.84463843 L12.3443315,8.84463843 C12.2792807,8.84463843 12.2792807,8.84463843 12.2792807,8.77716173 L12.2792807,2.63288899 L10,2.63288899 L10,10.8702371 C10.0067713,10.9387836 10.0590156,10.9929762 10.1250977,11 L14.0944488,11 C15.9821736,11 17.2218921,10.1902796 17.7397967,8.50206441 C17.9349492,7.89477409 18,7.28618615 18,5.46431521 C18,3.64244426 17.9349492,3.03385632 17.7397967,2.42526837 C17.1605942,0.811018049 15.8583268,0 13.970602,0" id="Path"></path>
                <path d="M21.1352557,11 L22.8877336,11 C22.9470377,10.9929762 22.9939232,10.9387836 23,10.8702371 L23,0.129762888 C22.9939232,0.0612164266 22.9470377,0.00702380213 22.8877336,0 L21.1352557,0 C21.0759517,0.00702380213 21.0290661,0.0612164266 21.0229893,0.129762888 L21.0229893,10.7975699 C20.9646108,10.9273328 21.0229893,11 21.1352557,11" id="Path"></path>
                <path d="M29.5348629,11 C31.5582539,11 33.0935638,10.0299604 33.7210965,8.34731487 C33.9302741,7.76529112 34,6.92334652 34,5.95330695 L34,5.11136235 C33.9927421,5.0456678 33.9367431,4.99372988 33.8659118,4.9869983 L29.9572408,4.9869983 C29.8864095,4.99372988 29.8304105,5.0456678 29.8231526,5.11136235 L29.8231526,6.60373092 C29.8304105,6.66942548 29.8864095,6.7213634 29.9572408,6.72809497 L31.4925507,6.72809497 C31.5622765,6.72809497 31.5622765,6.72809497 31.5622765,6.79276427 C31.5657565,7.14199083 31.5206892,7.49017693 31.4281883,7.82871679 C31.2190107,8.54007914 30.4506853,8.92809497 29.613975,8.92809497 C28.6378129,8.92809497 28.0049166,8.47540984 27.7300358,7.76404748 C27.5959476,7.37478802 27.5208582,6.85743358 27.5208582,5.49937818 C27.5208582,4.14132278 27.590584,3.6227247 27.7300358,3.23470888 C28.0089392,2.52210288 28.568087,2.06941775 29.5442491,2.06941775 C30.4506853,2.06941775 31.079559,2.45743358 31.4979142,3.16879593 C31.5109268,3.20591971 31.5419781,3.23522261 31.5817731,3.24793302 C31.6215682,3.26064343 31.6654887,3.25528629 31.7003874,3.23346523 L33.5146007,2.52085924 C33.5843266,2.45618994 33.6486889,2.3964952 33.5843266,2.26218202 C33.0238379,0.97003957 31.6279797,0 29.5348629,0 C27.511472,0 25.9064362,0.840700961 25.3486293,2.58801583 C25.0697259,3.30062182 25,3.88264556 25,5.50062182 C25,7.11859808 25.0697259,7.63595252 25.3486293,8.41198417 C25.977503,10.1530808 27.511472,11 29.5348629,11" id="Path"></path>
                <path d="M38.8649717,0 L37.1120776,0 C37.0528733,0.00706715379 37.0060665,0.0615942609 37,0.130563798 L37,10.8694362 C37.0060665,10.9384057 37.0528733,10.9929328 37.1120776,11 L38.8649717,11 C38.924176,10.9929328 38.9709828,10.9384057 38.9770493,10.8694362 L38.9770493,0.13578635 C39.0353297,0.0678931751 38.9770493,0.00522255193 38.8649717,0.00522255193" id="Path"></path>
                <path d="M41.1262826,2.9020447 L43.8198895,2.9020447 C43.8855564,2.9020447 43.8855564,2.9020447 43.8855564,2.96386115 L43.8855564,10.8811222 C43.8923919,10.9439187 43.945131,10.9935654 44.011839,11 L45.988161,11 C46.054869,10.9935654 46.1076081,10.9439187 46.1144436,10.8811222 L46.1144436,2.96386115 C46.1144436,2.9020447 46.1144436,2.9020447 46.1801105,2.9020447 L48.8737174,2.9020447 C48.9404254,2.89561008 48.9931646,2.84596338 49,2.7831669 L49,1.11887779 C48.9931646,1.05608132 48.9404254,1.00643461 48.8737174,1 L41.1262826,1 C41.0595746,1.00643461 41.0068354,1.05608132 41,1.11887779 L41,2.77841179 C41.0068354,2.84120827 41.0595746,2.89085497 41.1262826,2.89728959" id="Path"></path>
                <path d="M48.1360544,11 L50.2462062,11 C50.3770277,11 50.4502878,10.9321068 50.4502878,10.8694362 L51.0625327,8.89922849 L54.9427002,8.89922849 L55.5549451,10.8694362 C55.5549451,11 55.6229723,11 55.7590267,11 L57.8691784,11 C58,11 58,10.9321068 58,10.8694362 L54.2611198,0.130563798 C54.2611198,0.0626706231 54.1930926,0 54.0570382,0 L52.0149137,0 C51.8840921,0 51.810832,0.0678931751 51.810832,0.130563798 L48,10.8642136 C48,10.9321068 48,10.9947774 48.1308216,10.9947774 L48.1360544,11 Z M53.03663,2.98207715 L53.03663,2.98207715 L54.329147,6.85329377 L51.7428048,6.85329377 L53.03663,2.98207715 Z" id="Shape"></path>
                <path d="M63.0856312,11 L69.876859,11 C69.9419075,10.9929762 69.9933346,10.9387836 70,10.8702371 L70,9.04187802 C69.9933346,8.97333156 69.9419075,8.91913894 69.876859,8.91211514 L65.263996,8.91211514 C65.1999627,8.91211514 65.1999627,8.91211514 65.1999627,8.84463843 L65.1999627,0.129762888 C65.1932973,0.0612164266 65.1418701,0.00702380213 65.0768216,0 L63.1496645,0 C63.084616,0.00702380213 63.0331889,0.0612164266 63.0265235,0.129762888 L63.0265235,10.7975699 C62.9624901,10.9273328 63.0265235,11 63.0905568,11" id="Path"></path>
                <path d="M3.6969147,16 L0.127041742,16 C0.0599327097,16.0070705 0.00687651204,16.0616235 0,16.1306258 L0,26.8693742 C0.00687651204,26.9383765 0.0599327097,26.9929295 0.127041742,27 L0.721597096,27 C0.790951362,26.9953984 0.847139767,26.9403759 0.854990926,26.8693742 L0.854990926,22.319677 C0.854990926,22.2517516 0.854990926,22.2517516 0.921052632,22.2517516 L3.6969147,22.2517516 C5.746098,22.2517516 7,21.0290939 7,19.1258758 C7,17.1547322 5.74482759,16 3.6969147,16 M3.63085299,21.3687211 L0.921052632,21.3687211 C0.854990926,21.3687211 0.854990926,21.3687211 0.854990926,21.2994894 L0.854990926,16.9509559 C0.854990926,16.8817243 0.854990926,16.8817243 0.921052632,16.8817243 L3.63085299,16.8817243 C5.21760436,16.8817243 6.07640653,17.6981356 6.07640653,19.1258758 C6.07640653,20.553616 5.21760436,21.3687211 3.63085299,21.3687211" id="Shape"></path>
                <path d="M14.8257837,21.9446477 C16.195975,21.6071049 16.9801962,20.5256698 16.9801962,19.0404815 C16.9801962,17.1489437 15.7392445,16 13.7178359,16 L10.1254754,16 C10.0591938,16.0070271 10.0067917,16.0612453 10,16.1298241 L10,26.8026673 C10.0067917,26.8712461 10.0591938,26.9254643 10.1254754,26.9324914 L10.7127002,26.9324914 C10.7789819,26.9254643 10.8313839,26.8712461 10.8381756,26.8026673 L10.8381756,22.1419804 C10.8381756,22.0744719 10.8381756,22.0744719 10.9034228,22.0744719 L13.7755546,22.0744719 L15.9952143,26.8701759 C16.0604615,27 16.0604615,27 16.190956,27 L16.90993,27 C16.9751772,27 17.0354054,26.9324914 16.9751772,26.7974743 L14.8257837,21.9446477 Z M13.7153264,21.2020536 L10.9736891,21.2020536 C10.9084419,21.2020536 10.9084419,21.2020536 10.9084419,21.1332468 L10.9084419,17.0139266 C10.9084419,16.946418 10.9084419,16.946418 10.9736891,16.946418 L13.7153264,16.946418 C15.2210312,16.946418 16.0654806,17.7565207 16.0654806,19.1079901 C16.1307278,20.3906527 15.2825141,21.2020536 13.7153264,21.2020536 L13.7153264,21.2020536 Z" id="Shape"></path>
                <path d="M25.0006628,16 C23.1381939,16 21.896106,16.851962 21.3446562,18.4224917 C21.1378625,19.0126988 21,19.6670861 21,21.5006292 C21,23.3341723 21.1325601,24.0539984 21.3446562,24.5775083 C21.896106,26.1492964 23.1381939,27 25.0006628,27 C26.7928749,27 28.103894,26.1492964 28.6553438,24.5775083 C28.8621375,23.9885597 29,23.3341723 29,21.5006292 C29,19.6670861 28.8674399,18.94726 28.6553438,18.4224917 C28.103894,16.851962 26.8618061,16 25.0006628,16 M27.7592378,24.3811921 C27.3456504,25.5603478 26.4482187,26.2147352 25.069594,26.2147352 C23.6909693,26.2147352 22.7246065,25.5603478 22.3096935,24.3811921 C22.1771334,23.9885597 22.0339685,23.2687336 22.0339685,21.566068 C22.0339685,19.8634024 22.1665286,19.1435762 22.3096935,18.7509438 C22.7246065,17.5717881 23.6207125,16.9174008 25.069594,16.9174008 C26.4482187,16.9174008 27.3456504,17.5717881 27.7592378,18.7509438 C27.8917978,19.1435762 28.0349627,19.8634024 28.0349627,21.566068 C28.0349627,23.2687336 27.9024027,23.9231209 27.7592378,24.3811921" id="Shape"></path>
                <path d="M34.369645,16.0169552 L31.122399,16.0169552 C31.0577425,16.0240148 31.0066252,16.0784837 31,16.1473797 L31,26.8695755 C31.0066252,26.9384715 31.0577425,26.9929404 31.122399,27 L34.369645,27 C36.0893513,27 37.2362301,26.253972 37.6817625,24.7606118 C37.872705,24.0824046 38,23.472018 38,21.5 C38,19.527982 37.9363525,18.8536875 37.6817625,18.2393882 C37.1725826,16.6742945 36.0905753,16 34.369645,16 M36.7906977,24.4775907 C36.4075887,25.6318473 35.5165239,26.1731088 34.1787026,26.1731088 L31.8861689,26.1731088 C31.8225214,26.1731088 31.8225214,26.1731088 31.8225214,26.1052881 L31.8225214,16.9677496 C31.8225214,16.8999289 31.8225214,16.8999289 31.8861689,16.8999289 L34.1787026,16.8999289 C35.5165239,16.8999289 36.4075887,17.3746739 36.7906977,18.595447 C36.9816401,19.1380128 37.0452876,19.6805786 37.0452876,21.5808632 C37.0452876,23.4811477 36.9816401,23.9558928 36.7906977,24.4984586" id="Shape"></path>
                <path d="M48.8336938,16 L48.2621883,16 C48.1978186,16.0069354 48.146928,16.0604463 48.1403322,16.1281305 L48.1403322,23.1291788 C48.1403322,25.1959231 47.1264889,26.1953407 45.477775,26.1953407 C43.829061,26.1953407 42.8152177,25.1959231 42.8152177,23.1291788 L42.8152177,16.1332557 C42.8086219,16.0655715 42.7577314,16.0120607 42.6933616,16.0051252 L42.1218562,16.0051252 C42.0574864,16.0120607 42.0065958,16.0655715 42,16.1332557 L42,23.0676762 C42,25.7340711 43.3952531,27 45.4875235,27 C47.643159,27 48.9750469,25.7340711 48.9750469,23.0676762 L48.9750469,16.1332557 C49.0384121,16.0666278 48.9750469,16.0051252 48.8531907,16.0051252" id="Path"></path>
                <path d="M54.7328548,16.8464441 C55.9318775,16.8464441 56.7325069,17.435056 57.1987935,18.3557055 C57.2654059,18.4211068 57.3268942,18.4814772 57.3986306,18.4211068 L57.9315296,18.1595015 C57.9827394,18.1073128 58.0072167,18.0352157 57.998142,17.9632975 C57.3986306,16.655271 56.1983269,16 54.7328548,16 C52.9996521,16 51.8659608,16.7860736 51.2664495,18.3557055 C51.0666124,18.8801738 51,19.5995884 51,21.5 C51,23.4004116 51.1281007,24.0519094 51.2664495,24.6442945 C51.7993484,26.2151841 52.9996521,27 54.7328548,27 C56.1983269,27 57.3986306,26.3459867 57.998142,25.0367025 C58.0072167,24.9647843 57.9827394,24.8926872 57.9315296,24.8404985 L57.3986306,24.5788932 C57.3320182,24.5134919 57.2705299,24.5788932 57.1987935,24.6442945 C56.7325069,25.5611708 55.9318775,26.1535559 54.7328548,26.1535559 C53.3993264,26.1535559 52.5999779,25.564944 52.2003037,24.3864624 C52.072203,23.9927967 51.9325732,23.2746398 51.9325732,21.5075463 C51.9325732,19.7404528 52.0004666,19.0864395 52.2003037,18.6273725 C52.5999779,17.51555 53.3993264,16.8665676 54.7328548,16.8665676" id="Path"></path>
                <path d="M69.9222484,16.0035834 L63.1178055,16.0035834 C63.0555754,16.0100487 63.0063766,16.0599326 63,16.1230291 L63,16.621118 C63.0063766,16.6842145 63.0555754,16.7340984 63.1178055,16.7405638 L65.9993268,16.7405638 C66.0605857,16.7405638 66.0605857,16.7405638 66.0605857,16.8026756 L66.0605857,25.8805542 C66.0669622,25.9436507 66.1161611,25.9935346 66.1783911,26 L66.7308987,26 C66.7929236,25.9930991 66.841898,25.9434427 66.8487041,25.8805542 L66.8487041,16.874343 C66.8487041,16.8122312 66.8487041,16.8122312 66.909963,16.8122312 L69.7903063,16.8122312 C69.8525363,16.8057659 69.9017352,16.755882 69.9081117,16.6927855 L69.9081117,16.1863354 C70.0306294,16.0621118 70.0306294,16 69.9081117,16" id="Path"></path>
                <path d="M13.951967,38.0063291 L13.5175567,37.9392405 C11.7787218,37.6772152 11.1581356,37.0189873 11.1581356,35.8987342 C11.1581356,34.6468354 12.0269563,33.7911392 13.455498,33.7911392 C14.3373589,33.7982857 15.1989681,34.072315 15.9390363,34.5810127 C15.9616873,34.6109584 15.9959277,34.6283823 16.0321242,34.6283823 C16.0683207,34.6283823 16.1025611,34.6109584 16.1252121,34.5810127 L16.4355052,34.1202532 C16.4975639,34.0544304 16.4975639,33.9227848 16.4355052,33.9227848 C15.7528604,33.3962025 14.6358053,33 13.5175567,33 C11.592546,33 10.3549539,34.1860759 10.3549539,36.0303797 C10.3549539,37.6101266 11.2870266,38.5987342 13.2740959,38.8620253 L13.7085063,38.9278481 C15.5714583,39.1924051 16.1299859,39.9822785 16.1299859,41.035443 C16.1299859,42.3531646 15.137048,43.2088608 13.5223304,43.2088608 C12.4585079,43.1945441 11.4303769,42.799826 10.6043818,42.0886076 C10.5817308,42.0586619 10.5474903,42.0412379 10.5112939,42.0412379 C10.4750974,42.0412379 10.4408569,42.0586619 10.4182059,42.0886076 L10.0446608,42.5506329 C10.0164275,42.5746578 10,42.6109751 10,42.6493671 C10,42.6877591 10.0164275,42.7240764 10.0446608,42.7481013 C10.728499,43.4063291 12.0937887,44 13.3982132,44 C15.7576342,44 17,42.6822785 17,40.9037975 C16.9379414,39.3240506 16.0058686,38.2696203 13.9567407,38.0063291" id="Path"></path>
                <path d="M23.7315738,33.8483808 C24.9318775,33.8483808 25.7312259,34.4374642 26.1975125,35.3588511 C26.2641249,35.4230461 26.3256132,35.4847237 26.3973496,35.4230461 L26.9315296,35.1612313 C26.9827394,35.1090008 27.0072167,35.0368459 26.998142,34.9648701 C26.3973496,33.6557959 25.1983269,33 23.7315738,33 C21.9983711,33 20.8659608,33.7854446 20.2664495,35.3588511 C20.0666124,35.8824808 20,36.6024717 20,38.5056643 C20,40.4088568 20.1281007,41.0596178 20.2664495,41.6524774 C20.7993484,43.2195903 22.0022141,44 23.7315738,44 C25.1983269,44 26.3973496,43.3442041 26.998142,42.0351299 C27.0072167,41.9631541 26.9827394,41.8909992 26.9315296,41.8387687 L26.3973496,41.5756952 C26.3307372,41.5102414 26.2692489,41.5756952 26.1975125,41.6411489 C25.7312259,42.5587596 24.9318775,43.1516192 23.7315738,43.1516192 C22.3993264,43.1516192 21.5986969,42.5625358 21.1990227,41.3831102 C21.070922,40.9903879 20.9325732,40.2703971 20.9325732,38.5018881 C20.9325732,36.7333791 20.9991856,36.0775832 21.1990227,35.620666 C21.5986969,34.5066941 22.3993264,33.852157 23.7315738,33.852157" id="Path"></path>
                <path d="M36.8762157,33 L36.2969054,33 C36.2315171,33.007068 36.1798213,33.0616016 36.1731211,33.1305793 L36.1731211,37.8862773 C36.1731211,37.9541785 36.1731211,37.9541785 36.1087533,37.9541785 L30.8924845,37.9541785 C30.8281167,37.9541785 30.8281167,37.9541785 30.8281167,37.8862773 L30.8281167,33.1358025 C30.8214165,33.0668247 30.7697207,33.0122912 30.7043324,33.0052232 L30.1237843,33.0052232 C30.058396,33.0122912 30.0067002,33.0668247 30,33.1358025 L30,43.8694207 C30.0067002,43.9383984 30.058396,43.992932 30.1237843,44 L30.7043324,44 C30.7697207,43.992932 30.8214165,43.9383984 30.8281167,43.8694207 L30.8281167,38.9779202 C30.8281167,38.910019 30.8281167,38.910019 30.8924845,38.910019 L36.1087533,38.910019 C36.1731211,38.910019 36.1731211,38.910019 36.1731211,38.9779202 L36.1731211,43.8694207 C36.1798213,43.9383984 36.2315171,43.992932 36.2969054,44 L36.8762157,44 C36.9413885,43.9924559 36.9928485,43.938171 37,43.8694207 L37,33.1358025 C36.9928485,33.0670521 36.9413885,33.0127673 36.8762157,33.0052232" id="Path"></path>
                <path d="M43.9993372,33 C42.1434963,33 40.896106,33.8518646 40.3446562,35.4234729 C40.1378625,36.0123542 40,36.6666667 40,38.5 C40,40.3333333 40.1325601,41.0530771 40.3446562,41.5765271 C40.896106,43.1481354 42.1381939,44 43.9993372,44 C45.7928749,44 47.103894,43.1481354 47.6553438,41.5765271 C47.8621375,40.9876458 48,40.332075 48,38.5 C48,36.667925 47.8674399,35.9469229 47.6553438,35.4222146 C47.103894,33.8518646 45.7928749,33 43.9993372,33 M46.6903065,41.3802334 C46.2753935,42.5592542 45.3792875,43.2135667 43.9993372,43.2135667 C42.6193869,43.2135667 41.6543496,42.5592542 41.2407622,41.3802334 C41.1082022,40.9876458 40.9650373,40.2679021 40.9650373,38.5654313 C40.9650373,36.8629604 41.0975973,36.1432167 41.2407622,35.7493709 C41.6543496,34.5716083 42.5517813,33.9172958 43.9993372,33.9172958 C45.3792875,33.9172958 46.2753935,34.5716083 46.6903065,35.7493709 C46.8228666,36.1432167 46.9660315,36.8629604 46.9660315,38.5654313 C46.9660315,40.2679021 46.8971002,40.9222146 46.6903065,41.3802334" id="Shape"></path>
                <path d="M54,33 C52.1378396,33 50.897283,33.8518646 50.3445991,35.4234729 C50.1378396,36.0123542 50,36.6666667 50,38.5 C50,40.3333333 50.1325381,41.0530771 50.3445991,41.5765271 C50.897283,43.1481354 52.1378396,44 54,44 C55.7932406,44 57.102717,43.1481354 57.6554009,41.5765271 C57.8621604,40.9876458 58,40.332075 58,38.5 C58,36.667925 57.8674619,35.9469229 57.6554009,35.4222146 C57.102717,33.8518646 55.8621604,33 54,33 M56.758118,41.3802334 C56.3445991,42.5592542 55.4486415,43.2135667 54.0689198,43.2135667 C52.6891981,43.2135667 51.7243207,42.5592542 51.3108019,41.3802334 C51.1782638,40.9876458 51.0351226,40.2679021 51.0351226,38.5654313 C51.0351226,36.8629604 51.1676607,36.1432167 51.3108019,35.7493709 C51.7243207,34.5716083 52.6202783,33.9172958 54.0689198,33.9172958 C55.4486415,33.9172958 56.3445991,34.5716083 56.758118,35.7493709 C56.8906561,36.1432167 57.0337972,36.8629604 57.0337972,38.5654313 C57.0337972,40.2679021 56.9012591,40.9222146 56.758118,41.3802334" id="Shape"></path>
                <path d="M69.8333143,43.1900238 L64.003068,43.1900238 C63.9311238,43.1900238 63.9311238,43.1900238 63.9311238,43.1220903 L63.9311238,33.1306413 C63.9225735,33.0596312 63.8613818,33.0046022 63.7858519,33 L63.1383542,33 C63.0652694,33.0070714 63.0074888,33.0616308 63,33.1306413 L63,43.8693587 C63.0074888,43.9383692 63.0652694,43.9929286 63.1383542,44 L69.8333143,44 C69.9063991,43.9929286 69.9641797,43.9383692 69.9716685,43.8693587 L69.9716685,43.3258907 C70.0436127,43.2579572 69.9716685,43.1952494 69.8333143,43.1952494" id="Path"></path>
                <path d="M112.496227,0.0012716175 L119.538481,0.0012716175 C119.973592,0.0012716175 120,0.0267039674 120,0.460325534 C120,5.10851136 120,9.75712106 120,14.4061546 C120,14.4557477 120,14.5053408 120,14.5549339 C120,14.9593082 119.958501,15 119.568662,15 L117.726358,15 C117.303823,15 117.268612,14.9643947 117.268612,14.5307731 L117.268612,3.21337742 C117.268612,2.67675483 117.268612,2.67675483 116.725352,2.67675483 L105.460262,2.67675483 C105.038984,2.67675483 105,2.63987792 105,2.21134283 C105,1.60732452 105,1.00330621 105,0.399287894 C105,0.0521363174 105.059105,0 105.403672,0 L112.496227,0.0012716175 Z" id="Path"></path>
                <path d="M112.496857,43 L105.428715,43 C105.051546,43 105.001257,42.9507772 105,42.5660622 C105,41.9430052 105,41.3186528 105,40.6955959 C105,40.3225389 105.052804,40.2733161 105.413628,40.2733161 L116.854413,40.2733161 C117.255469,40.2733161 117.270556,40.2564767 117.270556,39.8471503 L117.270556,28.5440415 C117.270556,28.0427461 117.310787,28.0012953 117.802364,28 C118.392004,28 118.980387,28 119.570028,28 C119.933367,28 120,28.0725389 120,28.4430052 C120,33.1554404 120,37.8670121 120,42.5777202 C120,42.9663212 119.962283,43 119.56877,43 L112.496857,43 Z" id="Path"></path>
                <path d="M84.5094308,43 L77.4677676,43 C77.0213765,43 77,42.9779793 77,42.5142502 L77,28.5881272 C77,28.0207714 77.0213765,27.9987508 77.585967,28 C78.1505575,28.0013414 78.7302372,28 79.3023724,28 C79.6632576,28 79.7311594,28.0764707 79.7311594,28.4469359 C79.7311594,32.2137637 79.7311594,35.979728 79.7311594,39.7448287 L79.7311594,39.8458646 C79.7311594,40.2551898 79.7462486,40.2720291 80.147372,40.2720291 L91.5070836,40.2720291 C91.9761086,40.2720291 91.9987426,40.2966404 92,40.7901622 C92,41.3717667 92,41.9559618 92,42.5336802 C92,42.9546634 91.9534747,43 91.5523514,43 L84.5094308,43 Z" id="Path"></path>
                <path d="M84.5075567,0 L91.5604534,0 C91.9697733,0 92,0.0317877426 92,0.455200475 C92,1.06806815 92,1.67966432 92,2.29126049 C92,2.6332966 91.9546599,2.6727134 91.615869,2.6727134 L80.2632242,2.6727134 C79.7329975,2.6727134 79.7342569,2.6727134 79.7342569,3.20166144 C79.7342569,6.96533017 79.7342569,10.7285751 79.7342569,14.4913961 C79.7342569,14.9694838 79.709068,15 79.2304786,15 L77.4634761,15 C77.0352645,15 77,14.9682123 77,14.5371705 C77,11.4855472 77,8.43392388 77,5.38230058 L77,0.439942358 C77,0.0330592524 77.0314861,0 77.4307305,0 L84.5075567,0 Z" id="Path"></path>
            </g>
        </g>
    </g>
</svg>