<svg xmlns="http://www.w3.org/2000/svg" viewBox="0 0 454.34 221.99"><defs><style>.cls-1{fill:#f7a520;}.cls-2{fill:#3bbfed;}.cls-3{fill:#492771;}.cls-4{fill:#c0398d;}.cls-5{fill:#fff;}.cls-6{fill:none;}</style></defs><title>DPS_Logo_Print_Color_neg</title><g id="Logo"><g id="Ebene_4" data-name="Ebene 4"><polygon class="cls-1" points="125.73 55.49 125.73 62.64 159.25 62.64 159.25 96.1 166.41 96.1 166.41 55.49 125.73 55.49"/><polygon class="cls-2" points="96.09 55.49 55.52 55.49 55.52 96.1 62.66 96.1 62.66 62.64 96.09 62.64 96.09 55.49"/><polygon class="cls-3" points="96.09 159.22 62.66 159.22 62.66 125.74 55.52 125.74 55.52 166.37 96.09 166.37 96.09 159.22"/><polygon class="cls-4" points="159.25 125.74 159.25 159.22 125.73 159.22 125.73 166.37 166.41 166.37 166.41 125.74 159.25 125.74"/><path class="cls-5" d="M197.6,55.49h10.52a16.75,16.75,0,0,1,6.3,1.14,14.66,14.66,0,0,1,4.88,3.13,14,14,0,0,1,3.15,4.69,15.25,15.25,0,0,1,1.11,5.86,14.87,14.87,0,0,1-1.15,5.89,14.13,14.13,0,0,1-3.19,4.69A14.89,14.89,0,0,1,214.36,84a16.16,16.16,0,0,1-6.11,1.13H197.6Zm7.07,6.58V78.52h3.25a9.39,9.39,0,0,0,3.52-.63,7.93,7.93,0,0,0,2.68-1.75,7.55,7.55,0,0,0,1.7-2.62,8.56,8.56,0,0,0,.59-3.21,9,9,0,0,0-.57-3.24,7.37,7.37,0,0,0-1.66-2.62,7.55,7.55,0,0,0-2.7-1.75,10.07,10.07,0,0,0-3.68-.63Z" transform="translate(-0.01)"/><path class="cls-5" d="M227.92,55.49h7.15V85.13h-7.15Z" transform="translate(-0.01)"/><path class="cls-5" d="M255.06,85.54a16.59,16.59,0,0,1-6.5-1.22,14.38,14.38,0,0,1-4.9-3.31,14.56,14.56,0,0,1-3.09-4.85,16.11,16.11,0,0,1-1.07-5.85,15.75,15.75,0,0,1,1.14-6,14.66,14.66,0,0,1,3.14-4.84,15,15,0,0,1,4.82-3.21,17.41,17.41,0,0,1,13.61.45,15.49,15.49,0,0,1,5.24,4.35l-5.93,4.18a7.23,7.23,0,0,0-2.74-2.56,8.32,8.32,0,0,0-4-.89,7.87,7.87,0,0,0-3.21.65A8.11,8.11,0,0,0,249,64.22a8.33,8.33,0,0,0-1.77,2.7,8.68,8.68,0,0,0-.65,3.39,9.27,9.27,0,0,0,.61,3.46,7.91,7.91,0,0,0,1.72,2.68,7.67,7.67,0,0,0,2.67,1.74,9,9,0,0,0,3.37.61,7.4,7.4,0,0,0,4.31-1.22,6.82,6.82,0,0,0,2.52-3.41h-8.25V67.59h15.93V71a15.32,15.32,0,0,1-1,5.59,14.18,14.18,0,0,1-2.93,4.65,14,14,0,0,1-4.55,3.16A14.25,14.25,0,0,1,255.06,85.54Z" transform="translate(-0.01)"/><path class="cls-5" d="M273.94,55.49h7.15V85.13h-7.15Z" transform="translate(-0.01)"/><path class="cls-5" d="M292.69,62h-8.05V55.49h22.92V62h-8v23.1h-6.9Z" transform="translate(-0.01)"/><path class="cls-5" d="M317.13,55.49H324l11,29.64h-7.19l-1.54-4.42H314.85l-1.54,4.42h-7.15Zm-.08,19.05h7l-3.5-10Z" transform="translate(-0.01)"/><path class="cls-5" d="M337.73,55.49h7.11V78.35h12.92v6.78h-20Z" transform="translate(-0.01)"/><path class="cls-5" d="M197.6,96.1h11.86a12.29,12.29,0,0,1,4.72.87,10.92,10.92,0,0,1,3.61,2.38,10.29,10.29,0,0,1,2.32,3.51,11.69,11.69,0,0,1,0,8.55,11,11,0,0,1-2.29,3.55,11.21,11.21,0,0,1-3.62,2.44,12.16,12.16,0,0,1-4.78.91h-4.71v7.43H197.6Zm7.11,6.41v9.22h4.39a4.6,4.6,0,0,0,3.31-1.26,4.39,4.39,0,0,0,1.32-3.33,4.47,4.47,0,0,0-1.32-3.35,4.57,4.57,0,0,0-3.31-1.28Z" transform="translate(-0.01)"/><path class="cls-5" d="M224.77,96.1h12.76a13,13,0,0,1,4.76.81,10.42,10.42,0,0,1,3.5,2.19,9.29,9.29,0,0,1,2.15,3.23,10.8,10.8,0,0,1,.73,4,10.42,10.42,0,0,1-1.28,5.14,9.27,9.27,0,0,1-3.52,3.59l5.53,10.72h-7.8l-4.19-8.89h-5.57v8.89h-7.07Zm7.07,6.45v7.88H237a4.39,4.39,0,0,0,3.35-1.16,4,4,0,0,0,1.08-2.82,3.74,3.74,0,0,0-1.1-2.86,4.7,4.7,0,0,0-3.33-1Z" transform="translate(-0.01)"/><path class="cls-5" d="M266.86,126.15a14.72,14.72,0,0,1-5.93-1.2,15.1,15.1,0,0,1-9.22-14,15,15,0,0,1,1.17-5.93,15.42,15.42,0,0,1,3.24-4.83,15.18,15.18,0,0,1,4.81-3.27,15.28,15.28,0,0,1,11.87,0,15.5,15.5,0,0,1,4.83,3.27,15.11,15.11,0,0,1,3.25,4.83,14.88,14.88,0,0,1,1.18,5.93,15.18,15.18,0,0,1-4.41,10.78,15.41,15.41,0,0,1-4.81,3.25A14.89,14.89,0,0,1,266.86,126.15Zm0-7a7.8,7.8,0,0,0,3.23-.65,7.63,7.63,0,0,0,2.56-1.79,8.44,8.44,0,0,0,1.69-2.61,8.24,8.24,0,0,0,.61-3.19,8.34,8.34,0,0,0-2.32-5.85,8.07,8.07,0,0,0-2.58-1.79,8.13,8.13,0,0,0-6.37,0,7.49,7.49,0,0,0-2.54,1.79,8.59,8.59,0,0,0-1.67,2.64,8.38,8.38,0,0,0-.61,3.21,8.61,8.61,0,0,0,.59,3.19,8,8,0,0,0,1.66,2.61,7.86,7.86,0,0,0,2.54,1.79A7.74,7.74,0,0,0,266.86,119.16Z" transform="translate(-0.01)"/><path class="cls-5" d="M286.37,96.1H296.9a16.82,16.82,0,0,1,6.3,1.14,14.44,14.44,0,0,1,4.87,3.12,13.84,13.84,0,0,1,3.15,4.69,15.12,15.12,0,0,1,1.12,5.87,15,15,0,0,1-1.16,5.89A14.19,14.19,0,0,1,308,121.5a15,15,0,0,1-4.85,3.1,16.25,16.25,0,0,1-6.12,1.14H286.37Zm7.07,6.58v16.44h3.25a9.39,9.39,0,0,0,3.52-.63,7.93,7.93,0,0,0,2.68-1.75,7.54,7.54,0,0,0,1.71-2.61,8.8,8.8,0,0,0,.59-3.21,9.1,9.1,0,0,0-.57-3.25,7.57,7.57,0,0,0-1.67-2.62,7.67,7.67,0,0,0-2.7-1.74,10,10,0,0,0-3.68-.63Z" transform="translate(-0.01)"/><path class="cls-5" d="M328.33,126.15a14.45,14.45,0,0,1-5-.82,10.22,10.22,0,0,1-3.76-2.35,10.76,10.76,0,0,1-2.39-3.78,14.22,14.22,0,0,1-.86-5.11v-18h7.2v18a5.26,5.26,0,0,0,1.28,3.81,4.54,4.54,0,0,0,3.47,1.34,4.72,4.72,0,0,0,3.5-1.34,5.16,5.16,0,0,0,1.34-3.81v-18h7.19v18a14.44,14.44,0,0,1-.85,5.11,10.64,10.64,0,0,1-2.4,3.78,10.14,10.14,0,0,1-3.78,2.35A14.45,14.45,0,0,1,328.33,126.15Z" transform="translate(-0.01)"/><path class="cls-5" d="M359.61,126.15a15.63,15.63,0,0,1-6.21-1.2,14.6,14.6,0,0,1-4.8-3.25,14.8,14.8,0,0,1-3.09-4.83,16.12,16.12,0,0,1-1.09-6,15.72,15.72,0,0,1,1.14-6,14.41,14.41,0,0,1,8-8,16.36,16.36,0,0,1,10.18-.63,16.05,16.05,0,0,1,3.65,1.48,14.37,14.37,0,0,1,3.09,2.32,14.6,14.6,0,0,1,2.36,3l-6.22,3.94a8.06,8.06,0,0,0-2.76-3.15,7.4,7.4,0,0,0-4.18-1.16,7.78,7.78,0,0,0-7.42,5.06,8.9,8.9,0,0,0-.59,3.23,8.81,8.81,0,0,0,.57,3.19,7.74,7.74,0,0,0,1.63,2.59,7.64,7.64,0,0,0,2.49,1.77,7.86,7.86,0,0,0,3.23.65,7.14,7.14,0,0,0,4.47-1.36,8.72,8.72,0,0,0,2.73-3.47l6.54,3.49a15.79,15.79,0,0,1-2.32,3.37,15.16,15.16,0,0,1-3.11,2.66,14.59,14.59,0,0,1-3.82,1.73A16.06,16.06,0,0,1,359.61,126.15Z" transform="translate(-0.01)"/><path class="cls-5" d="M384,102.63h-8.05V96.1h22.92v6.53h-8v23.11H384Z" transform="translate(-0.01)"/><path class="cls-5" d="M208.49,166.75a20.05,20.05,0,0,1-4.45-.45,16.21,16.21,0,0,1-3.58-1.24,13.37,13.37,0,0,1-2.88-1.88,20.85,20.85,0,0,1-2.34-2.36l6.1-4.87a9.76,9.76,0,0,0,3.09,3.08,8,8,0,0,0,4.3,1.1,4.31,4.31,0,0,0,2.77-.77,2.46,2.46,0,0,0,.93-2,2,2,0,0,0-.36-1.22,3.09,3.09,0,0,0-1.14-.85,11.6,11.6,0,0,0-1.91-.67c-.76-.2-1.67-.43-2.73-.67A33.23,33.23,0,0,1,203,153a10.81,10.81,0,0,1-3-1.5,7.43,7.43,0,0,1-2.2-2.45,7.58,7.58,0,0,1-.85-3.78,8.13,8.13,0,0,1,.81-3.61,9,9,0,0,1,2.24-2.89,10.53,10.53,0,0,1,3.41-1.91,13.61,13.61,0,0,1,4.39-.68,18.35,18.35,0,0,1,3.7.34,13.1,13.1,0,0,1,3.06,1,13.36,13.36,0,0,1,2.65,1.66,22.83,22.83,0,0,1,2.41,2.25l-5.68,4.43a7.92,7.92,0,0,0-2.57-2.58,7,7,0,0,0-3.73-.91,3.81,3.81,0,0,0-2.69.81,2.46,2.46,0,0,0-.85,1.83,1.53,1.53,0,0,0,.43,1.13,3.18,3.18,0,0,0,1.22.75,12.66,12.66,0,0,0,1.91.57l2.46.59c1.11.25,2.23.55,3.37.91a11.75,11.75,0,0,1,3.11,1.55,7.89,7.89,0,0,1,2.29,2.54,7.72,7.72,0,0,1,.9,3.93,8.79,8.79,0,0,1-.86,3.88,9.5,9.5,0,0,1-2.35,3.07,11.28,11.28,0,0,1-3.58,2A13.38,13.38,0,0,1,208.49,166.75Z" transform="translate(-0.01)"/><path class="cls-5" d="M237.89,166.75a15.64,15.64,0,0,1-6.22-1.2,14.45,14.45,0,0,1-4.79-3.25,14.29,14.29,0,0,1-3.09-4.83,16.09,16.09,0,0,1-1.1-5.95,15.79,15.79,0,0,1,1.14-6,14.49,14.49,0,0,1,8-8,16.56,16.56,0,0,1,10.18-.63,16.34,16.34,0,0,1,3.66,1.49,14,14,0,0,1,3.09,2.31,15.63,15.63,0,0,1,2.36,3l-6.22,3.94a8.13,8.13,0,0,0-2.77-3.14,7.4,7.4,0,0,0-4.18-1.16,8,8,0,0,0-3.25.65,7.76,7.76,0,0,0-2.52,1.77,8,8,0,0,0-1.65,2.63,9,9,0,0,0-.59,3.23,8.81,8.81,0,0,0,.57,3.19,7.79,7.79,0,0,0,1.63,2.6,8,8,0,0,0,2.5,1.77,7.83,7.83,0,0,0,3.23.64,7.14,7.14,0,0,0,4.47-1.36,8.63,8.63,0,0,0,2.72-3.47l6.54,3.49a15.81,15.81,0,0,1-2.31,3.38,16.1,16.1,0,0,1-3.11,2.66,14.72,14.72,0,0,1-3.82,1.72A15.74,15.74,0,0,1,237.89,166.75Z" transform="translate(-0.01)"/><path class="cls-5" d="M271.83,154.93h-9.71v11.41H255V136.7h7.11V148h9.71V136.7h7.11v29.64h-7.11Z" transform="translate(-0.01)"/><path class="cls-5" d="M298.41,166.75a14.72,14.72,0,0,1-5.93-1.2,15.46,15.46,0,0,1-4.82-3.25,15,15,0,0,1-3.23-4.83,15.66,15.66,0,0,1,0-11.88,15.19,15.19,0,0,1,8.05-8.1,15.37,15.37,0,0,1,11.86,0,15.55,15.55,0,0,1,4.84,3.27,15.28,15.28,0,0,1,3.25,4.83,15.31,15.31,0,0,1-3.23,16.71,15.46,15.46,0,0,1-4.82,3.25A14.81,14.81,0,0,1,298.41,166.75Zm0-7a7.87,7.87,0,0,0,3.23-.66,7.7,7.7,0,0,0,2.56-1.78,8.34,8.34,0,0,0,2.3-5.81,8.64,8.64,0,0,0-.61-3.21,8.18,8.18,0,0,0-1.71-2.63,8.08,8.08,0,0,0-9-1.79,7.45,7.45,0,0,0-2.54,1.79,8.67,8.67,0,0,0-1.68,9,8.05,8.05,0,0,0,1.66,2.62,7.86,7.86,0,0,0,5.75,2.44Z" transform="translate(-0.01)"/><path class="cls-5" d="M331.85,166.75a14.72,14.72,0,0,1-5.93-1.2,15.3,15.3,0,0,1-4.81-3.25,15,15,0,0,1-3.24-4.83,15.66,15.66,0,0,1,0-11.88,15.42,15.42,0,0,1,3.24-4.83,15.18,15.18,0,0,1,4.81-3.27,15.4,15.4,0,0,1,11.87,0,15.5,15.5,0,0,1,4.83,3.27,15.11,15.11,0,0,1,3.25,4.83,15.31,15.31,0,0,1-3.23,16.71,15.34,15.34,0,0,1-4.82,3.25A14.81,14.81,0,0,1,331.85,166.75Zm0-7a7.84,7.84,0,0,0,3.23-.66,7.6,7.6,0,0,0,2.56-1.78,8.48,8.48,0,0,0,1.69-2.62,8.24,8.24,0,0,0,.61-3.19,8.45,8.45,0,0,0-.61-3.21,8.18,8.18,0,0,0-1.71-2.63,8.08,8.08,0,0,0-9-1.79,7.41,7.41,0,0,0-2.53,1.79,8.49,8.49,0,0,0-2.28,5.84,8.61,8.61,0,0,0,.59,3.19,8.05,8.05,0,0,0,1.66,2.62,7.83,7.83,0,0,0,2.54,1.78A7.75,7.75,0,0,0,331.85,159.77Z" transform="translate(-0.01)"/><path class="cls-5" d="M351.36,136.7h7.11v22.86h12.92v6.78h-20Z" transform="translate(-0.01)"/></g></g><g id="Schutzzone"><rect class="cls-6" width="454.34" height="221.99"/></g></svg>