<?xml version="1.0" standalone="no"?>
<svg version="1.1" preserveAspectRatio="xMidYMid meet" viewBox="0 0 24 24" class="ng-element interactive" data-id="e4ed85cadff2442385bf0df443dfceee" style="mix-blend-mode: normal; fill: rgb(255, 255, 255); width: 40px; height: 40px; filter: none;" xmlns="http://www.w3.org/2000/svg"><g><path xmlns:default="http://www.w3.org/2000/svg" id="youtube-square" d="M13.57,16.24c0,0.34-0.1,0.51-0.3,0.51c-0.13-0.01-0.25-0.07-0.34-0.17v-2.33  c0.09-0.1,0.21-0.16,0.34-0.17c0.2,0,0.3,0.17,0.3,0.52v1.63l0,0V16.24z M15.49,14.62c0-0.35,0.11-0.53,0.34-0.53  c0.23,0,0.34,0.18,0.34,0.53V15h-0.68v-0.39V14.62z M7.13,12.2v0.73h0.81v4.4h0.77v-4.4h0.83V12.2H7.13z M11.64,13.51h-0.7v2.92  c-0.09,0.17-0.25,0.29-0.44,0.32c-0.08,0.01-0.15-0.04-0.16-0.12c0-0.01,0-0.03,0-0.04c-0.01-0.09-0.01-0.18,0-0.27v-2.81H9.65v3  c-0.01,0.19,0.01,0.38,0.06,0.56c0.06,0.19,0.24,0.31,0.44,0.29c0.32-0.04,0.61-0.21,0.79-0.47v0.42h0.7L11.64,13.51  C11.64,13.51,11.64,13.51,11.64,13.51z M14.19,13.9c-0.05-0.26-0.28-0.45-0.55-0.44c-0.29,0.02-0.55,0.18-0.71,0.42V12.2h-0.7v5.13  h0.7V17c0.16,0.25,0.42,0.4,0.71,0.43c0.27,0.01,0.5-0.18,0.55-0.44c0.06-0.25,0.08-0.5,0.07-0.76v-1.56  c0.01-0.26-0.01-0.52-0.07-0.78L14.19,13.9z M16.87,16h-0.71v0.22c0,0.07,0,0.13,0,0.17v0.07c-0.02,0.16-0.15,0.28-0.31,0.27  c-0.23,0-0.35-0.18-0.35-0.53v-0.66h1.38v-0.79c0.02-0.32-0.05-0.63-0.22-0.9c-0.18-0.26-0.49-0.42-0.81-0.4  c-0.33-0.01-0.63,0.14-0.83,0.4c-0.16,0.27-0.24,0.59-0.21,0.9v1.34C14.77,16.41,14.84,16.73,15,17c0.2,0.26,0.51,0.41,0.84,0.4  c0.34,0.03,0.67-0.12,0.86-0.4c0.08-0.13,0.14-0.27,0.16-0.42c0.01-0.15,0.01-0.3,0-0.45V16l0,0H16.87z M11.87,6.88  c-0.22,0-0.33,0.18-0.33,0.54v1.63c0,0.35,0.11,0.53,0.33,0.53c0.22,0,0.33-0.18,0.33-0.53V7.43c-0.01-0.36-0.13-0.54-0.36-0.54  L11.87,6.88z M17.75,14.88c0.03,0.91-0.04,1.82-0.21,2.71c-0.07,0.29-0.22,0.56-0.44,0.76c-0.22,0.2-0.49,0.33-0.79,0.36  c-0.95,0.11-2.38,0.16-4.29,0.16s-3.34-0.05-4.29-0.16c-0.3-0.03-0.57-0.16-0.79-0.36c-0.22-0.2-0.37-0.47-0.44-0.76  c-0.17-0.89-0.24-1.8-0.21-2.71c-0.02-0.91,0.05-1.82,0.21-2.71c0.06-0.3,0.22-0.57,0.44-0.77c0.21-0.21,0.48-0.35,0.78-0.4  c1.42-0.11,2.85-0.16,4.28-0.13c1.43-0.02,2.86,0.03,4.29,0.16c0.29,0.03,0.57,0.16,0.79,0.36c0.23,0.2,0.39,0.47,0.45,0.77  c0.16,0.89,0.23,1.8,0.2,2.71l0,0L17.75,14.88z M9.87,8.07v2.09H9.1V8.07C8.97,7.51,8.81,6.96,8.62,6.42L8.37,5.71  C8.26,5.39,8.18,5.15,8.13,5h0.81l0.55,2L10,5h0.8L9.87,8.07L9.87,8.07z M12.66,9.82c-0.19,0.25-0.49,0.4-0.81,0.4  c-0.33,0.03-0.66-0.12-0.85-0.4c-0.17-0.27-0.24-0.59-0.22-0.91V7.56c-0.02-0.32,0.06-0.63,0.22-0.9c0.18-0.26,0.49-0.42,0.81-0.4  c0.32,0,0.62,0.15,0.81,0.4c0.17,0.27,0.24,0.59,0.22,0.91v1.35C12.88,9.23,12.81,9.55,12.66,9.82z M14.76,9.75  c-0.19,0.26-0.48,0.43-0.8,0.47c-0.2,0.02-0.38-0.1-0.45-0.28c-0.05-0.19-0.07-0.38-0.06-0.57V6.32h0.7v2.83  c-0.01,0.09-0.01,0.18,0,0.27c-0.01,0.08,0.04,0.16,0.13,0.17c0.01,0,0.03,0,0.04,0c0.19-0.03,0.35-0.15,0.44-0.32V6.32h0.7v3.85  h-0.7C14.76,10.17,14.76,9.75,14.76,9.75z M19.12,4.88C18.56,4.31,17.8,3.99,17,4H7C5.34,4,4,5.34,4,7v10c0,1.66,1.34,3,3,3h10  c1.66,0,3-1.34,3-3V7C20.01,6.2,19.69,5.44,19.12,4.88z" style="fill: rgb(255, 255, 255);"/></g></svg>