<svg id="svg" version="1.1" width="400" height="400" viewBox="0 0 400 400" xmlns="http://www.w3.org/2000/svg" xmlns:xlink="http://www.w3.org/1999/xlink" ><g id="svgg"><path id="path0" d="M256.800 12.800 L 256.800 25.600 315.000 25.600 L 373.200 25.600 373.200 83.800 L 373.200 142.000 386.600 142.000 L 400.000 142.000 400.000 71.000 L 400.000 0.000 328.400 0.000 L 256.800 0.000 256.800 12.800 " stroke="none" fill="#fca40c" fill-rule="evenodd"></path><path id="path1" d="M373.200 317.400 L 373.200 374.400 315.000 374.400 L 256.800 374.400 256.800 387.200 L 256.800 400.000 328.400 400.000 L 400.000 400.000 400.000 330.200 L 400.000 260.400 386.600 260.400 L 373.200 260.400 373.200 317.400 " stroke="none" fill="#dc04a4" fill-rule="evenodd"></path><path id="path2" d="M0.000 330.200 L 0.000 400.000 71.600 400.000 L 143.200 400.000 143.200 387.200 L 143.200 374.400 85.000 374.400 L 26.800 374.400 26.800 317.400 L 26.800 260.400 13.400 260.400 L 0.000 260.400 0.000 330.200 " stroke="none" fill="#4c1c74" fill-rule="evenodd"></path><path id="path3" d="M0.000 71.000 L 0.000 142.000 13.400 142.000 L 26.800 142.000 26.800 83.800 L 26.800 25.600 85.000 25.600 L 143.200 25.600 143.200 12.800 L 143.200 0.000 71.600 0.000 L 0.000 0.000 0.000 71.000 " stroke="none" fill="#2cc4f4" fill-rule="evenodd"></path><path id="path4" d="" stroke="none" fill="#547460" fill-rule="evenodd"></path><path id="path5" d="" stroke="none" fill="#9864d8" fill-rule="evenodd"></path><path id="path6" d="" stroke="none" fill="#2cc8d8" fill-rule="evenodd"></path><path id="path7" d="" stroke="none" fill="#2cc8d8" fill-rule="evenodd"></path><path id="path8" d="" stroke="none" fill="#2cc8d8" fill-rule="evenodd"></path></g></svg>