<svg width="60" height="60" viewBox="0 0 60 60" fill="none" xmlns="http://www.w3.org/2000/svg">
<g clip-path="url(#clip0)">
<path d="M30.0212 0C13.4651 0 0 13.4651 0 30.0212C0 46.5773 13.4651 60.0423 30.0212 60.0423C46.5773 60.0423 60.0423 46.5773 60.0423 30.0212C60.0423 13.4651 46.5349 0 30.0212 0ZM56.1468 28.1157H46.9584V24.4742H55.5963C55.8504 25.6598 56.0198 26.8454 56.1468 28.1157ZM30.0212 56.1891C16.2174 56.1891 4.86944 45.4764 3.89555 31.8843H14.2272V23.2886H16.302C17.1066 25.7445 19.4354 27.5229 22.1454 27.5229C25.5328 27.5229 28.2851 24.7706 28.2851 21.3832C28.2851 17.9958 25.5328 15.2435 22.1454 15.2435C19.4354 15.2435 17.1066 17.0219 16.302 19.4778H10.4164V28.0734H3.89555C4.86944 14.5236 16.2174 3.81087 30.0212 3.81087C41.1574 3.81087 50.6845 10.7975 54.4954 20.621H43.1898V28.0734H37.0501V18.8426C39.506 18.0381 41.2844 15.7092 41.2844 12.9993C41.2844 9.61186 38.5321 6.85956 35.1447 6.85956C31.7572 6.85956 29.0049 9.61186 29.0049 12.9993C29.0049 15.7092 30.7833 18.0381 33.2392 18.8426V28.0734H37.0501V31.8843H43.1475V39.4213H31.9266C31.1221 36.9654 28.7932 35.187 26.0833 35.187C22.6958 35.187 19.9435 37.9393 19.9435 41.3267C19.9435 44.7142 22.6958 47.4665 26.0833 47.4665C28.7932 47.4665 31.1221 45.6881 31.9266 43.2322H46.9584V31.9266H56.1468C55.1306 45.4764 43.825 56.1891 30.0212 56.1891ZM19.8165 21.4255C19.8165 20.1553 20.8751 19.0967 22.1454 19.0967C23.4157 19.0967 24.4742 20.1553 24.4742 21.4255C24.4742 22.6958 23.4157 23.7544 22.1454 23.7544C20.8327 23.7544 19.8165 22.6958 19.8165 21.4255ZM35.1447 15.3705C33.8744 15.3705 32.8158 14.3119 32.8158 13.0416C32.8158 11.7713 33.8744 10.7128 35.1447 10.7128C36.415 10.7128 37.4735 11.7713 37.4735 13.0416C37.4735 14.3119 36.415 15.3705 35.1447 15.3705ZM28.4121 41.3691C28.4121 42.6394 27.3536 43.698 26.0833 43.698C24.813 43.698 23.7544 42.6394 23.7544 41.3691C23.7544 40.0988 24.813 39.0402 26.0833 39.0402C27.3959 39.0402 28.4121 40.0565 28.4121 41.3691Z" fill="white"/>
</g>
<defs>
<clipPath id="clip0">
<rect width="60" height="60" fill="white"/>
</clipPath>
</defs>
</svg>
