<svg width="60" height="59" viewBox="0 0 60 59" fill="none" xmlns="http://www.w3.org/2000/svg">
<g clip-path="url(#clip0)">
<path d="M49.7403 28.8312L30 40.1299L21.0823 35.0216V27.7922L30 32.2944L60 17.0563L30 0L0 17.0996L6.36364 20.303V31.039L17.1861 37.2294V45.2381C14.5022 46.0606 12.5541 48.5714 12.5541 51.5151C12.5541 55.1515 15.4978 58.0952 19.1342 58.0952C22.7706 58.0952 25.7143 55.1515 25.7143 51.5151C25.7143 48.5714 23.7662 46.0606 21.0823 45.2381V39.5238L30 44.5887L53.6364 31.039V25.671H49.7403V28.8312ZM19.1342 54.2857C17.6623 54.2857 16.4502 53.0736 16.4502 51.6017C16.4502 50.1299 17.6623 48.9177 19.1342 48.9177C20.6061 48.9177 21.8182 50.1299 21.8182 51.6017C21.8182 53.0736 20.6493 54.2857 19.1342 54.2857ZM30 4.50216L51.7749 16.8831L30 27.9221L8.22511 16.8831L30 4.50216ZM10.2597 28.8312V22.2944L17.1861 25.8009V32.7706L10.2597 28.8312Z" fill="white"/>
</g>
<defs>
<clipPath id="clip0">
<rect width="60" height="58.1818" fill="white"/>
</clipPath>
</defs>
</svg>
