<svg width="60" height="61" viewBox="0 0 60 61" fill="none" xmlns="http://www.w3.org/2000/svg">
<path d="M45.1053 18.4235C46.9379 18.4235 48.4235 16.9379 48.4235 15.1053C48.4235 13.2727 46.9379 11.7871 45.1053 11.7871C43.2727 11.7871 41.7871 13.2727 41.7871 15.1053C41.7871 16.9379 43.2727 18.4235 45.1053 18.4235Z" fill="white"/>
<path d="M25.6829 44.571L15.5955 34.4836L18.6483 31.4308L21.4798 28.5993L18.8695 25.9889L21.4356 23.4229L18.604 20.5913L13.2949 26.0332L15.9052 28.5993L12.5428 31.9617C11.8349 32.6696 11.4809 33.5545 11.5252 34.5721C11.5694 35.5012 11.9234 36.4303 12.6313 37.0939L23.1611 47.6237C23.8247 48.2874 24.7096 48.6856 25.6829 48.7298C25.7272 48.7298 25.7272 48.7298 25.7714 48.7298C26.7005 48.7298 27.5854 48.3759 28.249 47.7122L31.4787 44.4825L28.6472 41.6509L25.6829 44.571Z" fill="white"/>
<path d="M57.7151 3.42503L57.4054 2.58442L56.5648 2.27471C42.6725 -3.07868 36.567 2.58442 35.7707 3.42503L31.2136 7.80508L25.9487 7.76084L15.8613 17.8482L18.6929 20.6798L27.5857 11.7869L32.7621 11.8312L38.5137 6.30082L38.6022 6.21234C38.7792 6.03536 43.0265 1.69956 54.2642 5.72566C58.2903 16.9634 53.9987 21.2107 53.8218 21.3877L48.1587 27.3162L48.2029 32.5369L41.2568 39.483L38.8234 37.0497L31.4348 44.4382L34.2664 47.2698L38.8234 42.7128L41.2568 45.1461L52.229 34.1296V28.8647L56.6091 24.2635C57.4497 23.4671 63.0685 17.3173 57.7151 3.42503Z" fill="white"/>
<path d="M10.6404 40.1465L7.80888 37.3149L6.3931 38.7307L0.59728 44.5265C-0.199093 45.3229 -0.199093 46.5617 0.59728 47.3581C0.995466 47.7563 1.48214 47.9332 2.01305 47.9332C2.54397 47.9332 3.03064 47.7563 3.42883 47.3581L5.1543 45.6326L10.6404 40.1465Z" fill="white"/>
<path d="M20.0647 49.5703L14.5786 55.0564L12.8531 56.7819C12.0568 57.5783 12.0568 58.8171 12.8531 59.6135C13.2513 60.0116 13.738 60.1886 14.2689 60.1886C14.7998 60.1886 15.2865 60.0116 15.6847 59.6135L21.4805 53.8176L22.8963 52.4019L20.0647 49.5703Z" fill="white"/>
<path d="M12.6758 50.3665L14.0916 48.9507L11.26 46.1191L5.77393 51.6053L4.04845 53.3307C3.25208 54.1271 3.25208 55.3659 4.04845 56.1623C4.44664 56.5605 4.93331 56.7374 5.46423 56.7374C5.99514 56.7374 6.48181 56.5605 6.88 56.1623L12.6758 50.3665Z" fill="white"/>
</svg>
