<svg width="60" height="54" viewBox="0 0 60 54" fill="none" xmlns="http://www.w3.org/2000/svg">
<g clip-path="url(#clip0)">
<path d="M40.5918 16.9131V20.7186H56.1943V49.6826H59.9998V16.9131H40.5918Z" fill="white"/>
<path d="M51.2049 24.8628H40.5918V28.6683H51.2049V24.8628Z" fill="white"/>
<path d="M27.1893 24.8628H16.5762V28.6683H27.1893V24.8628Z" fill="white"/>
<path d="M27.1893 16.9131H16.5762V20.7186H27.1893V16.9131Z" fill="white"/>
<path d="M51.2049 33.3618H40.5918V37.1673H51.2049V33.3618Z" fill="white"/>
<path d="M3.12896 0V23.2135C1.31078 23.8901 0 25.666 0 27.7378V37.0402C0 39.1121 1.31078 40.888 3.12896 41.5645V53.4884H6.93446H56.1522V49.6829H36.7865V16.9133H40.592V0H3.12896ZM3.8055 37.0402V27.7378C3.8055 27.1459 4.27061 26.6808 4.86258 26.6808H5.24313C5.8351 26.6808 6.30021 27.1459 6.30021 27.7378V37.0402C6.30021 37.6321 5.8351 38.0973 5.24313 38.0973H4.86258C4.27061 38.0973 3.8055 37.5899 3.8055 37.0402ZM36.7865 16.9133H32.981V49.6829H27.019V33.3615H16.5751V37.167H23.2135V49.7252H6.93446V41.5645C8.75264 40.888 10.0634 39.1121 10.0634 37.0402V27.7378C10.0634 25.666 8.75264 23.8901 6.93446 23.2135V3.8055H36.7865V16.9133Z" fill="white"/>
</g>
<defs>
<clipPath id="clip0">
<rect width="60" height="53.4884" fill="white"/>
</clipPath>
</defs>
</svg>
