<svg width="60" height="61" viewBox="0 0 60 61" fill="none" xmlns="http://www.w3.org/2000/svg">
<g clip-path="url(#clip0)">
<path d="M57.4386 45.8003C54.5347 42.8649 50.0507 42.4333 46.7198 44.5485L37.7945 35.5265C38.3924 34.62 38.8194 33.584 39.0329 32.5048H45.6522C46.4636 35.0517 48.8123 36.8647 51.5881 36.8647C55.0472 36.8647 57.823 34.0157 57.823 30.5623C57.823 27.109 55.0045 24.2599 51.5881 24.2599C48.8123 24.2599 46.4636 26.1161 45.6522 28.6198H38.9902C38.7767 27.5838 38.3497 26.5478 37.7518 25.6845L43.0899 20.2886C43.7732 20.5907 44.4991 20.7634 45.3105 20.7634C48.2998 20.7634 50.6913 18.3029 50.6913 15.3244C50.6913 12.3027 48.2571 9.88531 45.3105 9.88531C42.3639 9.88531 39.9297 12.3458 39.9297 15.3244C39.9297 16.1014 40.1006 16.8784 40.3995 17.569L35.0187 22.9218C33.6095 22.0153 31.944 21.4972 30.1931 21.4972C28.4422 21.4972 26.7767 22.0153 25.3248 22.9218L17.3817 14.8927C19.8159 11.1803 19.4315 6.08661 16.186 2.80591C12.4707 -0.949626 6.44931 -0.949626 2.77671 2.80591C-0.938591 6.56144 -0.938591 12.648 2.77671 16.3604C4.61301 18.2166 7.04717 19.1662 9.48134 19.1662C11.2749 19.1662 13.0685 18.6482 14.6486 17.6122L22.6344 25.6845C21.6949 27.1521 21.2251 28.8356 21.2251 30.6055C21.2251 32.3753 21.7376 34.0157 22.6344 35.4834L17.8514 40.2749C16.9974 39.8433 16.0579 39.5842 15.0756 39.5842C11.6166 39.5842 8.84077 42.4333 8.84077 45.8866C8.84077 49.34 11.6593 52.189 15.0756 52.189C18.492 52.189 21.3105 49.34 21.3105 45.8866C21.3105 44.8506 21.0543 43.8578 20.5845 42.9944L25.2821 38.2461C26.734 39.1957 28.3995 39.7137 30.1931 39.7137C31.944 39.7137 33.6095 39.1957 35.0614 38.2892L43.9867 47.3111C41.8514 50.7213 42.2358 55.2539 45.1824 58.2324C46.8906 59.9591 49.1112 60.7793 51.3319 60.7793C53.5525 60.7793 55.7732 59.9159 57.4813 58.2324C60.855 54.779 60.855 49.2105 57.4386 45.8003ZM51.5454 28.145C52.8692 28.145 53.9369 29.2242 53.9369 30.5623C53.9369 31.9005 52.8692 32.9797 51.5454 32.9797C50.2216 32.9797 49.1539 31.9005 49.1539 30.5623C49.1539 29.2242 50.2216 28.145 51.5454 28.145ZM45.2678 13.7272C46.1219 13.7272 46.8052 14.4178 46.8052 15.2812C46.8052 16.1445 46.1219 16.8352 45.2678 16.8352C44.4137 16.8352 43.7305 16.1445 43.7305 15.2812C43.7305 14.4178 44.4137 13.7272 45.2678 13.7272ZM5.50981 13.6408C3.28917 11.3962 3.28917 7.81329 5.50981 5.5686C7.73045 3.32391 11.2749 3.32391 13.4956 5.5686C15.7162 7.81329 15.7162 11.3962 13.4956 13.6408C11.2749 15.8424 7.68774 15.8424 5.50981 13.6408ZM15.0756 48.304C13.7518 48.304 12.6842 47.2248 12.6842 45.8866C12.6842 44.5485 13.7518 43.4693 15.0756 43.4693C16.3995 43.4693 17.4671 44.5485 17.4671 45.8866C17.4671 47.2248 16.3995 48.304 15.0756 48.304ZM26.5632 34.2747C25.581 33.2819 25.0685 31.9868 25.0685 30.6055C25.0685 29.2242 25.6237 27.886 26.5632 26.9363C27.5454 25.9435 28.8265 25.4254 30.1931 25.4254C31.5596 25.4254 32.8835 25.9866 33.823 26.9363C34.8052 27.9291 35.3176 29.2242 35.3176 30.6055C35.3176 31.9868 34.7625 33.325 33.823 34.2747C32.8835 35.2675 31.6023 35.8287 30.1931 35.8287C28.7838 35.8287 27.5454 35.2675 26.5632 34.2747ZM54.7482 55.4697C52.8692 57.3691 49.7945 57.3691 47.9155 55.4697C46.0365 53.5704 46.0365 50.4623 47.9155 48.563C48.855 47.6133 50.0934 47.1385 51.3319 47.1385C52.5703 47.1385 53.8087 47.6133 54.7482 48.563C56.6272 50.4192 56.6272 53.5272 54.7482 55.4697Z" fill="white"/>
</g>
<defs>
<clipPath id="clip0">
<rect width="60" height="60.7792" fill="white"/>
</clipPath>
</defs>
</svg>
