<svg width="60" height="61" viewBox="0 0 60 61" fill="none" xmlns="http://www.w3.org/2000/svg">
<g clip-path="url(#clip0)">
<path d="M30.0212 0.736084C13.4651 0.736084 0 14.2012 0 30.7573C0 47.3134 13.4651 60.7784 30.0212 60.7784C46.5773 60.7784 60.0423 47.3134 60.0423 30.7573C60.0423 14.2012 46.5349 0.736084 30.0212 0.736084ZM56.1468 28.8518H46.9584V25.2103H55.5963C55.8504 26.3959 56.0198 27.5815 56.1468 28.8518ZM30.0212 56.9252C16.2174 56.9252 4.86944 46.2124 3.89555 32.6203H14.2272V24.0247H16.302C17.1066 26.4806 19.4354 28.259 22.1454 28.259C25.5328 28.259 28.2851 25.5067 28.2851 22.1193C28.2851 18.7318 25.5328 15.9796 22.1454 15.9796C19.4354 15.9796 17.1066 17.758 16.302 20.2139H10.4164V28.8095H3.89555C4.86944 15.2597 16.2174 4.54695 30.0212 4.54695C41.1574 4.54695 50.6845 11.5335 54.4954 21.3571H43.1898V28.8095H37.0501V19.5787C39.506 18.7742 41.2844 16.4453 41.2844 13.7354C41.2844 10.3479 38.5321 7.59565 35.1447 7.59565C31.7572 7.59565 29.0049 10.3479 29.0049 13.7354C29.0049 16.4453 30.7833 18.7742 33.2392 19.5787V28.8095H37.0501V32.6203H43.1475V40.1574H31.9266C31.1221 37.7015 28.7932 35.9231 26.0833 35.9231C22.6958 35.9231 19.9435 38.6754 19.9435 42.0628C19.9435 45.4503 22.6958 48.2026 26.0833 48.2026C28.7932 48.2026 31.1221 46.4242 31.9266 43.9683H46.9584V32.6627H56.1468C55.1306 46.2124 43.825 56.9252 30.0212 56.9252ZM19.8165 22.1616C19.8165 20.8913 20.8751 19.8328 22.1454 19.8328C23.4157 19.8328 24.4742 20.8913 24.4742 22.1616C24.4742 23.4319 23.4157 24.4905 22.1454 24.4905C20.8327 24.4905 19.8165 23.4319 19.8165 22.1616ZM35.1447 16.1066C33.8744 16.1066 32.8158 15.048 32.8158 13.7777C32.8158 12.5074 33.8744 11.4489 35.1447 11.4489C36.415 11.4489 37.4735 12.5074 37.4735 13.7777C37.4735 15.048 36.415 16.1066 35.1447 16.1066ZM28.4121 42.1052C28.4121 43.3755 27.3536 44.434 26.0833 44.434C24.813 44.434 23.7544 43.3755 23.7544 42.1052C23.7544 40.8349 24.813 39.7763 26.0833 39.7763C27.3959 39.7763 28.4121 40.7925 28.4121 42.1052Z" fill="#051048"/>
</g>
<defs>
<clipPath id="clip0">
<rect width="60" height="60" fill="white" transform="translate(0 0.736084)"/>
</clipPath>
</defs>
</svg>