<?xml version="1.0" standalone="no"?>
<svg version="1.1" preserveAspectRatio="xMidYMid meet" viewBox="0 0 24 24" class="ng-element interactive" data-id="9d1f0ea7162f42e79f38bbf615abc29f" style="mix-blend-mode: normal; fill: rgb(255, 255, 255); width: 40px; height: 40px; filter: none;" xmlns="http://www.w3.org/2000/svg"><g><path xmlns:default="http://www.w3.org/2000/svg" id="facebook-official" d="M4.89,4C4.4,4,4,4.4,4,4.89v14.22c0.01,0.48,0.4,0.87,0.88,0.88h7.65V13.8h-2.07v-2.41h2.08V9.61  c-0.05-0.87,0.25-1.72,0.85-2.35c0.61-0.57,1.43-0.87,2.26-0.83c0.62-0.01,1.24,0.02,1.85,0.09v2.15h-1.26  c-0.36-0.06-0.73,0.05-1,0.29C15.06,9.21,14.98,9.52,15,9.83v1.54h2.38l-0.27,2.43H15V20h4.07c0.49,0.02,0.91-0.36,0.93-0.85  c0-0.01,0-0.03,0-0.04V4.89C20,4.4,19.6,4,19.11,4H4.89z" style="fill: rgb(255, 255, 255);"/></g></svg>