<?xml version="1.0" standalone="no"?>
<svg version="1.1" preserveAspectRatio="xMidYMid meet" viewBox="0 0 51 51" class="ng-element" data-id="ead11e2741114bffb9d21755cb9f1b40" style="mix-blend-mode: normal; overflow: visible; width: 87px; height: 87px; pointer-events: all; filter: none;" xmlns="http://www.w3.org/2000/svg"><title>noun_Network_614249</title><desc>Created with Sketch.</desc><defs/><g id="Page-1_1531732748297" stroke="none" stroke-width="1" fill="none" fill-rule="evenodd">
        <g id="About_1531732748297" transform="translate(-1164.000000, -8402.000000)" fill="#FFFFFF" fill-rule="nonzero">
            <g id="noun_Network_614249_1531732748297" transform="translate(1164.000000, 8402.000000)">
                <path d="M41.3288051,28.2605504 C39.0984126,28.2597794 36.9367851,29.0353432 35.2123886,30.4550409 L29.6821286,25.1759868 C30.915971,23.5108595 31.5826131,21.4911779 31.5833148,19.4160886 C31.5833148,19.1449744 31.5833148,18.9045524 31.5425387,18.6129767 L39.4938802,16.669139 C40.8167785,19.4587193 44.0184489,20.8035106 46.92682,19.791182 C49.835191,18.7788534 51.519649,15.7333273 50.8374269,12.7207442 C50.1552049,9.70816101 47.3245986,7.69247996 44.2659429,8.04117574 C41.2072872,8.38987152 38.8992835,10.9913693 38.9077236,14.0807656 C38.9077236,14.157496 38.9077236,14.2291111 38.9077236,14.3058415 L31.0379343,16.2343332 C29.9697938,13.1376085 27.4149896,10.7921379 24.2466736,9.99952963 C21.0783577,9.20692133 17.7255123,10.0744926 15.3340349,12.3057348 L11.4399163,9.03701817 C12.9361502,6.28008059 12.1082687,2.83388471 9.52458676,1.06413686 C6.94090482,-0.70561098 3.44150177,-0.223480593 1.42860903,2.1795605 C-0.584283717,4.58260159 -0.456177859,8.12520909 1.72498591,10.3754931 C3.90614968,12.6257771 7.43117006,12.8520619 9.88023013,10.8990101 L13.7743487,14.1677267 C11.5462181,17.618192 11.7405706,22.1064452 14.258565,25.3499091 L9.83945402,29.5649678 C7.39643283,27.6548161 3.90925206,27.9105899 1.7689124,30.1569168 C-0.371427266,32.4032436 -0.47012192,35.9109136 1.54049886,38.2748776 C3.55111963,40.6388417 7.01836169,41.0917021 9.56489541,39.3229532 C12.1114291,37.5542044 12.9105906,34.1380231 11.4144313,31.416729 L15.9456765,27.0891323 C19.5014347,29.8910725 24.5193833,29.8379051 28.0154051,26.9612483 L33.5456651,32.2044948 C31.8772181,34.4494351 31.2667748,37.3127839 31.8738446,40.0463455 L26.098928,42.0924905 C24.6688507,39.3835453 21.4498228,38.170983 18.5968912,39.2665793 C15.7439597,40.3621756 14.1537358,43.4216095 14.8908291,46.3966777 C15.6279223,49.3717459 18.460681,51.3274522 21.4926543,50.9545072 C24.5246276,50.5815622 26.8029354,47.9971741 26.8023159,44.9315167 C26.8023159,44.7627097 26.8023159,44.5939027 26.8023159,44.4199804 L32.6638817,42.3482586 C34.8070096,46.6228772 39.7315565,48.6958992 44.2719098,47.2347381 C48.8122631,45.7735771 51.6173092,41.2130438 50.8838997,36.4847545 C50.1504901,31.7564652 46.0968722,28.2674592 41.3288051,28.2605504 Z M44.9629759,10.4386275 C46.4646583,10.4463294 47.8069661,11.3801973 48.3410065,12.7887846 C48.8750469,14.1973719 48.490821,15.7905451 47.3740697,16.7981391 C46.2573184,17.8057331 44.6380644,18.0202089 43.2990806,17.3378855 C41.9600968,16.6555621 41.1771802,15.2169809 41.3288051,13.7175748 C41.5176447,11.8502718 43.0877283,10.431667 44.9578789,10.4386275 L44.9629759,10.4386275 Z M6.09824591,9.79409182 C4.27213869,9.80101312 2.72285223,8.45048129 2.47409049,6.63487152 C2.22532875,4.81926174 3.35390226,3.09918253 5.11409666,2.61119056 C6.87429106,2.1231986 8.72260851,3.01797189 9.43775785,4.70428152 C10.1529072,6.39059114 9.51407069,8.34775279 7.9433649,9.28255557 C7.38492675,9.61548774 6.74778375,9.7921277 6.09824591,9.79409182 Z M9.73241673,34.3478317 C9.73471406,36.2510455 8.28036573,37.8370253 6.39030979,37.9924291 C4.50025385,38.1478329 2.80808837,36.8205651 2.5016967,34.9423545 C2.19530502,33.0641439 3.37739795,31.2646177 5.21815801,30.8070254 C7.05891807,30.3494331 8.9412725,31.387172 9.54382722,33.1917598 C9.66553667,33.56143 9.72748489,33.9482732 9.72731972,34.337601 L9.73241673,34.3478317 Z M21.8938916,26.7054802 C20.4004696,26.7057415 18.9437405,26.2410557 17.7245343,25.3754859 C17.0610582,24.9040399 16.4805365,24.324886 16.0068407,23.6618395 C14.3220732,21.3304802 14.1759256,18.2181846 15.6347587,15.738143 C16.0385552,15.0370258 16.5552451,14.4078519 17.1638628,13.8761511 C19.2870383,12.0468336 22.2689441,11.605364 24.8280063,12.7414787 C27.3870685,13.8775933 29.0674467,16.3889185 29.1469422,19.196128 C29.1469422,19.2677431 29.1469422,19.3393582 29.1469422,19.4160886 C29.152099,20.8746973 28.7186564,22.3009363 27.9032708,23.5083786 C27.4452871,24.1826552 26.878554,24.7756317 26.2263533,25.2629479 C24.9757308,26.201525 23.4555159,26.7076943 21.8938916,26.7054802 Z M20.7470635,48.6043469 C18.7441112,48.6015217 17.1221523,46.9706706 17.1230907,44.9605061 C17.1240291,42.9503416 18.7475098,41.3210165 20.7504639,41.3200747 C22.753418,41.319133 24.3784192,42.9469307 24.3812343,44.9570935 C24.3812343,45.0798622 24.3812343,45.1975155 24.3812343,45.3151688 C24.1971104,47.188486 22.6226983,48.6134387 20.7470635,48.6043469 Z M41.3288051,45.2742459 C37.3174259,45.2742459 34.0655605,42.0106742 34.0655605,37.9848544 C34.0655605,33.9590346 37.3174259,30.6954629 41.3288051,30.6954629 C45.3401844,30.6954629 48.5920497,33.9590346 48.5920497,37.9848544 C48.5892385,42.009505 45.3390193,45.2714246 41.3288051,45.2742459 Z" id="Shape_1531732748297" vector-effect="non-scaling-stroke"/>
            </g>
        </g>
    </g></svg>