<?xml version="1.0" standalone="no"?>
<svg version="1.1" preserveAspectRatio="xMidYMid meet" viewBox="0 0 56 53" class="ng-element" data-id="0739e0e0c41c40e6b9aa6a6a7d669f46" style="mix-blend-mode: normal; overflow: visible; width: 87px; height: 82px; pointer-events: all; filter: none;" xmlns="http://www.w3.org/2000/svg"><title>noun_scholarship_1201856</title><desc>Created with Sketch.</desc><defs/><g id="Page-1_1531733205606" stroke="none" stroke-width="1" fill="none" fill-rule="evenodd">
        <g id="About_1531733205606" transform="translate(-871.000000, -8448.000000)" fill="#FFFFFF" fill-rule="nonzero">
            <g id="noun_scholarship_1201856_1531733205606" transform="translate(871.000000, 8448.000000)">
                <path d="M55.3964145,13.8778086 L29.1451709,0.127686812 C28.8041678,-0.0503496202 28.3942146,-0.0420863259 28.060706,0.151725487 L0.560116961,16.1464585 C0.20562362,16.3522896 -0.00872119027,16.735406 0.000272298282,17.1463171 C0.0100152442,17.556477 0.240848117,17.9298276 0.604334946,18.1198834 L8.44665697,22.2274919 L8.44665697,33.0524075 C8.44665697,33.4723331 8.67973821,33.8562007 9.05146907,34.0515149 L13.3098859,36.2780971 L13.3098859,44.0576131 C11.3410614,44.5594204 9.87887002,46.3382824 9.87887002,48.4559393 C9.87887002,50.9619711 11.9226403,53 14.434072,53 C16.9455037,53 18.987775,50.9619711 18.987775,48.4559393 C18.987775,46.3382824 17.5263331,44.5586692 15.558258,44.0583643 L15.558258,37.4537385 L27.4791271,43.6872673 C27.6417594,43.7721539 27.8201302,43.8149727 27.9985011,43.8149727 C28.1768719,43.8149727 28.3559923,43.7721539 28.517875,43.6872673 L46.9477815,34.0507637 C47.3195123,33.8554494 47.5525936,33.4715819 47.5525936,33.0516563 L47.5525936,20.4381131 L55.439883,15.8512335 C55.7943764,15.6454024 56.0087212,15.262286 55.9997277,14.8513749 C55.9907342,14.441215 55.7591519,14.0678644 55.3964145,13.8778086 Z M16.7386534,48.4559393 C16.7386534,49.7194721 15.7044022,50.7463743 14.4333225,50.7463743 C13.1614933,50.7463743 12.1264927,49.7194721 12.1264927,48.4559393 C12.1264927,47.1924065 13.1614933,46.1655044 14.4333225,46.1655044 C15.7044022,46.1655044 16.7386534,47.1924065 16.7386534,48.4559393 Z M10.6942796,32.3680565 L10.6942796,23.4046357 L13.308387,24.7733378 L13.308387,33.7352561 L10.6942796,32.3680565 Z M45.3042214,32.3680565 L27.9977516,41.4163638 L15.5567591,34.9108975 L15.5567591,25.951984 L26.8533302,31.8685028 C27.0167119,31.9541405 27.1950828,31.9969594 27.3734536,31.9969594 C27.569062,31.9969594 27.7639209,31.9458772 27.937795,31.8444641 L45.303472,21.7459672 L45.303472,32.3680565 L45.3042214,32.3680565 Z M27.3457237,29.5833263 L16.3406915,23.8193029 L25.4870694,18.3392363 C26.0776418,18.8019808 26.8128595,19.0904449 27.6200251,19.0904449 C29.5371371,19.0904449 31.0967579,17.5339407 31.0967579,15.6206125 C31.0967579,13.7080354 29.5371371,12.1515313 27.6200251,12.1515313 C25.7036626,12.1515313 24.1447912,13.7080354 24.1447912,15.6206125 C24.1447912,15.9083254 24.1905081,16.1840189 24.2564604,16.450698 L14.0016351,22.5948329 L3.45227299,17.0696938 L28.6520279,2.41361451 L52.5462281,14.9287494 L27.3457237,29.5833263 Z M26.3939128,15.6198613 C26.3939128,14.9497832 26.9440146,14.4044058 27.6207746,14.4044058 C28.2975346,14.4044058 28.8491352,14.9497832 28.8491352,15.6198613 C28.8491352,16.2906905 28.298284,16.836068 27.6207746,16.836068 C26.9440146,16.836068 26.3939128,16.2906905 26.3939128,15.6198613 Z" id="Shape_1531733205606" vector-effect="non-scaling-stroke"/>
            </g>
        </g>
    </g></svg>