<?xml version="1.0" standalone="no"?>
<svg version="1.1" preserveAspectRatio="xMidYMid meet" viewBox="0 0 906.81 338.2" class="ng-element" data-id="95a6a56897d0453286971e47eafbca0c" style="mix-blend-mode: normal; overflow: visible; width: 132px; height: 49px; filter: none;" xmlns="http://www.w3.org/2000/svg"><defs><style>.cls-1_1530784203689{fill:#010202;}.cls-2_1530784203689{fill:#ffa70e;}.cls-3_1530784203689{fill:#dd04a5;}.cls-4_1530784203689{fill:#4e1a75;}.cls-5_1530784203689{fill:#28c6f3;}</style></defs><title>Element 3</title><g id="Ebene_2_1530784203689" data-name="Ebene 2"><g id="Ebene_1-2_1530784203689" data-name="Ebene 1"><rect class="cls-1_1530784203689" y="95.21" width="65.04" height="10.93" vector-effect="non-scaling-stroke"/><path class="cls-1_1530784203689" d="M108.74,2.6H97.3V18.73h7.28c8.33,0,13.53,2.6,15.61,9.37,1,2.6,1.56,5.72,1.56,16.65s-.52,14.56-1,16.65c-2.08,6.76-7.28,9.36-15.61,9.36H95.74c-.52,0-.52,0-.52-.52V22.89H77V86.37a1.12,1.12,0,0,0,1,1h31.73c15.09,0,25-6.24,29.14-19.25,1.56-4.68,2.08-9.37,2.08-23.41s-.52-18.73-2.08-23.42C134.24,8.85,123.83,2.6,108.74,2.6" vector-effect="non-scaling-stroke"/><path class="cls-1_1530784203689" d="M159.21,87.41h15.61a1.12,1.12,0,0,0,1-1V3.64a1.12,1.12,0,0,0-1-1H159.21a1.12,1.12,0,0,0-1,1V85.85c-.52,1,0,1.56,1,1.56" vector-effect="non-scaling-stroke"/><path class="cls-1_1530784203689" d="M226.85,88.45c15.09,0,26.54-7.8,31.22-21.33,1.56-4.68,2.08-11.45,2.08-19.25V41.1a1.12,1.12,0,0,0-1-1H230a1.12,1.12,0,0,0-1,1v12a1.12,1.12,0,0,0,1,1h11.45c.52,0,.52,0,.52.52a32.68,32.68,0,0,1-1,8.33c-1.56,5.72-7.29,8.84-13.53,8.84-7.28,0-12-3.64-14.05-9.36-1-3.13-1.56-7.29-1.56-18.21s.52-15.09,1.56-18.21c2.08-5.73,6.25-9.37,13.53-9.37,6.76,0,11.45,3.12,14.57,8.84A1,1,0,0,0,243,26l13.53-5.73c.52-.52,1-1,.52-2.08C252.87,7.8,242.46,0,226.85,0c-15.09,0-27.06,6.76-31.22,20.81-2.08,5.73-2.6,10.41-2.6,23.42s.52,17.17,2.6,23.41c4.69,14,16.13,20.81,31.22,20.81" vector-effect="non-scaling-stroke"/><path class="cls-1_1530784203689" d="M294,2.6H278.36a1.12,1.12,0,0,0-1,1V85.85a1.12,1.12,0,0,0,1,1H294a1.12,1.12,0,0,0,1-1V3.64c.52-.52,0-1-1-1" vector-effect="non-scaling-stroke"/><path class="cls-1_1530784203689" d="M310.1,18.73h21.33c.52,0,.52,0,.52.52v66.6a1.12,1.12,0,0,0,1,1H348.6a1.12,1.12,0,0,0,1-1V19.25c0-.52,0-.52.52-.52h21.33a1.12,1.12,0,0,0,1-1v-14a1.12,1.12,0,0,0-1-1H310.1a1.12,1.12,0,0,0-1,1V17.69a1.12,1.12,0,0,0,1,1" vector-effect="non-scaling-stroke"/><path class="cls-1_1530784203689" d="M374.1,87.41h16.13c1,0,1.56-.52,1.56-1l4.68-15.09h29.66l4.68,15.09c0,1,.52,1,1.56,1H448.5c1,0,1-.52,1-1L420.92,4.16c0-.52-.52-1-1.56-1H403.75c-1,0-1.56.52-1.56,1L373.06,86.37c0,.52,0,1,1,1M411.56,26h0l9.88,29.65H401.67Z" vector-effect="non-scaling-stroke"/><path class="cls-1_1530784203689" d="M464.11,87.41h55.15a1.12,1.12,0,0,0,1-1V72.32a1.12,1.12,0,0,0-1-1H481.8c-.52,0-.52,0-.52-.52V3.64a1.12,1.12,0,0,0-1-1H464.63a1.12,1.12,0,0,0-1,1V85.85c-.52,1,0,1.56.52,1.56" vector-effect="non-scaling-stroke"/><path class="cls-1_1530784203689" d="M32.26,127.48H4.16a1.12,1.12,0,0,0-1,1v82.21a1.12,1.12,0,0,0,1,1H8.84a1.13,1.13,0,0,0,1.05-1V175.86c0-.52,0-.52.52-.52H32.26c16.13,0,26-9.36,26-23.93,0-15.09-9.88-23.93-26-23.93m-.52,41.1H10.41c-.52,0-.52,0-.52-.53V134.76c0-.53,0-.53.52-.53H31.74c12.49,0,19.25,6.25,19.25,17.18s-6.76,17.17-19.25,17.17" vector-effect="non-scaling-stroke"/><path class="cls-1_1530784203689" d="M117.07,173.26c10.92-2.6,17.17-10.93,17.17-22.37,0-14.57-9.89-23.42-26-23.42H79.61a1.12,1.12,0,0,0-1,1v82.21a1.12,1.12,0,0,0,1,1h4.68a1.12,1.12,0,0,0,1-1v-35.9c0-.52,0-.52.52-.52h22.89l17.69,36.94c.52,1,.52,1,1.56,1h5.73c.52,0,1-.52.52-1.56Zm-8.85-5.72H86.37c-.52,0-.52,0-.52-.53V135.28c0-.52,0-.52.52-.52h21.85c12,0,18.73,6.24,18.73,16.65.52,9.88-6.24,16.13-18.73,16.13" vector-effect="non-scaling-stroke"/><path class="cls-1_1530784203689" d="M184.71,125.91c-14.05,0-23.42,6.77-27.58,19.25-1.56,4.69-2.6,9.89-2.6,24.46s1,20.29,2.6,24.45c4.16,12.49,13.53,19.25,27.58,19.25,13.52,0,23.41-6.76,27.57-19.25,1.56-4.68,2.6-9.88,2.6-24.45s-1-20.29-2.6-24.46c-4.16-12.48-13.53-19.25-27.57-19.25m20.81,66.6c-3.12,9.37-9.89,14.57-20.29,14.57s-17.69-5.2-20.82-14.57c-1-3.12-2.08-8.84-2.08-22.37s1-19.25,2.08-22.37c3.13-9.37,9.89-14.57,20.82-14.57,10.4,0,17.17,5.2,20.29,14.57,1,3.12,2.08,8.84,2.08,22.37s-1,18.73-2.08,22.37" vector-effect="non-scaling-stroke"/><path class="cls-1_1530784203689" d="M265.87,127.47H239.34a1.12,1.12,0,0,0-1,1v82.21a1.12,1.12,0,0,0,1,1h26.53c14.05,0,23.42-5.72,27.06-17.17,1.56-5.2,2.6-9.88,2.6-25s-.52-20.29-2.6-25c-4.16-12-13-17.17-27.06-17.17m19.78,65c-3.13,8.85-10.41,13-21.34,13H245.58c-.52,0-.52,0-.52-.52V134.76c0-.52,0-.52.52-.52h18.73c10.93,0,18.21,3.64,21.34,13,1.56,4.16,2.08,8.32,2.08,22.89s-.52,18.21-2.08,22.37" vector-effect="non-scaling-stroke"/><path class="cls-1_1530784203689" d="M373.58,127.47h-4.69a1.12,1.12,0,0,0-1,1v54.64c0,16.13-8.32,23.93-21.85,23.93s-21.85-7.8-21.85-23.93V128.51a1.12,1.12,0,0,0-1-1h-4.69a1.12,1.12,0,0,0-1,1v54.12c0,20.81,11.45,30.69,28.62,30.69,17.69,0,28.62-9.88,28.62-30.69V128.51c.52-.52,0-1-1-1" vector-effect="non-scaling-stroke"/><path class="cls-1_1530784203689" d="M426.13,132.68c9.36,0,15.61,4.68,19.25,12,.52.52,1,1,1.56.52l4.16-2.08a1.91,1.91,0,0,0,.52-1.56c-4.68-10.4-14.05-15.61-25.49-15.61-13.53,0-22.38,6.25-27.06,18.73-1.56,4.17-2.08,9.89-2.08,25s1,20.29,2.08,25c4.16,12.49,13.53,18.73,27.06,18.73,11.44,0,20.81-5.2,25.49-15.61a1.91,1.91,0,0,0-.52-1.56l-4.16-2.08c-.52-.52-1,0-1.56.52-3.64,7.29-9.89,12-19.25,12-10.41,0-16.65-4.68-19.77-14.05-1-3.13-2.09-8.84-2.09-22.89s.53-19.25,2.09-22.9c3.12-8.84,9.36-14,19.77-14" vector-effect="non-scaling-stroke"/><path class="cls-1_1530784203689" d="M520.82,127.47H463.06a1.12,1.12,0,0,0-1,1v4.17a1.12,1.12,0,0,0,1,1h24.46c.52,0,.52,0,.52.52v76a1.12,1.12,0,0,0,1,1h4.69a1.13,1.13,0,0,0,1-1V134.76c0-.52,0-.52.52-.52h24.45a1.12,1.12,0,0,0,1-1V129q1.56-1.56,0-1.56" vector-effect="non-scaling-stroke"/><path class="cls-1_1530784203689" d="M106.14,290.85l-3.64-.53c-14.57-2.07-19.77-7.27-19.77-16.12,0-9.89,7.28-16.65,19.25-16.65a38.81,38.81,0,0,1,20.81,6.24,1,1,0,0,0,1.56,0l2.6-3.64c.52-.52.52-1.56,0-1.56-5.72-4.16-15.08-7.29-24.45-7.29C86.37,251.3,76,260.67,76,275.24c0,12.48,7.81,20.29,24.46,22.37l3.64.52c15.61,2.09,20.29,8.33,20.29,16.65,0,10.41-8.32,17.17-21.85,17.17a39.59,39.59,0,0,1-24.45-8.85,1,1,0,0,0-1.56,0l-3.13,3.65a1,1,0,0,0,0,1.56c5.73,5.2,17.17,9.89,28.1,9.89,19.77,0,30.18-10.41,30.18-24.46-.52-12.48-8.33-20.81-25.5-22.89" vector-effect="non-scaling-stroke"/><path class="cls-1_1530784203689" d="M179.5,257.55c9.37,0,15.61,4.68,19.25,12,.52.51,1,1,1.56.51l4.17-2.08a1.91,1.91,0,0,0,.52-1.56c-4.69-10.4-14.05-15.61-25.5-15.61-13.53,0-22.37,6.24-27.05,18.74-1.56,4.16-2.08,9.88-2.08,25s1,20.29,2.08,25C156.61,332,166,338.2,179.5,338.2c11.45,0,20.81-5.21,25.5-15.61a1.91,1.91,0,0,0-.52-1.56l-4.17-2.09c-.52-.52-1,0-1.56.52-3.64,7.29-9.88,12-19.25,12-10.4,0-16.65-4.68-19.77-14.05-1-3.12-2.08-8.84-2.08-22.89s.52-19.26,2.08-22.89c3.12-8.85,9.37-14.05,19.77-14.05" vector-effect="non-scaling-stroke"/><path class="cls-1_1530784203689" d="M283,252.35h-4.68a1.12,1.12,0,0,0-1,1v36.42c0,.52,0,.52-.52.52H234.66c-.52,0-.52,0-.52-.52V253.39a1.12,1.12,0,0,0-1-1h-4.69a1.12,1.12,0,0,0-1,1v82.2a1.12,1.12,0,0,0,1,1h4.69a1.12,1.12,0,0,0,1-1V298.13c0-.52,0-.52.52-.52H276.8c.52,0,.52,0,.52.52v37.46a1.12,1.12,0,0,0,1,1H283a1.13,1.13,0,0,0,1-1v-82.2a1.13,1.13,0,0,0-1-1" vector-effect="non-scaling-stroke"/><path class="cls-1_1530784203689" d="M337.15,250.78c-14,0-23.41,6.77-27.57,19.26-1.56,4.68-2.6,9.88-2.6,24.45s1,20.29,2.6,24.45c4.16,12.49,13.53,19.26,27.57,19.26,13.53,0,23.42-6.77,27.58-19.26,1.56-4.68,2.6-9.89,2.6-24.45s-1-20.29-2.6-24.46c-4.16-12.48-14.05-19.25-27.58-19.25m20.3,66.6c-3.13,9.37-9.89,14.57-20.3,14.57s-17.69-5.2-20.81-14.57c-1-3.12-2.08-8.84-2.08-22.37s1-19.25,2.08-22.38c3.12-9.36,9.89-14.56,20.81-14.56,10.41,0,17.17,5.2,20.3,14.56,1,3.13,2.08,8.85,2.08,22.38s-.52,18.73-2.08,22.37" vector-effect="non-scaling-stroke"/><path class="cls-1_1530784203689" d="M416.24,250.78c-14.05,0-23.41,6.77-27.58,19.26-1.56,4.68-2.6,9.88-2.6,24.45s1,20.29,2.6,24.45c4.17,12.49,13.53,19.26,27.58,19.26,13.53,0,23.41-6.77,27.58-19.26,1.56-4.68,2.6-9.89,2.6-24.45s-1-20.29-2.6-24.46c-4.17-12.48-13.53-19.25-27.58-19.25m20.81,66.6c-3.12,9.37-9.88,14.57-20.29,14.57s-17.69-5.2-20.81-14.57c-1-3.12-2.08-8.84-2.08-22.37s1-19.25,2.08-22.38c3.12-9.36,9.88-14.56,20.81-14.56,10.41,0,17.17,5.2,20.29,14.56,1,3.13,2.08,8.85,2.08,22.38s-1,18.73-2.08,22.37" vector-effect="non-scaling-stroke"/><path class="cls-1_1530784203689" d="M518.74,330.39H476.6c-.52,0-.52,0-.52-.52V253.39a1.13,1.13,0,0,0-1.05-1h-4.68a1.12,1.12,0,0,0-1,1v82.2a1.12,1.12,0,0,0,1,1h48.39a1.12,1.12,0,0,0,1-1v-4.16c.52-.52,0-1-1-1" vector-effect="non-scaling-stroke"/><path class="cls-2_1530784203689" d="M847.14,3h56c3.46,0,3.67.2,3.67,3.61q0,54.83,0,109.67c0,.39,0,.78,0,1.17,0,3.18-.33,3.5-3.43,3.5H888.73c-3.36,0-3.64-.28-3.64-3.69v-89c0-4.22,0-4.22-4.32-4.22H791.19c-3.35,0-3.66-.29-3.66-3.66,0-4.75,0-9.5,0-14.25,0-2.73.47-3.14,3.21-3.14Z" vector-effect="non-scaling-stroke"/><path class="cls-3_1530784203689" d="M847.16,337.07H790.94c-3,0-3.4-.38-3.41-3.35,0-4.81,0-9.63,0-14.44,0-2.88.42-3.26,3.29-3.26h91c3.19,0,3.31-.13,3.31-3.29V225.47c0-3.87.32-4.19,4.23-4.2,4.69,0,9.37,0,14.06,0,2.89,0,3.42.56,3.42,3.42q0,54.57,0,109.12c0,3-.3,3.26-3.43,3.26Z" vector-effect="non-scaling-stroke"/><path class="cls-4_1530784203689" d="M632.45,337.07h-56c-3.55,0-3.72-.17-3.72-3.75V225.81c0-4.38.17-4.55,4.66-4.54s9.1,0,13.65,0c2.87,0,3.41.59,3.41,3.45q0,43.62,0,87.22v.78c0,3.16.12,3.29,3.31,3.29H688.1c3.73,0,3.91.19,3.92,4,0,4.49,0,9,0,13.46,0,3.25-.37,3.6-3.56,3.6Z" vector-effect="non-scaling-stroke"/><path class="cls-5_1530784203689" d="M632.35,3h56c3.25,0,3.49.25,3.49,3.58,0,4.82,0,9.63,0,14.44,0,2.69-.36,3-3.05,3H598.65c-4.21,0-4.2,0-4.2,4.16q0,44.4,0,88.79c0,3.76-.2,4-4,4H576.42c-3.4,0-3.68-.25-3.68-3.64q0-36,0-72V6.46c0-3.2.25-3.46,3.42-3.46Z" vector-effect="non-scaling-stroke"/></g></g></svg>