<?xml version="1.0" standalone="no"?>
<svg version="1.1" preserveAspectRatio="xMidYMid meet" viewBox="0 0 24 24" class="ng-element interactive" data-id="be38e6a9b65545928671074cb76056e1" style="mix-blend-mode: normal; fill: rgb(255, 255, 255); width: 40px; height: 40px; filter: none;" xmlns="http://www.w3.org/2000/svg"><g><path xmlns:default="http://www.w3.org/2000/svg" id="instagram" d="M13.88,13.88c-1.04,1.04-2.72,1.04-3.76,0.01c0,0-0.01-0.01-0.01-0.01c-1.04-1.04-1.04-2.72-0.01-3.76  c0,0,0.01-0.01,0.01-0.01c1.04-1.04,2.72-1.04,3.76-0.01c0,0,0.01,0.01,0.01,0.01C14.83,11.13,14.74,12.78,13.88,13.88z M14.88,9.09  c-0.76-0.77-1.8-1.2-2.88-1.19c-2.26-0.01-4.09,1.82-4.1,4.08c0,0.01,0,0.01,0,0.02c-0.01,2.26,1.82,4.09,4.08,4.1  c0.01,0,0.01,0,0.02,0c2.26,0.01,4.09-1.82,4.1-4.08c0-0.01,0-0.01,0-0.02c0.01-1.09-0.42-2.14-1.2-2.9L14.88,9.09z M16.88,7.09  c-0.38-0.4-1.02-0.41-1.41-0.03s-0.41,1.02-0.03,1.41s1.02,0.41,1.41,0.03c0.2-0.19,0.31-0.46,0.31-0.73  c0.04-0.26-0.04-0.52-0.21-0.72L16.88,7.09z M12.8,5.44h1.1h1c0.36,0.01,0.72,0.04,1.07,0.1c0.25,0.04,0.5,0.1,0.74,0.19  c0.69,0.28,1.24,0.83,1.52,1.52c0.09,0.24,0.15,0.49,0.19,0.74c0.06,0.35,0.09,0.71,0.1,1.07c0,0.42,0,0.75,0,1s0,0.61,0,1.1  c0,0.48,0,0.75,0,0.8c0,0.08,0,0.31,0,0.8s0,0.85,0,1.1s0,0.58,0,1c-0.01,0.36-0.04,0.72-0.1,1.07c-0.04,0.25-0.1,0.5-0.19,0.74  c-0.28,0.69-0.83,1.24-1.52,1.52c-0.24,0.09-0.49,0.15-0.74,0.19c-0.35,0.06-0.71,0.09-1.07,0.1h-1h-3.79h-1  C8.74,18.49,8.37,18.47,8,18.43c-0.25-0.04-0.5-0.1-0.74-0.19c-0.69-0.28-1.24-0.83-1.52-1.52C5.66,16.49,5.61,16.24,5.57,16  c-0.06-0.35-0.09-0.71-0.1-1.07c0-0.42,0-0.75,0-1c0-0.25,0-0.61,0-1.1c0-0.48,0-0.75,0-0.8c0-0.08,0-0.31,0-0.8s0-0.85,0-1.1  s0-0.58,0-1C5.48,8.75,5.51,8.37,5.57,8c0.04-0.25,0.1-0.5,0.19-0.74c0.28-0.69,0.83-1.23,1.52-1.5C7.51,5.68,7.75,5.61,8,5.57  c0.35-0.06,0.71-0.09,1.07-0.1h1h2.73V5.44z M19.94,8.7c0.01-1.24-0.45-2.44-1.29-3.35c-0.91-0.84-2.11-1.3-3.35-1.29  C14.69,4.02,13.59,4,12,4S9.31,4.02,8.7,4.05c-1.24-0.01-2.44,0.46-3.35,1.3C4.51,6.26,4.05,7.46,4.06,8.7C4.02,9.31,4,10.41,4,12  s0.02,2.69,0.05,3.3c-0.01,1.24,0.45,2.44,1.29,3.35c0.91,0.84,2.12,1.3,3.36,1.29C9.31,19.98,10.41,20,12,20s2.69-0.02,3.3-0.05  c1.24,0.01,2.44-0.45,3.35-1.29c0.84-0.91,1.3-2.11,1.29-3.35C19.98,14.69,20,13.59,20,12S19.98,9.31,19.94,8.7z" style="fill: rgb(255, 255, 255);"/></g></svg>